<svg xmlns="http://www.w3.org/2000/svg" xmlns:xlink="http://www.w3.org/1999/xlink" xmlns:lucid="lucid" width="582" height="417.6"><g transform="translate(-380 -120)" lucid:page-tab-id="0_0"><path d="M500 186a6 6 0 0 1 6-6h48.68a6 6 0 0 1 6 6v343.03a6 6 0 0 1-6 6H506a6 6 0 0 1-6-6z" stroke="#3a414a" stroke-width="2" fill-opacity="0"/><path d="M561 221.9V186a6 6 0 0 1 6-6h94v41.9zM661 180h100v41.9H661zM761 180h100v41.9H761zM861 180h94a6 6 0 0 1 6 6v35.9H861z" stroke="#3a414a" stroke-width="2" fill="#fff"/><path d="M661 535.33h-94a6 6 0 0 1-6-6V221.9h100zM661 221.9h100v313.43H661zM761 221.9h100v313.43H761zM961 221.9v307.43a6 6 0 0 1-6 6h-94V221.9z" stroke="#3a414a" stroke-width="2" fill="none"/><use xlink:href="#a" transform="matrix(1,0,0,1,561,180.00000000000003) translate(35.98090277777778 29.08376736111111)"/><use xlink:href="#b" transform="matrix(1,0,0,1,660.9999999999999,180.00000000000003) translate(38.47113715277778 29.08376736111111)"/><use xlink:href="#c" transform="matrix(1,0,0,1,760.9999999999999,180.00000000000003) translate(40.96137152777778 29.08376736111111)"/><use xlink:href="#d" transform="matrix(1,0,0,1,860.9999999999999,180.00000000000003) translate(38.47113715277778 29.08376736111111)"/><path d="M500 302.38h461" stroke="#3a414a" stroke-width="2" fill="none"/><path d="M500.03 303.36H499v-1.95h1.03zM962 303.36h-1.03v-1.95H962z" stroke="#3a414a" stroke-width=".05" fill="#3a414a"/><path d="M500 384.65h461" stroke="#3a414a" stroke-width="2" fill="none"/><path d="M500.03 385.62H499v-1.95h1.03zM962 385.62h-1.03v-1.95H962z" stroke="#3a414a" stroke-width=".05" fill="#3a414a"/><path d="M500 463.95h461" stroke="#3a414a" stroke-width="2" fill="none"/><path d="M500.03 464.93H499v-1.95h1.03zM962 464.93h-1.03v-1.95H962z" stroke="#3a414a" stroke-width=".05" fill="#3a414a"/><path d="M640 126a6 6 0 0 1 6-6h228a6 6 0 0 1 6 6v48a6 6 0 0 1-6 6H646a6 6 0 0 1-6-6z" fill="none"/><use xlink:href="#e" transform="matrix(1,0,0,1,640,120) translate(100.078125 38.083767361111114)"/><use xlink:href="#f" transform="matrix(1,0,0,1,640,120) translate(125.32769097222223 38.083767361111114)"/><path d="M380 346a6 6 0 0 1 6-6h128a6 6 0 0 1 6 6v48a6 6 0 0 1-6 6H386a6 6 0 0 1-6-6z" fill="none"/><use xlink:href="#g" transform="matrix(1,0,0,1,380,340) translate(42.331814236111114 38.083767361111114)"/><use xlink:href="#h" transform="matrix(1,0,0,1,380,340) translate(74.45855034722223 38.083767361111114)"/><path d="M480 254.3a6 6 0 0 1 6-6h88a6 6 0 0 1 6 6V514a6 6 0 0 1-6 6h-88a6 6 0 0 1-6-6z" fill="none"/><use xlink:href="#i" transform="matrix(1,0,0,1,480,248.2959856396589) translate(35.98090277777778 23.087673611111093)"/><use xlink:href="#j" transform="matrix(1,0,0,1,480,248.2959856396589) translate(50 49.97569444444443)"/><use xlink:href="#j" transform="matrix(1,0,0,1,480,248.2959856396589) translate(50 76.86371527777777)"/><use xlink:href="#k" transform="matrix(1,0,0,1,480,248.2959856396589) translate(38.47113715277778 103.75173611111109)"/><use xlink:href="#j" transform="matrix(1,0,0,1,480,248.2959856396589) translate(50 130.63975694444443)"/><use xlink:href="#j" transform="matrix(1,0,0,1,480,248.2959856396589) translate(50 157.52777777777777)"/><use xlink:href="#l" transform="matrix(1,0,0,1,480,248.2959856396589) translate(40.96137152777778 184.41579861111111)"/><use xlink:href="#j" transform="matrix(1,0,0,1,480,248.2959856396589) translate(50 211.30381944444446)"/><use xlink:href="#j" transform="matrix(1,0,0,1,480,248.2959856396589) translate(50 238.1918402777778)"/><use xlink:href="#m" transform="matrix(1,0,0,1,480,248.2959856396589) translate(38.47113715277778 265.07986111111114)"/><path d="M501 221.9h58M501.03 221.9H500" stroke="#3a414a" stroke-width="2" fill="none"/><path d="M560 222.88h-1.03v-1.95H560z" stroke="#3a414a" stroke-width=".05" fill="#3a414a"/><path d="M561.6 228.4a6 6 0 0 1 6-6H954a6 6 0 0 1 6 6V294a6 6 0 0 1-6 6H567.6a6 6 0 0 1-6-6z" fill="none"/><use xlink:href="#n" transform="matrix(1,0,0,1,561.6,222.39999999999998) translate(0 47.083767361111114)"/><use xlink:href="#o" transform="matrix(1,0,0,1,561.6,222.39999999999998) translate(37.5 47.083767361111114)"/><use xlink:href="#p" transform="matrix(1,0,0,1,561.6,222.39999999999998) translate(145.26909722222223 47.083767361111114)"/><use xlink:href="#q" transform="matrix(1,0,0,1,561.6,222.39999999999998) translate(241.80772569444446 47.083767361111114)"/><use xlink:href="#r" transform="matrix(1,0,0,1,561.6,222.39999999999998) translate(337.0768229166667 47.083767361111114)"/><path d="M560 306a6 6 0 0 1 6-6h386.4a6 6 0 0 1 6 6v65.6a6 6 0 0 1-6 6H566a6 6 0 0 1-6-6z" fill="none"/><g><use xlink:href="#n" transform="matrix(1,0,0,1,560,300) translate(0 47.083767361111114)"/><use xlink:href="#o" transform="matrix(1,0,0,1,560,300) translate(37.5 47.083767361111114)"/><use xlink:href="#s" transform="matrix(1,0,0,1,560,300) translate(145.26909722222223 47.083767361111114)"/><use xlink:href="#t" transform="matrix(1,0,0,1,560,300) translate(246.78819444444446 47.083767361111114)"/><use xlink:href="#r" transform="matrix(1,0,0,1,560,300) translate(335.8072916666667 47.083767361111114)"/></g><path d="M560 386a6 6 0 0 1 6-6h386.4a6 6 0 0 1 6 6v65.6a6 6 0 0 1-6 6H566a6 6 0 0 1-6-6z" fill="none"/><g><use xlink:href="#u" transform="matrix(1,0,0,1,560,380) translate(0 47.083767361111114)"/><use xlink:href="#v" transform="matrix(1,0,0,1,560,380) translate(37.5 47.083767361111114)"/><use xlink:href="#w" transform="matrix(1,0,0,1,560,380) translate(145.26909722222223 47.083767361111114)"/><use xlink:href="#x" transform="matrix(1,0,0,1,560,380) translate(240.53819444444446 47.083767361111114)"/><use xlink:href="#y" transform="matrix(1,0,0,1,560,380) translate(342.0572916666667 47.083767361111114)"/></g><path d="M560 466a6 6 0 0 1 6-6h386.4a6 6 0 0 1 6 6v65.6a6 6 0 0 1-6 6H566a6 6 0 0 1-6-6z" fill="none"/><g><use xlink:href="#n" transform="matrix(1,0,0,1,560,460) translate(0 47.083767361111114)"/><use xlink:href="#o" transform="matrix(1,0,0,1,560,460) translate(37.5 47.083767361111114)"/><use xlink:href="#p" transform="matrix(1,0,0,1,560,460) translate(145.26909722222223 47.083767361111114)"/><use xlink:href="#z" transform="matrix(1,0,0,1,560,460) translate(241.80772569444446 47.083767361111114)"/><use xlink:href="#r" transform="matrix(1,0,0,1,560,460) translate(344.5963541666667 47.083767361111114)"/></g><path d="M400 126a6 6 0 0 1 6-6h128a6 6 0 0 1 6 6v48a6 6 0 0 1-6 6H406a6 6 0 0 1-6-6z" fill="none"/><g><use xlink:href="#A" transform="matrix(1,0,0,1,400,120) translate(54.99620225694444 38.083767361111114)"/></g><path d="M670 477a6 6 0 0 1 6-6h168a6 6 0 0 1 6 6v43a6 6 0 0 1-6 6H676a6 6 0 0 1-6-6zM669 236a6 6 0 0 1 6-6h74a6 6 0 0 1 6 6v52a6 6 0 0 1-6 6h-74a6 6 0 0 1-6-6z" stroke="#e81313" stroke-width="3" fill-opacity="0"/><defs><path d="M646 20c-332 0-524-278-524-764 0-483 194-766 524-766s524 283 524 766c0 485-191 764-524 764zm0-166c218 0 341-220 341-598 0-380-123-601-341-601s-341 222-341 601c0 378 123 598 341 598" id="B"/><g id="a"><use transform="matrix(0.010850694444444444,0,0,0.010850694444444444,0,0)" xlink:href="#B"/><use transform="matrix(0.010850694444444444,0,0,0.010850694444444444,14.019097222222221,0)" xlink:href="#B"/></g><path d="M653-1490V0H466v-1314h-10L96-1047v-204l324-239h233" id="C"/><g id="b"><use transform="matrix(0.010850694444444444,0,0,0.010850694444444444,0,0)" xlink:href="#B"/><use transform="matrix(0.010850694444444444,0,0,0.010850694444444444,14.019097222222221,0)" xlink:href="#C"/></g><g id="c"><use transform="matrix(0.010850694444444444,0,0,0.010850694444444444,0,0)" xlink:href="#C"/><use transform="matrix(0.010850694444444444,0,0,0.010850694444444444,9.038628472222221,0)" xlink:href="#C"/></g><g id="d"><use transform="matrix(0.010850694444444444,0,0,0.010850694444444444,0,0)" xlink:href="#C"/><use transform="matrix(0.010850694444444444,0,0,0.010850694444444444,9.038628472222221,0)" xlink:href="#B"/></g><path d="M42 0l247-1490h305L389-253h642L990 0H42" id="D"/><path d="M-38 395l191-620h299L166 395H-38" id="E"/><g id="e"><use transform="matrix(0.010850694444444444,0,0,0.010850694444444444,0,0)" xlink:href="#D"/><use transform="matrix(0.010850694444444444,0,0,0.010850694444444444,12.565104166666666,0)" xlink:href="#E"/></g><path d="M42 0l247-1490h581c341 0 501 193 452 485-33 203-151 351-334 424L1209 0H871L675-532H435L347 0H42zm434-779h220c187 0 287-77 312-226 25-154-54-233-237-233H552" id="F"/><use transform="matrix(0.010850694444444444,0,0,0.010850694444444444,0,0)" xlink:href="#F" id="f"/><path d="M27 0l30-182 657-686 2-8H189l40-242h897l-33 199-622 669-1 8h530L960 0H27" id="G"/><path d="M903-1490L656 0H352l203-1221h-10L163-980l46-279 368-231h326" id="H"/><g id="g"><use transform="matrix(0.010850694444444444,0,0,0.010850694444444444,0,0)" xlink:href="#G"/><use transform="matrix(0.00759548611111111,0,0,0.00759548611111111,12.727864583333332,3.7673611111111107)" xlink:href="#H"/><use transform="matrix(0.010850694444444444,0,0,0.010850694444444444,19.442274305555554,0)" xlink:href="#E"/></g><path d="M595 20C218 20 45-261 124-744c80-483 349-766 724-766 374 0 549 282 470 765-80 485-346 765-723 765zm41-253c185 0 317-186 371-512 53-325-16-513-201-513-181 0-316 183-371 514-53 326 17 511 201 511" id="I"/><g id="h"><use transform="matrix(0.010850694444444444,0,0,0.010850694444444444,0,0)" xlink:href="#G"/><use transform="matrix(0.00759548611111111,0,0,0.00759548611111111,12.727864583333332,3.7673611111111107)" xlink:href="#I"/></g><g id="i"><use transform="matrix(0.010850694444444444,0,0,0.010850694444444444,0,0)" xlink:href="#B"/><use transform="matrix(0.010850694444444444,0,0,0.010850694444444444,14.019097222222221,0)" xlink:href="#B"/></g><g id="k"><use transform="matrix(0.010850694444444444,0,0,0.010850694444444444,0,0)" xlink:href="#B"/><use transform="matrix(0.010850694444444444,0,0,0.010850694444444444,14.019097222222221,0)" xlink:href="#C"/></g><g id="l"><use transform="matrix(0.010850694444444444,0,0,0.010850694444444444,0,0)" xlink:href="#C"/><use transform="matrix(0.010850694444444444,0,0,0.010850694444444444,9.038628472222221,0)" xlink:href="#C"/></g><g id="m"><use transform="matrix(0.010850694444444444,0,0,0.010850694444444444,0,0)" xlink:href="#C"/><use transform="matrix(0.010850694444444444,0,0,0.010850694444444444,9.038628472222221,0)" xlink:href="#B"/></g><use transform="matrix(0.010850694444444444,0,0,0.010850694444444444,0,0)" xlink:href="#B" id="o"/><use transform="matrix(0.010850694444444444,0,0,0.010850694444444444,0,0)" xlink:href="#C" id="p"/><use transform="matrix(0.010850694444444444,0,0,0.010850694444444444,0,0)" xlink:href="#B" id="q"/><use transform="matrix(0.010850694444444444,0,0,0.010850694444444444,0,0)" xlink:href="#B" id="r"/><use transform="matrix(0.010850694444444444,0,0,0.010850694444444444,0,0)" xlink:href="#B" id="s"/><use transform="matrix(0.010850694444444444,0,0,0.010850694444444444,0,0)" xlink:href="#B" id="t"/><use transform="matrix(0.010850694444444444,0,0,0.010850694444444444,0,0)" xlink:href="#B" id="v"/><use transform="matrix(0.010850694444444444,0,0,0.010850694444444444,0,0)" xlink:href="#B" id="w"/><use transform="matrix(0.010850694444444444,0,0,0.010850694444444444,0,0)" xlink:href="#B" id="x"/><use transform="matrix(0.010850694444444444,0,0,0.010850694444444444,0,0)" xlink:href="#B" id="y"/><use transform="matrix(0.010850694444444444,0,0,0.010850694444444444,0,0)" xlink:href="#C" id="z"/><path d="M489-82l64-385H168l42-255h385l64-386h254l-64 386h386l-42 255H807L743-82H489" id="J"/><g id="A"><use transform="matrix(0.010850694444444444,0,0,0.010850694444444444,0,0)" xlink:href="#G"/><use transform="matrix(0.00759548611111111,0,0,0.00759548611111111,12.727864583333332,3.7673611111111107)" xlink:href="#H"/><use transform="matrix(0.00759548611111111,0,0,0.00759548611111111,19.442274305555554,-7.534722222222221)" xlink:href="#J"/></g></defs></g></svg>