<svg xmlns="http://www.w3.org/2000/svg" xmlns:xlink="http://www.w3.org/1999/xlink" xmlns:lucid="lucid" width="740" height="640"><g transform="translate(640 -160)" lucid:page-tab-id="0_0"><path d="M-500 271.67a6 6 0 0 1 6-6h28a6 6 0 0 1 6 6v28a6 6 0 0 1-6 6h-28a6 6 0 0 1-6-6z" stroke="#3a414a" stroke-width="2" fill="#fff"/><use xlink:href="#a" transform="matrix(1,0,0,1,-495,270.66661666667306) translate(10.48068576388889 23.40277777777778)"/><path d="M-471.76 315c0 4.5-3.65 8.14-8.15 8.14s-8.15-3.65-8.15-8.14c0-4.5 3.65-8.14 8.14-8.14 4.5 0 8.14 3.64 8.14 8.14z" stroke="#3a414a" stroke-width="2" fill="#fff"/><path d="M-279.02 362.82l-.1 1.06-.24 1.06-.42 1-.58.94-.7.84-.84.7-.93.58-1 .42-1.08.26-1.06.08h-104.67l-.82.06-.77.2-.73.3-.67.4-.6.5-.5.6-.42.68-.3.73-.2.77-.05.82V398h-1.94v-23.25l.08-1.06.26-1.07.42-1 .57-.95.7-.83.83-.7.94-.58 1-.42 1.07-.26 1.06-.1h104.66l.83-.06.75-.18.73-.3.67-.4.6-.53.5-.6.43-.67.3-.73.18-.76.06-.82V193.4h1.96z" stroke="#3a414a" stroke-width=".05" fill="#3a414a"/><path stroke="#3a414a" stroke-width=".05" fill="#3a414a"/><path d="M-395.7 399h-1.94v-1.03h1.95z" fill="#3a414a"/><path stroke="#3a414a" stroke-width=".05" fill="#3a414a"/><use xlink:href="#b" transform="matrix(1,0,0,1,-285.8376736111111,171.9114583333333) translate(0 17.22222222222222)"/><path d="M-479.02 263.67h-1.96v-72.92h1.96z" stroke="#3a414a" stroke-width=".05" fill="#3a414a"/><path stroke="#3a414a" stroke-width=".05" fill="#3a414a"/><path d="M-479.02 264.67h-1.96v-1.03h1.96z" fill="#3a414a"/><path stroke="#3a414a" stroke-width=".05" fill="#3a414a"/><use xlink:href="#c" transform="matrix(1,0,0,1,-487.77387152777777,169.24479166666666) translate(0 17.22222222222222)"/><path d="M-609.02 708.46l.06.83.18.75.3.73.42.67.5.6.6.5.68.43.73.3.76.18.84.06H-462v1.96h-142.04l-1.05-.1-1.06-.24-1-.42-.94-.58-.83-.7-.72-.84-.57-.93-.42-1-.25-1.08-.08-1.06v-517.8h1.96z" stroke="#3a414a" stroke-width=".05" fill="#3a414a"/><path stroke="#3a414a" stroke-width=".05" fill="#3a414a"/><path d="M-461 715.48h-1.03v-1.96h1.03z" fill="#3a414a"/><path stroke="#3a414a" stroke-width=".05" fill="#3a414a"/><use xlink:href="#d" transform="matrix(1,0,0,1,-617.343038752124,169.24479166666666) translate(0 17.22222222222222)"/><path d="M-437.88 273.96l.06.83.2.75.3.73.4.67.5.6.6.5.68.43.73.3.76.18.82.06H-421v1.96h-11.9l-1.05-.1-1.06-.24-1.03-.42-.93-.58-.83-.7-.7-.84-.58-.93-.42-1-.25-1.08-.08-1.06v-83.3h1.95z" stroke="#3a414a" stroke-width=".05" fill="#3a414a"/><path stroke="#3a414a" stroke-width=".05" fill="#3a414a"/><path d="M-420 280.98h-1.03v-1.96h1.03z" fill="#3a414a"/><path stroke="#3a414a" stroke-width=".05" fill="#3a414a"/><use xlink:href="#e" transform="matrix(1,0,0,1,-443.88436865767784,169.24479166666666) translate(0 17.22222222222222)"/><path d="M-419 266a6 6 0 0 1 6-6h28a6 6 0 0 1 6 6v28a6 6 0 0 1-6 6h-28a6 6 0 0 1-6-6z" stroke="#3a414a" stroke-width="2" fill="#fff"/><use xlink:href="#a" transform="matrix(1,0,0,1,-414.00007083332684,265) translate(10.48068576388889 23.40277777777778)"/><path d="M-460 406a6 6 0 0 1 6-6h68a6 6 0 0 1 6 6v48a6 6 0 0 1-6 6h-68a6 6 0 0 1-6-6z" stroke="#3a414a" stroke-width="2" fill="#fff"/><use xlink:href="#f" transform="matrix(1,0,0,1,-455,405) translate(27.84396701388889 34.02777777777778)"/><path d="M-390.72 308.14c0 4.5-3.64 8.14-8.14 8.14s-8.14-3.64-8.14-8.14 3.64-8.14 8.14-8.14 8.14 3.64 8.14 8.14zM-460 506a6 6 0 0 1 6-6h68a6 6 0 0 1 6 6v48a6 6 0 0 1-6 6h-68a6 6 0 0 1-6-6z" stroke="#3a414a" stroke-width="2" fill="#fff"/><use xlink:href="#f" transform="matrix(1,0,0,1,-455,505) translate(27.84396701388889 34.02777777777778)"/><path d="M-339.36 377.78V474a6 6 0 0 1-6 6H-414a6 6 0 0 0-6 6v12" stroke="#3a414a" stroke-width="2" fill="none"/><path d="M-339.45 376.8l.44-.02.62-.14v1.17h-1.95v-1.2zM-419.02 499h-1.96v-1.03h1.96z" stroke="#3a414a" stroke-width=".05" fill="#3a414a"/><path d="M-398.86 318.28v33.86a6 6 0 0 1-6 6h-9a6 6 0 0 0-6 6V398" stroke="#3a414a" stroke-width="2" fill="none"/><path d="M-398.95 317.3l.44-.02.62-.14v1.17h-1.95v-1.2zM-418.88 399h-1.95v-1.03h1.95z" stroke="#3a414a" stroke-width=".05" fill="#3a414a"/><path d="M-300 426a6 6 0 0 1 6-6h68a6 6 0 0 1 6 6v48a6 6 0 0 1-6 6h-68a6 6 0 0 1-6-6z" stroke="#3a414a" stroke-width="2" fill="#fff"/><use xlink:href="#g" transform="matrix(1,0,0,1,-295,425) translate(23.12934027777778 34.02777777777778)"/><path d="M-378 530h52a6 6 0 0 0 6-6v-58a6 6 0 0 1 6-6h12" stroke="#3a414a" stroke-width="2" fill="none"/><path d="M-377.97 530.98H-379V529h1.03zM-301 460.98h-1.03v-1.96h1.03z" stroke="#3a414a" stroke-width=".05" fill="#3a414a"/><path d="M-378 430h33.64c0-2.76 2.24-5 5-5s5 2.24 5 5H-302" stroke="#3a414a" stroke-width="2" fill="none"/><path d="M-377.97 430.98H-379v-1.96h1.03zM-301 430.98h-1.03v-1.96h1.03z" stroke="#3a414a" stroke-width=".05" fill="#3a414a"/><path d="M-460 606a6 6 0 0 1 6-6h68a6 6 0 0 1 6 6v48a6 6 0 0 1-6 6h-68a6 6 0 0 1-6-6z" stroke="#3a414a" stroke-width="2" fill="#fff"/><use xlink:href="#f" transform="matrix(1,0,0,1,-455,605) translate(27.84396701388889 34.02777777777778)"/><path d="M-439 291.14V334a6 6 0 0 1-6 6h-50a6 6 0 0 0-6 6v278a6 6 0 0 0 6 6h33" stroke="#3a414a" stroke-width="2" fill="none"/><path d="M-439.1 290.14h.45l.63-.14v1.17h-1.96v-1.2zM-461 630.98h-1.03V629h1.03z" stroke="#3a414a" stroke-width=".05" fill="#3a414a"/><path d="M-430.86 281c0 4.5-3.64 8.14-8.14 8.14s-8.14-3.64-8.14-8.14 3.64-8.14 8.14-8.14 8.14 3.64 8.14 8.14z" stroke="#3a414a" stroke-width="2" fill="#3a414a"/><path d="M-340 266a6 6 0 0 1 6-6h28a6 6 0 0 1 6 6v28a6 6 0 0 1-6 6h-28a6 6 0 0 1-6-6z" stroke="#3a414a" stroke-width="2" fill="#fff"/><use xlink:href="#a" transform="matrix(1,0,0,1,-335,265) translate(10.48068576388889 23.40277777777778)"/><path d="M-312.86 308.5c0 4.5-3.64 8.14-8.14 8.14s-8.14-3.64-8.14-8.14 3.64-8.14 8.14-8.14 8.14 3.64 8.14 8.14z" stroke="#3a414a" stroke-width="2" fill="#fff"/><path d="M-273.86 279.5c0 4.5-3.64 8.14-8.14 8.14s-8.14-3.64-8.14-8.14 3.64-8.14 8.14-8.14 8.14 3.64 8.14 8.14z" stroke="#3a414a" stroke-width="2" fill="#3a414a"/><path d="M-292.14 279.5H-298" stroke="#3a414a" stroke-width="2" fill="none"/><path d="M-291.14 279.4v.45l.14.63h-1.17v-1.96h1.2zM-297.97 280.48H-299v-1.96h1.03z" stroke="#3a414a" stroke-width=".05" fill="#3a414a"/><path d="M-331.14 308.5h-33a6 6 0 0 0-6 6V344a6 6 0 0 1-6 6h-17.72c0-2.76-2.24-5-5-5s-5 2.24-5 5h-30a5 5 0 0 0-5 5 5 5 0 0 1-5 5H-496c0-2.76-2.24-5-5-5s-5 2.24-5 5h-8a6 6 0 0 0-6 6v278.5a6 6 0 0 0 6 6h52" stroke="#3a414a" stroke-width="2" fill="none"/><path d="M-330.14 308.4v.45l.14.63h-1.17v-1.96h1.2zM-461 651.48h-1.03v-1.96h1.03z" stroke="#3a414a" stroke-width=".05" fill="#3a414a"/><path d="M-218 450h76" stroke="#3a414a" stroke-width="2" fill="none"/><path d="M-217.97 450.98H-219v-1.96h1.03zM-141 450.98h-1.03v-1.96h1.03z" stroke="#3a414a" stroke-width=".05" fill="#3a414a"/><use xlink:href="#h" transform="matrix(1,0,0,1,-211.3302951388889,424.48958333333337) translate(0 17.22222222222222)"/><path d="M-460 706a6 6 0 0 1 6-6h68a6 6 0 0 1 6 6v48a6 6 0 0 1-6 6h-68a6 6 0 0 1-6-6z" stroke="#3a414a" stroke-width="2" fill="#fff"/><use xlink:href="#f" transform="matrix(1,0,0,1,-455,705) translate(27.84396701388889 34.02777777777778)"/><path d="M-470.52 608.67c0 4.5-3.65 8.14-8.15 8.14s-8.14-3.64-8.14-8.13c0-4.5 3.64-8.14 8.13-8.14 4.5 0 8.15 3.64 8.15 8.14z" stroke="#3a414a" stroke-width="2" fill="#3a414a"/><path d="M-478.67 618.8v6.2c-2.76 0-5 2.24-5 5s2.24 5 5 5v10.5c-2.76 0-5 2.24-5 5s2.24 5 5 5v54c-2.76 0-5 2.24-5 5s2.24 5 5 5v5.25a5.25 5.25 0 0 0 5.25 5.25H-462" stroke="#3a414a" stroke-width="2" fill="none"/><path d="M-478.76 617.8h.45l.6-.14v1.17h-1.94v-1.2zM-461 730.98h-1.03V729h1.03z" stroke="#3a414a" stroke-width=".05" fill="#3a414a"/><path d="M-495.2 628c0 4.5-3.64 8.14-8.13 8.14-4.5 0-8.15-3.64-8.15-8.14s3.65-8.14 8.15-8.14 8.14 3.64 8.14 8.14z" stroke="#3a414a" stroke-width="2" fill="#3a414a"/><path d="M-503.33 638.14v7.36c-2.77 0-5 2.24-5 5s2.23 5 5 5v54c-2.77 0-5 2.24-5 5s2.23 5 5 5V741a6 6 0 0 0 6 6H-462" stroke="#3a414a" stroke-width="2" fill="none"/><path d="M-503.43 637.14h.45l.62-.14v1.17h-1.95v-1.2zM-461 747.98h-1.03V746h1.03z" stroke="#3a414a" stroke-width=".05" fill="#3a414a"/><path d="M-300 666a6 6 0 0 1 6-6h68a6 6 0 0 1 6 6v48a6 6 0 0 1-6 6h-68a6 6 0 0 1-6-6z" stroke="#3a414a" stroke-width="2" fill="#fff"/><use xlink:href="#g" transform="matrix(1,0,0,1,-295,665) translate(23.12934027777778 34.02777777777778)"/><path d="M-378 630h32a6 6 0 0 1 6 6v33.54a6 6 0 0 0 6 6h32" stroke="#3a414a" stroke-width="2" fill="none"/><path d="M-377.97 630.98H-379V629h1.03zM-301 676.52h-1.03v-1.95h1.03z" stroke="#3a414a" stroke-width=".05" fill="#3a414a"/><path d="M-378 730h32a6 6 0 0 0 6-6v-13.67a6 6 0 0 1 6-6h32" stroke="#3a414a" stroke-width="2" fill="none"/><path d="M-377.97 730.98H-379V729h1.03zM-301 705.3h-1.03v-1.95h1.03z" stroke="#3a414a" stroke-width=".05" fill="#3a414a"/><path d="M-218 690h77" stroke="#3a414a" stroke-width="2" fill="none"/><path d="M-217.97 690.98H-219V689h1.03z" stroke="#3a414a" stroke-width=".05" fill="#3a414a"/><path d="M-141.03 690h1.03" stroke="#3a414a" stroke-width="2" fill="none"/><use xlink:href="#i" transform="matrix(1,0,0,1,-214.84331597222226,664.4895833333333) translate(0 17.22222222222222)"/><path d="M-140 426a6 6 0 0 1 6-6h68a6 6 0 0 1 6 6v108a6 6 0 0 1-6 6h-68a6 6 0 0 1-6-6z" stroke="#3a414a" stroke-width="2" fill="#fff"/><use xlink:href="#j" transform="matrix(1,0,0,1,-135,425) translate(0 35.27777777777778)"/><use xlink:href="#k" transform="matrix(1,0,0,1,-135,425) translate(0 62.165798611111114)"/><use xlink:href="#l" transform="matrix(1,0,0,1,-135,425) translate(0 89.05381944444446)"/><path d="M-140 666a6 6 0 0 1 6-6h68a6 6 0 0 1 6 6v108a6 6 0 0 1-6 6h-68a6 6 0 0 1-6-6z" stroke="#3a414a" stroke-width="2" fill="#fff"/><use xlink:href="#j" transform="matrix(1,0,0,1,-135,665) translate(0 35.27777777777778)"/><use xlink:href="#k" transform="matrix(1,0,0,1,-135,665) translate(0 62.165798611111114)"/><use xlink:href="#l" transform="matrix(1,0,0,1,-135,665) translate(0 89.05381944444446)"/><path d="M-176.94 740.06V695c-2.76 0-5-2.24-5-5s2.24-5 5-5V511a6 6 0 0 1 6-6H-142" stroke="#3a414a" stroke-width="2" fill="none"/><path d="M-175.96 741.23l-.9-.17h-.43l-.6.15v-1.17h1.94zM-141 505.98h-1.03v-1.96h1.03zM-142 749.38h-32.96l-.83.06-.75.2-.73.3-.67.4-.6.5-.5.6-.42.68-.3.73-.2.77-.06.82v19.6l-.08 1.05-.26 1.06-.42 1-.57.94-.72.83-.83.72-.93.57-1 .42-1.08.25-1.06.08h-399.78V779h399.7l.83-.06.75-.18.73-.3.67-.42.6-.5.5-.6.42-.68.3-.73.2-.76.06-.84v-19.6l.08-1.05.26-1.05.42-1.02.57-.93.72-.83.83-.7.93-.6 1-.4 1.08-.26 1.06-.07H-142z" stroke="#3a414a" stroke-width=".05" fill="#3a414a"/><path d="M-141 749.38h-1.03v-1.95h1.03z" fill="#3a414a"/><path stroke="#3a414a" stroke-width=".05" fill="#3a414a"/><path stroke="#3a414a" stroke-width=".05" fill="#3a414a"/><use xlink:href="#m" transform="matrix(1,0,0,1,-625.2802418126529,769.2447916666666) translate(0 17.22222222222222)"/><path d="M-168.8 750.2c0 4.5-3.64 8.14-8.14 8.14s-8.14-3.64-8.14-8.14 3.65-8.14 8.14-8.14c4.5 0 8.14 3.65 8.14 8.14z" stroke="#3a414a" stroke-width="2" fill="#3a414a"/><path d="M-58 480h12a6 6 0 0 0 6-6V214.14a6 6 0 0 0-6-6h-229c0-2.76-2.24-5-5-5s-5 2.24-5 5h-148.86c0-2.76-2.24-5-5-5s-5 2.24-5 5h-36a.14.14 0 0 1-.14-.14" stroke="#3a414a" stroke-width="2" fill="none"/><path d="M-57.97 480.98H-59v-1.96h1.03z" stroke="#3a414a" stroke-width=".05" fill="#3a414a"/><path d="M-480 208.03V207" stroke="#3a414a" stroke-width="2" fill="none"/><path d="M-471.72 208.64c0 4.5-3.64 8.14-8.14 8.14s-8.14-3.64-8.14-8.14 3.64-8.14 8.14-8.14 8.14 3.65 8.14 8.14z" stroke="#3a414a" stroke-width="2" fill="#3a414a"/><path d="M-58 720h32a6 6 0 0 0 6-6V256.03a6 6 0 0 0-6-6h-9c0-2.76-2.24-5-5-5s-5 2.24-5 5h-230c0-2.75-2.24-5-5-5s-5 2.25-5 5h-148.86c0-2.75-2.24-5-5-5s-5 2.25-5 5H-475c0-2.75-2.24-5-5-5s-5 2.25-5 5l-114.55.02" stroke="#3a414a" stroke-width="2" fill="none"/><path d="M-57.97 720.98H-59V719h1.03zM-599.53 251.02h-1.56l.5-.75.24-1.2h.83z" stroke="#3a414a" stroke-width=".05" fill="#3a414a"/><path d="M-331.22 367.64c0 4.5-3.64 8.14-8.14 8.14s-8.14-3.64-8.14-8.14 3.64-8.14 8.14-8.14 8.14 3.64 8.14 8.14zM-600.92 246.77c0 4.5-3.65 8.14-8.14 8.14-4.5 0-8.14-3.64-8.14-8.13 0-4.5 3.64-8.14 8.14-8.14s8.14 3.64 8.14 8.14zM-32.55 478.97c0 4.5-3.64 8.14-8.14 8.14-4.48 0-8.13-3.64-8.13-8.13 0-4.5 3.64-8.15 8.14-8.15s8.15 3.65 8.15 8.15zM-14.08 718.72c0 4.5-3.64 8.14-8.14 8.14s-8.14-3.64-8.14-8.14 3.64-8.14 8.14-8.14 8.14 3.64 8.14 8.14z" stroke="#3a414a" stroke-width="2" fill="#3a414a"/><path d="M-16.45 474.1l2.12 2.9.16 1h67.7v1.94h-69.36l-.35-2.17-1.47-2-2.43-.8-1.1.18-2.03 1.47-1.1 3.32h-6.25V478h4.84l.84-2.6 2.9-2.1 2.04-.33z" stroke="#3a414a" stroke-width=".05" fill="#3a414a"/><path d="M-30.52 479.94h-1.2l.17-.88v-.45l-.14-.6h1.18z" fill="#3a414a"/><path stroke="#3a414a" stroke-width=".05" fill="#3a414a"/><path stroke="#3a414a" stroke-width=".05" fill="#3a414a"/><use xlink:href="#n" transform="matrix(1,0,0,1,53.543331306616736,468.21147770310927) translate(0 17.22222222222222)"/><path d="M53.95 524.3H29l-.82.07-.77.2-.72.3-.67.4-.6.5-.5.6-.4.68-.32.73-.18.77-.06.82v183.4l-.1 1.04-.24 1.07-.42 1.02-.57.92-.7.83-.84.7-.93.58-1 .42-1.08.26-1.05.1h-29.08v-1.96h29l.83-.06.76-.2.74-.3.67-.4.6-.5.52-.6.42-.68.3-.73.18-.77.07-.82V529.3l.07-1.06.25-1.06.42-1 .58-.95.7-.83.84-.7.93-.58 1-.42 1.07-.26 1.05-.08h25.02z" stroke="#3a414a" stroke-width=".05" fill="#3a414a"/><path d="M-12.05 719.7h-1.2l.17-.9v-.43l-.14-.63h1.17z" fill="#3a414a"/><path stroke="#3a414a" stroke-width=".05" fill="#3a414a"/><path stroke="#3a414a" stroke-width=".05" fill="#3a414a"/><use xlink:href="#o" transform="matrix(1,0,0,1,53.945408830856366,512.5781229165914) translate(0 17.22222222222222)"/><path d="M-581.38 273.3a6 6 0 0 1 6-6h28a6 6 0 0 1 6 6v28a6 6 0 0 1-6 6h-28a6 6 0 0 1-6-6z" stroke="#3a414a" stroke-width="2" fill="#fff"/><use xlink:href="#a" transform="matrix(1,0,0,1,-576.3776737747412,272.3037598393309) translate(10.48068576388889 23.40277777777778)"/><path d="M-602.6 287.03c0 4.5-3.65 8.14-8.15 8.14s-8.14-3.64-8.14-8.14 3.66-8.14 8.15-8.14c4.5 0 8.14 3.63 8.14 8.13z" stroke="#3a414a" stroke-width="2" fill="#3a414a"/><path d="M-600.6 287.03h8.48a.13.13 0 0 0 .13-.13.13.13 0 0 1 .13-.12h8.5" stroke="#3a414a" stroke-width="2" fill="none"/><path d="M-600.58 288h-1.2l.18-.88v-.44l-.15-.63h1.17zM-582.38 287.75h-1.02v-1.95h1.02z" stroke="#3a414a" stroke-width=".05" fill="#3a414a"/><path d="M-479.9 325.14V335c-2.77 0-5 2.24-5 5s2.23 5 5 5v10c-2.77 0-5 2.24-5 5s2.23 5 5 5v233.74" stroke="#3a414a" stroke-width="2" fill="none"/><path d="M-480 324.14h.45l.62-.15v1.17h-1.95v-1.2zM-478.93 599.53h-.1l-1.85.42v-1.25h1.95z" stroke="#3a414a" stroke-width=".05" fill="#3a414a"/><path d="M-468.93 610.8h6.93" stroke="#3a414a" stroke-width="2" fill="none"/><path d="M-468.9 611.77h-1.22l.38-1.94h.84zM-461 611.77h-1.03v-1.94h1.03z" stroke="#3a414a" stroke-width=".05" fill="#3a414a"/><path d="M-552 315.73c0 4.5-3.64 8.14-8.13 8.14-4.5 0-8.15-3.64-8.15-8.14s3.65-8.14 8.15-8.14 8.14 3.64 8.14 8.13z" stroke="#3a414a" stroke-width="2" fill="#fff"/><path d="M-560.13 325.87V424a6 6 0 0 0 6 6H-525c0-2.76 2.24-5 5-5s5 2.24 5 5h9c0-2.76 2.24-5 5-5s5 2.24 5 5h11.1c0-2.76 2.23-5 5-5 2.76 0 5 2.24 5 5h12.9" stroke="#3a414a" stroke-width="2" fill="none"/><path d="M-560.23 324.88h.45l.62-.15v1.17h-1.95v-1.2zM-461 430.98h-1.03v-1.96h1.03z" stroke="#3a414a" stroke-width=".05" fill="#3a414a"/><path d="M-471.36 231.5c0 4.5-3.64 8.14-8.14 8.14s-8.14-3.64-8.14-8.14 3.64-8.14 8.14-8.14 8.14 3.64 8.14 8.14z" stroke="#3a414a" stroke-width="2" fill="#3a414a"/><path d="M-489.64 231.5h-33a6 6 0 0 0-6 6v7.54c-2.76 0-5 2.24-5 5 0 2.77 2.24 5 5 5V425c-2.76 0-5 2.24-5 5s2.24 5 5 5v79.68a1.82 1.82 0 0 0 1.82 1.82h1.82c0-2.76 2.24-5 5-5s5 2.24 5 5h9c0-2.76 2.24-5 5-5s5 2.24 5 5h11.1c0-2.76 2.23-5 5-5 2.76 0 5 2.24 5 5h12.9" stroke="#3a414a" stroke-width="2" fill="none"/><path d="M-488.64 231.4v.45l.14.63h-1.17v-1.95h1.2zM-461 517.48h-1.03v-1.96h1.03z" stroke="#3a414a" stroke-width=".05" fill="#3a414a"/><path d="M-551.36 429c0 4.5-3.64 8.14-8.14 8.14s-8.14-3.64-8.14-8.14 3.64-8.14 8.14-8.14 8.14 3.64 8.14 8.14z" stroke="#3a414a" stroke-width="2" fill="#3a414a"/><path d="M-559.5 439.14v98.36a6 6 0 0 0 6 6h28.5c0-2.76 2.24-5 5-5s5 2.24 5 5h9c0-2.76 2.24-5 5-5s5 2.24 5 5h11.1c0-2.76 2.23-5 5-5 2.76 0 5 2.24 5 5h12.9" stroke="#3a414a" stroke-width="2" fill="none"/><path d="M-559.6 438.14h.45l.63-.14v1.17h-1.96v-1.2zM-461 544.48h-1.03v-1.96h1.03z" stroke="#3a414a" stroke-width=".05" fill="#3a414a"/><path d="M-640 166a6 6 0 0 1 6-6H94a6 6 0 0 1 6 6v628a6 6 0 0 1-6 6h-728a6 6 0 0 1-6-6z" stroke="#000" stroke-opacity="0" stroke-width="2" fill-opacity="0"/><defs><path d="M653-1490V0H466v-1314h-10L96-1047v-204l324-239h233" id="p"/><use transform="matrix(0.010850694444444444,0,0,0.010850694444444444,0,0)" xlink:href="#p" id="a"/><path fill="#333" d="M135 0v-1490h581c339 0 533 192 533 485 0 204-94 351-264 424L1302 0H964L680-532H440V0H135zm305-779h220c186 0 274-77 274-226 0-150-88-233-275-233H440v459" id="q"/><use transform="matrix(0.008680555555555556,0,0,0.008680555555555556,0,0)" xlink:href="#q" id="b"/><path fill="#333" d="M120 0v-182l551-686v-8H137v-242h897v199L514-250v8h539V0H120" id="r"/><path fill="#333" d="M749-1490V0H444v-1221h-10L93-980v-279l329-231h327" id="s"/><g id="c"><use transform="matrix(0.008680555555555556,0,0,0.008680555555555556,0,0)" xlink:href="#r"/><use transform="matrix(0.006076388888888889,0,0,0.006076388888888889,10.182291666666668,3.013888888888889)" xlink:href="#s"/></g><path fill="#333" d="M690 20C314 20 94-261 94-744c0-482 221-766 596-766 376 0 597 284 597 766 0 483-219 764-597 764zm0-253c184 0 286-184 286-511 0-328-102-514-286-514-183 0-285 187-285 514s101 511 285 511" id="t"/><g id="d"><use transform="matrix(0.008680555555555556,0,0,0.008680555555555556,0,0)" xlink:href="#r"/><use transform="matrix(0.006076388888888889,0,0,0.006076388888888889,10.182291666666668,3.013888888888889)" xlink:href="#t"/></g><path fill="#333" d="M135 0v-1490h305v1237h643V0H135" id="u"/><use transform="matrix(0.008680555555555556,0,0,0.008680555555555556,0,0)" xlink:href="#u" id="e"/><path d="M580 20c-295 0-476-179-476-409 0-189 123-290 294-416-104-125-173-226-173-362 0-197 144-337 365-337 224 0 362 144 362 321 0 185-174 312-306 405l319 387c38-75 61-165 61-267h173c0 208-62 332-120 406L1287 0h-217L967-124C868-27 716 20 580 20zm279-273L507-675l-51 38c-123 91-167 162-167 254 0 147 113 246 278 246 107 0 210-41 292-116zM538-908l97-72c54-40 136-101 136-206 0-95-68-163-176-163-113 0-189 74-189 181 0 90 53 164 132 260" id="v"/><use transform="matrix(0.010850694444444444,0,0,0.010850694444444444,0,0)" xlink:href="#v" id="f"/><path fill="#3a414a" d="M1150-683L206-352v-181l651-210v-10L206-961v-182l944 333v127zM206-69v-168h944v168H206" id="w"/><g id="g"><use transform="matrix(0.010850694444444444,0,0,0.010850694444444444,0,0)" xlink:href="#w"/><use transform="matrix(0.010850694444444444,0,0,0.010850694444444444,14.702690972222221,0)" xlink:href="#p"/></g><path fill="#333" d="M568-82v-393H183v-240h385v-393h254v393h386v240H822v393H568" id="x"/><g id="h"><use transform="matrix(0.008680555555555556,0,0,0.008680555555555556,0,0)" xlink:href="#r"/><use transform="matrix(0.006076388888888889,0,0,0.006076388888888889,10.182291666666668,3.013888888888889)" xlink:href="#s"/><use transform="matrix(0.006076388888888889,0,0,0.006076388888888889,15.547743055555555,-6.027777777777778)" xlink:href="#x"/></g><g id="i"><use transform="matrix(0.008680555555555556,0,0,0.008680555555555556,0,0)" xlink:href="#r"/><use transform="matrix(0.006076388888888889,0,0,0.006076388888888889,10.182291666666668,3.013888888888889)" xlink:href="#t"/><use transform="matrix(0.006076388888888889,0,0,0.006076388888888889,18.57378472222222,-6.027777777777778)" xlink:href="#x"/></g><path d="M645 0H180v-1490h484c435 0 692 280 692 742 0 466-257 748-711 748zM370-168h263c363 0 539-218 539-580 0-358-176-574-521-574H370v1154" id="y"/><g id="j"><use transform="matrix(0.010850694444444444,0,0,0.010850694444444444,0,0)" xlink:href="#p"/><use transform="matrix(0.010850694444444444,0,0,0.010850694444444444,9.038628472222221,0)" xlink:href="#y"/></g><path d="M783 20c-382 0-661-292-661-764 0-473 279-766 661-766 302 0 548 182 601 489h-190c-42-204-217-313-411-313-268 0-476 208-476 590 0 381 209 588 476 588 195 0 369-110 411-313h190c-52 303-296 489-601 489" id="z"/><g id="l"><use transform="matrix(0.010850694444444444,0,0,0.010850694444444444,0,0)" xlink:href="#z"/><use transform="matrix(0.010850694444444444,0,0,0.010850694444444444,16.23263888888889,0)" xlink:href="#p"/></g><path fill="#333" d="M188-1237l42-253h1217l-42 253H950L745 0H439l205-1237H188" id="A"/><path fill="#333" d="M441 19C184 19 19-186 81-558c63-382 303-574 550-574 189 0 259 113 285 202h10l31-188h299L1071 0H776l29-179h-14C733-87 623 19 441 19zm133-241c154 0 263-135 296-336 34-204-31-334-185-334-159 0-264 139-296 334-33 197 29 336 185 336" id="B"/><path fill="#333" d="M35 0l247-1490h300L449-688h18l436-430h347L752-633 1086 0H733L496-456l-102 98L335 0H35" id="C"/><path fill="#333" d="M776-1118l-37 229H530l-93 562c-12 72 14 104 85 104 23 0 74-7 97-13l5 225C555 8 488 16 426 16 201 16 99-97 132-301l98-588H76l37-229h155l44-266h300l-44 266h208" id="D"/><g id="m"><use transform="matrix(0.008680555555555556,0,0,0.008680555555555556,0,0)" xlink:href="#A"/><use transform="matrix(0.008680555555555556,0,0,0.008680555555555556,10.48611111111111,0)" xlink:href="#B"/><use transform="matrix(0.008680555555555556,0,0,0.008680555555555556,21.70138888888889,0)" xlink:href="#C"/><use transform="matrix(0.008680555555555556,0,0,0.008680555555555556,32.013888888888886,0)" xlink:href="#D"/></g><path fill="#333" d="M135 0v-1490h468l242 684c30 94 76 293 111 455 34-161 80-360 110-455l238-684h470V0h-307c0-447-3-765 11-1227-122 503-246 788-395 1227H826C676-435 552-717 427-1215c15 453 11 775 11 1215H135" id="E"/><g id="n"><use transform="matrix(0.008680555555555556,0,0,0.008680555555555556,0,0)" xlink:href="#E"/><use transform="matrix(0.008680555555555556,0,0,0.008680555555555556,16.5625,0)" xlink:href="#u"/></g><g id="o"><use transform="matrix(0.008680555555555556,0,0,0.008680555555555556,0,0)" xlink:href="#E"/><use transform="matrix(0.008680555555555556,0,0,0.008680555555555556,16.5625,0)" xlink:href="#q"/></g></defs></g></svg>