<svg xmlns="http://www.w3.org/2000/svg" xmlns:xlink="http://www.w3.org/1999/xlink" xmlns:lucid="lucid" width="540" height="565.27"><g transform="translate(2160 -178.99999995535185)" lucid:page-tab-id="0_0"><path d="M-2100 186a6 6 0 0 1 6-6h88a6 6 0 0 1 6 6v68a6 6 0 0 1-6 6h-88a6 6 0 0 1-6-6zM-1920.92 219.54c0 10.8-8.75 19.54-19.54 19.54-10.8 0-19.54-8.75-19.54-19.54 0-10.8 8.75-19.54 19.54-19.54 10.8 0 19.54 8.75 19.54 19.54zM-1860.92 219.54c0 10.8-8.75 19.54-19.54 19.54-10.8 0-19.54-8.75-19.54-19.54 0-10.8 8.75-19.54 19.54-19.54 10.8 0 19.54 8.75 19.54 19.54zM-1800.92 219.54c0 10.8-8.75 19.54-19.54 19.54-10.8 0-19.54-8.75-19.54-19.54 0-10.8 8.75-19.54 19.54-19.54 10.8 0 19.54 8.75 19.54 19.54z" stroke="#3a414a" stroke-width="2" fill="#fff"/><path d="M-1940.46 198.5v-8.66a6 6 0 0 0-6-6h-52.38" stroke="#3a414a" fill="none"/><path d="M-1940 199.05l-.4-.05h-.54v-.5h.95zM-1998.83 184.3h-.4l-.1-.46-.2-.48h.7z" stroke="#3a414a" stroke-width=".05" fill="#3a414a"/><path d="M-1880.46 198.5v-8.66a6 6 0 0 0-6-6h-112.38" stroke="#3a414a" fill="none"/><path d="M-1880 199.05l-.4-.05h-.54v-.5h.95zM-1998.83 184.3h-.4l-.1-.46-.2-.48h.7z" stroke="#3a414a" stroke-width=".05" fill="#3a414a"/><path d="M-1820.46 198.5v-8.66a6 6 0 0 0-6-6h-172.38" stroke="#3a414a" fill="none"/><path d="M-1820 199.05l-.4-.05h-.54v-.5h.95zM-1998.83 184.3h-.4l-.1-.46-.2-.48h.7z" stroke="#3a414a" stroke-width=".05" fill="#3a414a"/><path d="M-1940.46 240.58v11.2a6 6 0 0 1-6 6h-53.16" stroke="#3a414a" fill="none"/><path d="M-1940.52 240.08h.53v.5h-.94v-.56zM-1999.6 258.25h-.85l.12-.13.5-.82h.22z" stroke="#3a414a" stroke-width=".05" fill="#3a414a"/><path d="M-1880.46 240.58v11.2a6 6 0 0 1-6 6h-113.16" stroke="#3a414a" fill="none"/><path d="M-1880.52 240.08h.53v.5h-.94v-.56zM-1999.6 258.25h-.85l.12-.13.5-.82h.22z" stroke="#3a414a" stroke-width=".05" fill="#3a414a"/><path d="M-1820.46 240.58v11.2a6 6 0 0 1-6 6h-173.16" stroke="#3a414a" fill="none"/><path d="M-1820.52 240.08h.53v.5h-.94v-.56zM-1999.6 258.25h-.85l.12-.13.5-.82h.22z" stroke="#3a414a" stroke-width=".05" fill="#3a414a"/><path d="M-2100 366a6 6 0 0 1 6-6h148a6 6 0 0 1 6 6v108a6 6 0 0 1-6 6h-148a6 6 0 0 1-6-6zM-1900 406a6 6 0 0 1 6-6h46.15a6 6 0 0 1 6 6v31.6a6 6 0 0 1-6 6H-1894a6 6 0 0 1-6-6zM-1800 406a6 6 0 0 1 6-6h46.15a6 6 0 0 1 6 6v31.6a6 6 0 0 1-6 6H-1794a6 6 0 0 1-6-6zM-1700 406a6 6 0 0 1 6-6h46.15a6 6 0 0 1 6 6v31.6a6 6 0 0 1-6 6H-1694a6 6 0 0 1-6-6z" stroke="#3a414a" stroke-width="2" fill="#fff"/><path d="M-1870.93 398.5v-16.04" stroke="#3a414a" fill="none"/><path d="M-1870.45 399h-.95v-.5h.95z" stroke="#3a414a" stroke-width=".05" fill="#3a414a"/><path d="M-1870.93 382.47v-.5M-1770.93 398.5v-16.04" stroke="#3a414a" fill="none"/><path d="M-1770.45 399h-.95v-.5h.95z" stroke="#3a414a" stroke-width=".05" fill="#3a414a"/><path d="M-1770.93 382.47v-.5M-1620.5 381.96h-318M-1620.5 381.96h.5" stroke="#3a414a" fill="none"/><path d="M-1938.5 382.44h-.5v-.95h.5z" stroke="#3a414a" stroke-width=".05" fill="#3a414a"/><path d="M-1670.93 398.5v-16.04" stroke="#3a414a" fill="none"/><path d="M-1670.45 399h-.95v-.5h.95z" stroke="#3a414a" stroke-width=".05" fill="#3a414a"/><path d="M-1670.93 382.47v-.5M-1620.5 365.73h-318.02M-1620.5 365.73h.5" stroke="#3a414a" fill="none"/><path d="M-1938.5 366.2h-.5v-.24l-.06-.7h.55z" stroke="#3a414a" stroke-width=".05" fill="#3a414a"/><path d="M-1859.9 398.5v-32.27" stroke="#3a414a" fill="none"/><path d="M-1859.43 399h-.95v-.5h.95z" stroke="#3a414a" stroke-width=".05" fill="#3a414a"/><path d="M-1859.9 366.25v-.52M-1760.04 398.5v-32.27" stroke="#3a414a" fill="none"/><path d="M-1759.57 399h-.95v-.5h.95z" stroke="#3a414a" stroke-width=".05" fill="#3a414a"/><path d="M-1760.04 366.25v-.52M-1657.76 398.5v-32.27" stroke="#3a414a" fill="none"/><path d="M-1657.3 399h-.94v-.5h.95z" stroke="#3a414a" stroke-width=".05" fill="#3a414a"/><path d="M-1657.76 366.25v-.52M-1621.48 460h-317.02M-1621.5 460h.52" stroke="#3a414a" fill="none"/><path d="M-1938.5 460.48h-.5v-.96h.5z" stroke="#3a414a" stroke-width=".05" fill="#3a414a"/><path d="M-1870.93 445.1v14.4" stroke="#3a414a" fill="none"/><path d="M-1870.45 445.12h-.95v-.5h.95z" stroke="#3a414a" stroke-width=".05" fill="#3a414a"/><path d="M-1870.93 459.5v.5M-1767.6 445.1v14.4" stroke="#3a414a" fill="none"/><path d="M-1767.1 445.12h-.96v-.5h.95z" stroke="#3a414a" stroke-width=".05" fill="#3a414a"/><path d="M-1767.6 459.5v.5M-1670.93 445.1v14.4" stroke="#3a414a" fill="none"/><path d="M-1670.45 445.12h-.95v-.5h.95z" stroke="#3a414a" stroke-width=".05" fill="#3a414a"/><path d="M-1670.93 459.5v.5" stroke="#3a414a" fill="none"/><path d="M-2160 206a6 6 0 0 1 6-6h48a6 6 0 0 1 6 6v508a6 6 0 0 1-6 6h-48a6 6 0 0 1-6-6z" fill="none"/><use xlink:href="#a" transform="matrix(1,0,0,1,-2160,200) translate(0 21.52777777777778)"/><use xlink:href="#b" transform="matrix(1,0,0,1,-2160,200) translate(0 48.415798611111114)"/><use xlink:href="#b" transform="matrix(1,0,0,1,-2160,200) translate(0 75.30381944444446)"/><use xlink:href="#b" transform="matrix(1,0,0,1,-2160,200) translate(0 102.19184027777777)"/><use xlink:href="#b" transform="matrix(1,0,0,1,-2160,200) translate(0 129.07986111111111)"/><use xlink:href="#b" transform="matrix(1,0,0,1,-2160,200) translate(0 155.96788194444446)"/><use xlink:href="#b" transform="matrix(1,0,0,1,-2160,200) translate(0 182.8559027777778)"/><use xlink:href="#b" transform="matrix(1,0,0,1,-2160,200) translate(0 209.74392361111114)"/><use xlink:href="#c" transform="matrix(1,0,0,1,-2160,200) translate(0 236.63194444444449)"/><use xlink:href="#b" transform="matrix(1,0,0,1,-2160,200) translate(0 263.5199652777778)"/><use xlink:href="#b" transform="matrix(1,0,0,1,-2160,200) translate(0 290.40798611111114)"/><use xlink:href="#b" transform="matrix(1,0,0,1,-2160,200) translate(0 317.29600694444446)"/><use xlink:href="#b" transform="matrix(1,0,0,1,-2160,200) translate(0 344.18402777777777)"/><use xlink:href="#b" transform="matrix(1,0,0,1,-2160,200) translate(0 371.0720486111111)"/><use xlink:href="#b" transform="matrix(1,0,0,1,-2160,200) translate(0 397.9600694444444)"/><use xlink:href="#b" transform="matrix(1,0,0,1,-2160,200) translate(0 424.8480902777777)"/><use xlink:href="#d" transform="matrix(1,0,0,1,-2160,200) translate(0 451.73611111111103)"/><use xlink:href="#b" transform="matrix(1,0,0,1,-2160,200) translate(0 478.62413194444434)"/><use xlink:href="#b" transform="matrix(1,0,0,1,-2160,200) translate(0 505.51215277777766)"/><use xlink:href="#b" transform="matrix(1,0,0,1,-2160,200) translate(0 532.400173611111)"/><use xlink:href="#b" transform="matrix(1,0,0,1,-2160,200) translate(0 559.2881944444443)"/><use xlink:href="#b" transform="matrix(1,0,0,1,-2160,200) translate(0 586.1762152777777)"/><use xlink:href="#b" transform="matrix(1,0,0,1,-2160,200) translate(0 613.0642361111111)"/><use xlink:href="#e" transform="matrix(1,0,0,1,-2160,200) translate(0 639.9522569444445)"/><path d="M-2100 586a6 6 0 0 1 6-6h148a6 6 0 0 1 6 6v108a6 6 0 0 1-6 6h-148a6 6 0 0 1-6-6zM-1700.92 579.54c0 10.8-8.75 19.54-19.54 19.54-10.8 0-19.54-8.75-19.54-19.54 0-10.8 8.75-19.54 19.54-19.54 10.8 0 19.54 8.75 19.54 19.54zM-1840.92 699.54c0 10.8-8.75 19.54-19.54 19.54-10.8 0-19.54-8.75-19.54-19.54 0-10.8 8.75-19.54 19.54-19.54 10.8 0 19.54 8.75 19.54 19.54z" stroke="#3a414a" stroke-width="2" fill="#fff"/><path d="M-1938.5 640h138" stroke="#3a414a" fill="none"/><path d="M-1938.5 640.48h-.5v-.96h.5z" stroke="#3a414a" stroke-width=".05" fill="#3a414a"/><path d="M-1800.5 640h.5M-1848.95 682.1l48.57-41.77" stroke="#3a414a" fill="none"/><path d="M-1848.63 682.45l-.3.26-.8-.57.48-.4z" stroke="#3a414a" stroke-width=".05" fill="#3a414a"/><path d="M-1800.4 640.33l.4-.33" stroke="#3a414a" fill="none"/><path d="M-1721.92 699.54c0 10.8-8.75 19.54-19.54 19.54-10.8 0-19.54-8.75-19.54-19.54 0-10.8 8.75-19.54 19.54-19.54 10.8 0 19.54 8.75 19.54 19.54z" stroke="#3a414a" stroke-width="2" fill="#fff"/><path d="M-1756.06 684.5l-44.14-44.15" stroke="#3a414a" fill="none"/><path d="M-1755.34 684.54l-.74.6-.33-.33.66-.66z" stroke="#3a414a" stroke-width=".05" fill="#3a414a"/><path d="M-1800.2 640.36l-.35-.36M-1741.35 579.9l-59.76 59.75" stroke="#3a414a" fill="none"/><path d="M-1741 579.48v.72l-.03.04-.67-.67.8-.8z" stroke="#3a414a" stroke-width=".05" fill="#3a414a"/><path d="M-1801.1 639.64l-.36.36" stroke="#3a414a" fill="none"/><g><path d="M-1860.56 720.96v16.35" stroke="#3a414a" stroke-width="2" stroke-linecap="round" fill="none"/></g><path d="M-1870.3 737.85h19.06M-1867.36 740.23h13M-1863.43 743.27h4.78" stroke="#3a414a" stroke-width="2" stroke-linecap="round" fill="none"/><g><path d="M-2022 700.44v16.36" stroke="#3a414a" stroke-width="2" stroke-linecap="round" fill="none"/></g><path d="M-2031.73 717.33h19.05M-2028.8 719.72h13M-2024.88 722.76h4.8" stroke="#3a414a" stroke-width="2" stroke-linecap="round" fill="none"/><g><path d="M-1741.1 720.03v16.36" stroke="#3a414a" stroke-width="2" stroke-linecap="round" fill="none"/></g><path d="M-1750.82 736.93h19.05M-1747.9 739.3h13M-1743.97 742.35h4.8" stroke="#3a414a" stroke-width="2" stroke-linecap="round" fill="none"/><g><path d="M-1722.4 599.66v16.36" stroke="#3a414a" stroke-width="2" stroke-linecap="round" fill="none"/></g><path d="M-1732.13 616.55h19.06M-1729.2 618.94h13M-1725.27 621.98h4.78" stroke="#3a414a" stroke-width="2" stroke-linecap="round" fill="none"/><defs><path d="M653-1490V0H466v-1314h-10L96-1047v-204l324-239h233" id="f"/><path d="M96 279C273-86 346-350 346-607c0-292-95-659-250-974h175c150 246 258 650 258 974 0 297-91 602-258 886H96" id="g"/><g id="a"><use transform="matrix(0.010850694444444444,0,0,0.010850694444444444,0,0)" xlink:href="#f"/><use transform="matrix(0.010850694444444444,0,0,0.010850694444444444,9.038628472222221,0)" xlink:href="#g"/></g><path d="M154 0v-137l495-537c165-179 249-281 249-418 0-156-121-253-280-253-170 0-278 110-278 278H158c0-264 200-443 465-443 266 0 455 183 455 416 0 161-73 288-336 568L416-179v12h687V0H154" id="h"/><g id="c"><use transform="matrix(0.010850694444444444,0,0,0.010850694444444444,0,0)" xlink:href="#h"/><use transform="matrix(0.010850694444444444,0,0,0.010850694444444444,13.55251736111111,0)" xlink:href="#g"/></g><path d="M635 20c-292 0-500-160-510-396h192c11 142 145 229 315 229 187 0 323-105 323-260 0-161-125-274-346-274H488v-165h121c174 0 294-100 294-254 0-148-104-245-266-245-152 0-291 85-297 230H157c8-234 222-395 484-395 278 0 448 188 448 400 0 168-95 291-247 336v12c190 31 301 169 301 357 0 244-216 425-508 425" id="i"/><g id="d"><use transform="matrix(0.010850694444444444,0,0,0.010850694444444444,0,0)" xlink:href="#i"/><use transform="matrix(0.010850694444444444,0,0,0.010850694444444444,13.726128472222221,0)" xlink:href="#g"/></g></defs></g></svg>