<svg xmlns="http://www.w3.org/2000/svg" xmlns:xlink="http://www.w3.org/1999/xlink" xmlns:lucid="lucid" width="582" height="417.6"><g transform="translate(-380 -120)" lucid:page-tab-id="0_0"><path d="M500 186a6 6 0 0 1 6-6h48.68a6 6 0 0 1 6 6v343.03a6 6 0 0 1-6 6H506a6 6 0 0 1-6-6z" stroke="#3a414a" stroke-width="2" fill-opacity="0"/><path d="M561 221.9V186a6 6 0 0 1 6-6h94v41.9zM661 180h100v41.9H661zM761 180h100v41.9H761zM861 180h94a6 6 0 0 1 6 6v35.9H861z" stroke="#3a414a" stroke-width="2" fill="#fff"/><path d="M661 535.33h-94a6 6 0 0 1-6-6V221.9h100zM661 221.9h100v313.43H661zM761 221.9h100v313.43H761zM961 221.9v307.43a6 6 0 0 1-6 6h-94V221.9z" stroke="#3a414a" stroke-width="2" fill="none"/><use xlink:href="#a" transform="matrix(1,0,0,1,561,180.00000000000003) translate(35.98090277777778 29.08376736111111)"/><use xlink:href="#b" transform="matrix(1,0,0,1,660.9999999999999,180.00000000000003) translate(38.47113715277778 29.08376736111111)"/><use xlink:href="#c" transform="matrix(1,0,0,1,760.9999999999999,180.00000000000003) translate(40.96137152777778 29.08376736111111)"/><use xlink:href="#d" transform="matrix(1,0,0,1,860.9999999999999,180.00000000000003) translate(38.47113715277778 29.08376736111111)"/><path d="M500 302.38h461" stroke="#3a414a" stroke-width="2" fill="none"/><path d="M500.03 303.36H499v-1.95h1.03zM962 303.36h-1.03v-1.95H962z" stroke="#3a414a" stroke-width=".05" fill="#3a414a"/><path d="M500 384.65h461" stroke="#3a414a" stroke-width="2" fill="none"/><path d="M500.03 385.62H499v-1.95h1.03zM962 385.62h-1.03v-1.95H962z" stroke="#3a414a" stroke-width=".05" fill="#3a414a"/><path d="M500 463.95h461" stroke="#3a414a" stroke-width="2" fill="none"/><path d="M500.03 464.93H499v-1.95h1.03zM962 464.93h-1.03v-1.95H962z" stroke="#3a414a" stroke-width=".05" fill="#3a414a"/><path d="M640 126a6 6 0 0 1 6-6h228a6 6 0 0 1 6 6v48a6 6 0 0 1-6 6H646a6 6 0 0 1-6-6z" fill="none"/><use xlink:href="#e" transform="matrix(1,0,0,1,640,120) translate(88.46896701388889 38.083767361111114)"/><use xlink:href="#f" transform="matrix(1,0,0,1,640,120) translate(124.45855034722221 38.083767361111114)"/><path d="M380 346a6 6 0 0 1 6-6h128a6 6 0 0 1 6 6v48a6 6 0 0 1-6 6H386a6 6 0 0 1-6-6z" fill="none"/><use xlink:href="#g" transform="matrix(1,0,0,1,380,340) translate(37.14735243055556 38.083767361111114)"/><use xlink:href="#h" transform="matrix(1,0,0,1,380,340) translate(76.46375868055556 38.083767361111114)"/><path d="M480 254.3a6 6 0 0 1 6-6h88a6 6 0 0 1 6 6V514a6 6 0 0 1-6 6h-88a6 6 0 0 1-6-6z" fill="none"/><use xlink:href="#i" transform="matrix(1,0,0,1,480,248.2959856396589) translate(35.98090277777778 23.087673611111093)"/><use xlink:href="#j" transform="matrix(1,0,0,1,480,248.2959856396589) translate(50 49.97569444444443)"/><use xlink:href="#j" transform="matrix(1,0,0,1,480,248.2959856396589) translate(50 76.86371527777777)"/><use xlink:href="#k" transform="matrix(1,0,0,1,480,248.2959856396589) translate(38.47113715277778 103.75173611111109)"/><use xlink:href="#j" transform="matrix(1,0,0,1,480,248.2959856396589) translate(50 130.63975694444443)"/><use xlink:href="#j" transform="matrix(1,0,0,1,480,248.2959856396589) translate(50 157.52777777777777)"/><use xlink:href="#l" transform="matrix(1,0,0,1,480,248.2959856396589) translate(40.96137152777778 184.41579861111111)"/><use xlink:href="#j" transform="matrix(1,0,0,1,480,248.2959856396589) translate(50 211.30381944444446)"/><use xlink:href="#j" transform="matrix(1,0,0,1,480,248.2959856396589) translate(50 238.1918402777778)"/><use xlink:href="#m" transform="matrix(1,0,0,1,480,248.2959856396589) translate(38.47113715277778 265.07986111111114)"/><path d="M501 221.9h58M501.03 221.9H500" stroke="#3a414a" stroke-width="2" fill="none"/><path d="M560 222.88h-1.03v-1.95H560z" stroke="#3a414a" stroke-width=".05" fill="#3a414a"/><path d="M561.6 228.4a6 6 0 0 1 6-6H954a6 6 0 0 1 6 6V294a6 6 0 0 1-6 6H567.6a6 6 0 0 1-6-6z" fill="none"/><use xlink:href="#n" transform="matrix(1,0,0,1,561.6,222.39999999999998) translate(0 47.083767361111114)"/><use xlink:href="#o" transform="matrix(1,0,0,1,561.6,222.39999999999998) translate(37.5 47.083767361111114)"/><use xlink:href="#p" transform="matrix(1,0,0,1,561.6,222.39999999999998) translate(145.26909722222223 47.083767361111114)"/><use xlink:href="#q" transform="matrix(1,0,0,1,561.6,222.39999999999998) translate(248.134765625 47.083767361111114)"/><use xlink:href="#r" transform="matrix(1,0,0,1,561.6,222.39999999999998) translate(343.40386284722223 47.083767361111114)"/><path d="M560 306a6 6 0 0 1 6-6h386.4a6 6 0 0 1 6 6v65.6a6 6 0 0 1-6 6H566a6 6 0 0 1-6-6z" fill="none"/><g><use xlink:href="#n" transform="matrix(1,0,0,1,560,300) translate(0 47.083767361111114)"/><use xlink:href="#s" transform="matrix(1,0,0,1,560,300) translate(37.5 47.083767361111114)"/><use xlink:href="#q" transform="matrix(1,0,0,1,560,300) translate(150.33745659722223 47.083767361111114)"/><use xlink:href="#t" transform="matrix(1,0,0,1,560,300) translate(245.60655381944446 47.083767361111114)"/><use xlink:href="#u" transform="matrix(1,0,0,1,560,300) translate(344.69835069444446 47.083767361111114)"/></g><path d="M560 386a6 6 0 0 1 6-6h386.4a6 6 0 0 1 6 6v65.6a6 6 0 0 1-6 6H566a6 6 0 0 1-6-6z" fill="none"/><g><use xlink:href="#n" transform="matrix(1,0,0,1,560,380) translate(0 47.083767361111114)"/><use xlink:href="#o" transform="matrix(1,0,0,1,560,380) translate(37.5 47.083767361111114)"/><use xlink:href="#v" transform="matrix(1,0,0,1,560,380) translate(145.26909722222223 47.083767361111114)"/><use xlink:href="#q" transform="matrix(1,0,0,1,560,380) translate(257.74305555555554 47.083767361111114)"/><use xlink:href="#w" transform="matrix(1,0,0,1,560,380) translate(353.01215277777777 47.083767361111114)"/></g><path d="M560 466a6 6 0 0 1 6-6h386.4a6 6 0 0 1 6 6v65.6a6 6 0 0 1-6 6H566a6 6 0 0 1-6-6z" fill="none"/><g><use xlink:href="#n" transform="matrix(1,0,0,1,560,460) translate(0 47.083767361111114)"/><use xlink:href="#x" transform="matrix(1,0,0,1,560,460) translate(37.5 47.083767361111114)"/><use xlink:href="#y" transform="matrix(1,0,0,1,560,460) translate(149.912109375 47.083767361111114)"/><use xlink:href="#z" transform="matrix(1,0,0,1,560,460) translate(251.43120659722223 47.083767361111114)"/><use xlink:href="#u" transform="matrix(1,0,0,1,560,460) translate(354.37391493055554 47.083767361111114)"/></g><path d="M582 476a6 6 0 0 1 6-6h48a6 6 0 0 1 6 6v48a6 6 0 0 1-6 6h-48a6 6 0 0 1-6-6zM784 321a6 6 0 0 1 6-6h48a6 6 0 0 1 6 6v48a6 6 0 0 1-6 6h-48a6 6 0 0 1-6-6zM791 476a6 6 0 0 1 6-6h48a6 6 0 0 1 6 6v48a6 6 0 0 1-6 6h-48a6 6 0 0 1-6-6zM685 400a6 6 0 0 1 6-6h48a6 6 0 0 1 6 6v48a6 6 0 0 1-6 6h-48a6 6 0 0 1-6-6zM889 398a6 6 0 0 1 6-6h48a6 6 0 0 1 6 6v48a6 6 0 0 1-6 6h-48a6 6 0 0 1-6-6zM684 237a6 6 0 0 1 6-6h48a6 6 0 0 1 6 6v48a6 6 0 0 1-6 6h-48a6 6 0 0 1-6-6zM882 238a6 6 0 0 1 6-6h48a6 6 0 0 1 6 6v48a6 6 0 0 1-6 6h-48a6 6 0 0 1-6-6zM578 322a6 6 0 0 1 6-6h48a6 6 0 0 1 6 6v48a6 6 0 0 1-6 6h-48a6 6 0 0 1-6-6z" stroke="#e81313" stroke-width="3" fill-opacity="0"/><defs><path d="M646 20c-332 0-524-278-524-764 0-483 194-766 524-766s524 283 524 766c0 485-191 764-524 764zm0-166c218 0 341-220 341-598 0-380-123-601-341-601s-341 222-341 601c0 378 123 598 341 598" id="A"/><g id="a"><use transform="matrix(0.010850694444444444,0,0,0.010850694444444444,0,0)" xlink:href="#A"/><use transform="matrix(0.010850694444444444,0,0,0.010850694444444444,14.019097222222221,0)" xlink:href="#A"/></g><path d="M653-1490V0H466v-1314h-10L96-1047v-204l324-239h233" id="B"/><g id="b"><use transform="matrix(0.010850694444444444,0,0,0.010850694444444444,0,0)" xlink:href="#A"/><use transform="matrix(0.010850694444444444,0,0,0.010850694444444444,14.019097222222221,0)" xlink:href="#B"/></g><g id="c"><use transform="matrix(0.010850694444444444,0,0,0.010850694444444444,0,0)" xlink:href="#B"/><use transform="matrix(0.010850694444444444,0,0,0.010850694444444444,9.038628472222221,0)" xlink:href="#B"/></g><g id="d"><use transform="matrix(0.010850694444444444,0,0,0.010850694444444444,0,0)" xlink:href="#B"/><use transform="matrix(0.010850694444444444,0,0,0.010850694444444444,9.038628472222221,0)" xlink:href="#A"/></g><path d="M-44 0l756-1490h400L1387 0h-327l-57-346H473L305 0H-44zm634-585h373c-37-212-56-397-81-666-107 262-185 453-292 666" id="C"/><path d="M903-1490L656 0H352l203-1221h-10L163-980l46-279 368-231h326" id="D"/><path d="M-38 395l191-620h299L166 395H-38" id="E"/><g id="e"><use transform="matrix(0.010850694444444444,0,0,0.010850694444444444,0,0)" xlink:href="#C"/><use transform="matrix(0.00759548611111111,0,0,0.00759548611111111,16.590711805555554,3.7673611111111107)" xlink:href="#D"/><use transform="matrix(0.010850694444444444,0,0,0.010850694444444444,23.305121527777775,0)" xlink:href="#E"/></g><path d="M595 20C218 20 45-261 124-744c80-483 349-766 724-766 374 0 549 282 470 765-80 485-346 765-723 765zm41-253c185 0 317-186 371-512 53-325-16-513-201-513-181 0-316 183-371 514-53 326 17 511 201 511" id="F"/><g id="f"><use transform="matrix(0.010850694444444444,0,0,0.010850694444444444,0,0)" xlink:href="#C"/><use transform="matrix(0.00759548611111111,0,0,0.00759548611111111,16.590711805555554,3.7673611111111107)" xlink:href="#F"/></g><path d="M572 20C248 20 37-159 76-418h307c-13 112 82 185 223 185 146 0 264-82 284-203 21-124-71-210-243-210H509l38-227h138c143 0 258-80 278-200 19-115-54-193-183-193-132 0-250 74-272 189H214c46-255 298-433 600-433 305 0 487 185 448 418-27 168-161 285-332 317l-1 11c213 29 306 163 275 347-42 255-302 437-632 437" id="G"/><g id="g"><use transform="matrix(0.010850694444444444,0,0,0.010850694444444444,0,0)" xlink:href="#C"/><use transform="matrix(0.00759548611111111,0,0,0.00759548611111111,16.590711805555554,3.7673611111111107)" xlink:href="#G"/><use transform="matrix(0.010850694444444444,0,0,0.010850694444444444,26.631944444444443,0)" xlink:href="#E"/></g><path d="M31 0l37-220 609-495c159-133 252-221 271-342 22-133-58-209-189-209-139 0-255 88-279 233H189c48-290 275-477 585-477 316 0 511 183 468 441-28 168-124 307-472 585L507-262l-2 11h622L1086 0H31" id="H"/><g id="h"><use transform="matrix(0.010850694444444444,0,0,0.010850694444444444,0,0)" xlink:href="#C"/><use transform="matrix(0.00759548611111111,0,0,0.00759548611111111,16.590711805555554,3.7673611111111107)" xlink:href="#H"/></g><g id="i"><use transform="matrix(0.010850694444444444,0,0,0.010850694444444444,0,0)" xlink:href="#A"/><use transform="matrix(0.010850694444444444,0,0,0.010850694444444444,14.019097222222221,0)" xlink:href="#A"/></g><g id="k"><use transform="matrix(0.010850694444444444,0,0,0.010850694444444444,0,0)" xlink:href="#A"/><use transform="matrix(0.010850694444444444,0,0,0.010850694444444444,14.019097222222221,0)" xlink:href="#B"/></g><g id="l"><use transform="matrix(0.010850694444444444,0,0,0.010850694444444444,0,0)" xlink:href="#B"/><use transform="matrix(0.010850694444444444,0,0,0.010850694444444444,9.038628472222221,0)" xlink:href="#B"/></g><g id="m"><use transform="matrix(0.010850694444444444,0,0,0.010850694444444444,0,0)" xlink:href="#B"/><use transform="matrix(0.010850694444444444,0,0,0.010850694444444444,9.038628472222221,0)" xlink:href="#A"/></g><use transform="matrix(0.010850694444444444,0,0,0.010850694444444444,0,0)" xlink:href="#A" id="o"/><g id="p"><use transform="matrix(0.010850694444444444,0,0,0.010850694444444444,0,0)" xlink:href="#B"/><use transform="matrix(0.00759548611111111,0,0,0.00759548611111111,9.038628472222221,3.7673611111111107)" xlink:href="#B"/></g><use transform="matrix(0.010850694444444444,0,0,0.010850694444444444,0,0)" xlink:href="#A" id="q"/><path d="M154 0v-137l495-537c165-179 249-281 249-418 0-156-121-253-280-253-170 0-278 110-278 278H158c0-264 200-443 465-443 266 0 455 183 455 416 0 161-73 288-336 568L416-179v12h687V0H154" id="I"/><g id="r"><use transform="matrix(0.010850694444444444,0,0,0.010850694444444444,0,0)" xlink:href="#B"/><use transform="matrix(0.00759548611111111,0,0,0.00759548611111111,9.038628472222221,3.7673611111111107)" xlink:href="#I"/></g><path d="M120-303v-155l652-1032h231v1020h202v167h-202V0H821v-303H120zm702-167v-782h-12L323-482v12h499" id="J"/><g id="s"><use transform="matrix(0.010850694444444444,0,0,0.010850694444444444,0,0)" xlink:href="#B"/><use transform="matrix(0.00759548611111111,0,0,0.00759548611111111,9.038628472222221,3.7673611111111107)" xlink:href="#J"/></g><path d="M200 0l662-1311v-12H98v-167h963v177L400 0H200" id="K"/><g id="t"><use transform="matrix(0.010850694444444444,0,0,0.010850694444444444,0,0)" xlink:href="#B"/><use transform="matrix(0.00759548611111111,0,0,0.00759548611111111,9.038628472222221,3.7673611111111107)" xlink:href="#K"/></g><use transform="matrix(0.010850694444444444,0,0,0.010850694444444444,0,0)" xlink:href="#A" id="u"/><path d="M635 20c-292 0-500-160-510-396h192c11 142 145 229 315 229 187 0 323-105 323-260 0-161-125-274-346-274H488v-165h121c174 0 294-100 294-254 0-148-104-245-266-245-152 0-291 85-297 230H157c8-234 222-395 484-395 278 0 448 188 448 400 0 168-95 291-247 336v12c190 31 301 169 301 357 0 244-216 425-508 425" id="L"/><g id="v"><use transform="matrix(0.010850694444444444,0,0,0.010850694444444444,0,0)" xlink:href="#B"/><use transform="matrix(0.00759548611111111,0,0,0.00759548611111111,9.038628472222221,3.7673611111111107)" xlink:href="#B"/><use transform="matrix(0.00759548611111111,0,0,0.00759548611111111,15.365668402777775,3.7673611111111107)" xlink:href="#L"/></g><g id="w"><use transform="matrix(0.010850694444444444,0,0,0.010850694444444444,0,0)" xlink:href="#B"/><use transform="matrix(0.00759548611111111,0,0,0.00759548611111111,9.038628472222221,3.7673611111111107)" xlink:href="#B"/><use transform="matrix(0.00759548611111111,0,0,0.00759548611111111,15.365668402777775,3.7673611111111107)" xlink:href="#J"/></g><path d="M633 20c-303 0-511-173-511-416 0-188 124-348 291-378v-8c-145-37-237-174-237-332 0-227 192-396 457-396 261 0 456 169 456 396 0 158-94 295-235 332v8c162 30 291 190 291 378 0 243-212 416-512 416zm0-165c197 0 322-103 322-261 0-165-138-283-322-283-188 0-324 118-324 283 0 158 123 261 324 261zm0-703c157 0 272-101 272-252 0-149-110-246-272-246-165 0-273 97-273 246 0 151 112 252 273 252" id="M"/><g id="x"><use transform="matrix(0.010850694444444444,0,0,0.010850694444444444,0,0)" xlink:href="#B"/><use transform="matrix(0.00759548611111111,0,0,0.00759548611111111,9.038628472222221,3.7673611111111107)" xlink:href="#M"/></g><use transform="matrix(0.010850694444444444,0,0,0.010850694444444444,0,0)" xlink:href="#A" id="y"/><g id="z"><use transform="matrix(0.010850694444444444,0,0,0.010850694444444444,0,0)" xlink:href="#B"/><use transform="matrix(0.00759548611111111,0,0,0.00759548611111111,9.038628472222221,3.7673611111111107)" xlink:href="#B"/><use transform="matrix(0.00759548611111111,0,0,0.00759548611111111,15.365668402777775,3.7673611111111107)" xlink:href="#B"/></g></defs></g></svg>