<svg xmlns="http://www.w3.org/2000/svg" xmlns:xlink="http://www.w3.org/1999/xlink" xmlns:lucid="lucid" width="480" height="260"><g transform="translate(560 -280)" lucid:page-tab-id="0_0"><path d="M-515 332a6 6 0 0 1 6-6h28a6 6 0 0 1 6 6v28a6 6 0 0 1-6 6h-28a6 6 0 0 1-6-6z" stroke="#3a414a" stroke-width="2" fill="#fff"/><use xlink:href="#a" transform="matrix(1,0,0,1,-510,331) translate(10.48068576388889 23.40277777777778)"/><path d="M-487.43 375c0 4.5-3.65 8.14-8.14 8.14-4.5 0-8.14-3.65-8.14-8.14 0-4.5 3.63-8.14 8.13-8.14 4.5 0 8.14 3.64 8.14 8.14z" stroke="#3a414a" stroke-width="2" fill="#fff"/><path d="M-495.57 385.14v86.2a6 6 0 0 0 6 6H-282" stroke="#3a414a" stroke-width="2" fill="none"/><path d="M-495.66 384.14h.44l.62-.15v1.17h-1.95v-1.2zM-281 478.3h-1.03v-1.94h1.03zM-299.02 510.6l.06.83.18.77.3.73.42.67.5.6.6.5.68.42.73.3.76.2.84.05h12.5v1.95h-12.58l-1.05-.08-1.06-.25-1-.43-.94-.58-.83-.72-.7-.83-.6-.93-.4-1.02-.26-1.06-.08-1.05V310.75h1.96z" stroke="#3a414a" stroke-width=".05" fill="#3a414a"/><path stroke="#3a414a" stroke-width=".05" fill="#3a414a"/><path d="M-280.66 516.16l.42 1.02.27.44h-1.5v-1.95h.7z" fill="#3a414a"/><path stroke="#3a414a" stroke-width=".05" fill="#3a414a"/><use xlink:href="#b" transform="matrix(1,0,0,1,-310.83203125,289.2447916666667) translate(0 17.22222222222222)"/><path d="M-539.02 345H-541v-34.17h1.96z" stroke="#3a414a" stroke-width=".05" fill="#3a414a"/><path stroke="#3a414a" stroke-width=".05" fill="#3a414a"/><path d="M-539.02 346H-541v-1.03h1.96z" stroke="#3a414a" stroke-width=".05" fill="#3a414a"/><use xlink:href="#c" transform="matrix(1,0,0,1,-550.6527777777778,289.3231391954039) translate(0 17.22222222222222)"/><path d="M-459.02 344.75h-1.96v-34h1.96z" stroke="#3a414a" stroke-width=".05" fill="#3a414a"/><path stroke="#3a414a" stroke-width=".05" fill="#3a414a"/><path d="M-459.02 345.75h-1.96v-1.03h1.96z" stroke="#3a414a" stroke-width=".05" fill="#3a414a"/><use xlink:href="#d" transform="matrix(1,0,0,1,-470.55555555555554,289.2447916666667) translate(0 17.22222222222222)"/><path d="M-379.02 339.46l.06.83.18.75.3.73.42.67.5.6.6.5.68.43.73.3.76.18.84.06h17.62v1.96h-17.7l-1.05-.1-1.06-.24-1-.42-.94-.58-.83-.7-.7-.84-.6-.93-.4-1-.26-1.08-.08-1.06v-28.8h1.96z" stroke="#3a414a" stroke-width=".05" fill="#3a414a"/><path stroke="#3a414a" stroke-width=".05" fill="#3a414a"/><path d="M-355.34 346.48h-1.03v-1.96h1.03z" fill="#3a414a"/><path stroke="#3a414a" stroke-width=".05" fill="#3a414a"/><use xlink:href="#e" transform="matrix(1,0,0,1,-389.3190104166667,289.2447916666667) translate(0 17.22222222222222)"/><path d="M-435.84 345.75H-459" stroke="#3a414a" stroke-width="2" fill="none"/><path d="M-434.84 346.73h-1.03v-1.96h1.03z" stroke="#3a414a" stroke-width=".05" fill="#3a414a"/><path d="M-458.97 345.75H-460M-517 346h-22" stroke="#3a414a" stroke-width="2" fill="none"/><path d="M-516 346.98h-1.03v-1.96h1.03z" stroke="#3a414a" stroke-width=".05" fill="#3a414a"/><path d="M-538.97 346H-540" stroke="#3a414a" stroke-width="2" fill="none"/><path d="M-354.34 331.5a6 6 0 0 1 6-6h28a6 6 0 0 1 6 6v28a6 6 0 0 1-6 6h-28a6 6 0 0 1-6-6z" stroke="#3a414a" stroke-width="2" fill="#fff"/><use xlink:href="#a" transform="matrix(1,0,0,1,-349.33908712414285,330.5) translate(10.48068576388889 23.40277777777778)"/><path d="M-280 420h140v14.7h-140z" fill="#fff" fill-opacity="0"/><path d="M-272.02 429.35h-.95v-3.06h-6.34v-.97h7.28v4.02M-261.42 431h-4.12v-.22h.23c.8 0 1.03-.3 1.03-.88 0-.08 0-.2-.03-.3l-.2-1.64h-2.85l-1.2 2.03c-.1.1-.16.26-.16.37 0 .25.24.4.62.4h.4v.25h-3.14v-.24c.5-.05 1.04-.23 1.56-1.07l5.15-8.33h.25l1.13 8.4c.1.7.46 1 1.07 1h.23v.25m-3.17-3.6l-.35-3.27h-.08l-2 3.28h2.44M-260.33 427.98l-.17-.04c.3-.97.94-1.66 2-1.66.96 0 1.6.56 1.6 1.4 0 .5-.27 1-.95 1.4.45.2.63.33.85.56.3.3.45.78.45 1.3 0 .56-.18 1.06-.47 1.44-.5.66-1.46.96-2.37.96-.74 0-1.14-.22-1.14-.6 0-.2.2-.36.42-.36.17 0 .34.07.62.27.38.27.6.32.88.32.76 0 1.33-.7 1.33-1.57 0-.77-.35-1.27-1.05-1.48-.23-.07-.46-.1-1.04-.1v-.14c.4-.14.66-.25.86-.37.5-.28.83-.74.83-1.36 0-.7-.44-1.04-1.1-1.04-.64 0-1.12.32-1.53 1.08M-242.65 431.44h-.94l-3.1-6.25-3.1 6.24h-.92l3.95-8.18h.14M-231 429.35h-.96v-3.06h-6.34v-.97h7.3v4.02M-220.4 431h-4.12v-.22h.23c.82 0 1.06-.3 1.06-.88l-.03-.3-.2-1.64h-2.85l-1.22 2.03c-.1.1-.14.26-.14.37 0 .25.24.4.62.4h.42v.25h-3.16v-.24c.5-.05 1.05-.23 1.57-1.07l5.14-8.33h.27l1.13 8.4c.1.7.46 1 1.07 1h.23v.25m-3.16-3.6l-.37-3.27h-.08l-2.02 3.28h2.46M-215.1 431.8l-.54 1.4h-4v-.13l1.82-1.93c.96-1 1.33-1.8 1.33-2.66 0-.93-.54-1.44-1.4-1.44-.75 0-1.1.33-1.5 1.33l-.23-.05c.22-1.2.87-2.04 2.13-2.04 1.15 0 1.9.8 1.9 1.8 0 .8-.4 1.58-1.32 2.54l-1.7 1.8h2.4c.44 0 .65-.12 1-.7M-201.64 431.44h-.94l-3.1-6.25-3.12 6.24h-.9l3.94-8.18h.14M-190 429.35h-.94v-3.06h-6.34v-.97h7.3v4.02M-179.37 431h-4.13v-.22h.24c.8 0 1.04-.3 1.04-.88l-.03-.3-.2-1.64h-2.85l-1.22 2.03c-.1.1-.14.26-.14.37 0 .25.24.4.62.4h.42v.25h-3.15v-.24c.5-.05 1.04-.23 1.56-1.07l5.14-8.33h.26l1.13 8.4c.1.7.46 1 1.06 1h.23v.25m-3.17-3.6l-.36-3.27h-.1l-2 3.28h2.46M-174.88 433.2h-2.83v-.16c.75-.04.96-.26.96-.82v-4.6c0-.34-.1-.5-.3-.5-.1 0-.28.06-.46.13l-.28.1v-.14l1.83-.92.1.03v6.12c0 .44.2.62.97.62v.15M-160.62 431.44h-.94l-3.1-6.25-3.12 6.24h-.9l3.94-8.18h.14M-147.04 431h-4.12v-.22h.23c.8 0 1.04-.3 1.04-.88 0-.08 0-.2-.02-.3l-.2-1.64h-2.85l-1.22 2.03c-.1.1-.13.26-.13.37.02.25.25.4.62.4h.4v.25h-3.14v-.24c.5-.05 1.04-.23 1.56-1.07l5.15-8.33h.26l1.13 8.4c.1.7.46 1 1.07 1h.23v.25m-3.17-3.6l-.37-3.27h-.1l-2 3.28h2.46M-141.72 429.82c0 1.76-.64 3.52-2.3 3.52-1.75 0-2.3-1.9-2.3-3.58-.02-1.8.7-3.48 2.34-3.48 1.33 0 2.26 1.44 2.26 3.54m-.98.05c0-2.13-.45-3.32-1.34-3.32-.85 0-1.3 1.2-1.3 3.28 0 2.07.44 3.24 1.3 3.24.88 0 1.34-1.18 1.34-3.2"/><path d="M-198 490h57" stroke="#3a414a" stroke-width="2" fill="none"/><path d="M-197.97 490.98H-199v-1.96h1.03z" stroke="#3a414a" stroke-width=".05" fill="#3a414a"/><path d="M-141.03 490h1.03" stroke="#3a414a" stroke-width="2" fill="none"/><path d="M-160 466a6 6 0 0 1 6-6h68a6 6 0 0 1 6 6v48a6 6 0 0 1-6 6h-68a6 6 0 0 1-6-6z" fill="none"/><use xlink:href="#f" transform="matrix(1,0,0,1,-160,460) translate(35.2959619140625 36.089501953125)"/><path d="M-334 384.14V498a6 6 0 0 0 6 6h46" stroke="#3a414a" stroke-width="2" fill="none"/><path d="M-334.1 383.14h.45l.63-.14v1.17h-1.96v-1.2zM-281 504.98h-1.03v-1.96h1.03z" stroke="#3a414a" stroke-width=".05" fill="#3a414a"/><path d="M-280 466a6 6 0 0 1 6-6h68a6 6 0 0 1 6 6v48a6 6 0 0 1-6 6h-68a6 6 0 0 1-6-6z" stroke="#3a414a" stroke-width="2" fill="#fff"/><use xlink:href="#g" transform="matrix(1,0,0,1,-275,465) translate(27.84396701388889 34.02777777777778)"/><path d="M-413.5 384.4V484a6 6 0 0 0 6 6H-282" stroke="#3a414a" stroke-width="2" fill="none"/><path d="M-413.6 383.4h.45l.63-.15v1.17h-1.96v-1.2zM-281 490.98h-1.03v-1.96h1.03z" stroke="#3a414a" stroke-width=".05" fill="#3a414a"/><path d="M-325.86 374c0 4.5-3.64 8.14-8.14 8.14s-8.14-3.64-8.14-8.14 3.64-8.14 8.14-8.14 8.14 3.64 8.14 8.14zM-433.84 331.75a6 6 0 0 1 6-6h28a6 6 0 0 1 6 6v28a6 6 0 0 1-6 6h-28a6 6 0 0 1-6-6z" stroke="#3a414a" stroke-width="2" fill="#fff"/><use xlink:href="#a" transform="matrix(1,0,0,1,-428.83908712414285,330.75) translate(10.48068576388889 23.40277777777778)"/><path d="M-405.36 374.25c0 4.5-3.64 8.14-8.14 8.14s-8.14-3.65-8.14-8.15 3.64-8.14 8.14-8.14 8.14 3.65 8.14 8.15z" stroke="#3a414a" stroke-width="2" fill="#fff"/><path d="M-560 286a6 6 0 0 1 6-6h448a6 6 0 0 1 6 6v248a6 6 0 0 1-6 6h-448a6 6 0 0 1-6-6z" stroke="#000" stroke-opacity="0" stroke-width="2" fill-opacity="0"/><defs><path d="M653-1490V0H466v-1314h-10L96-1047v-204l324-239h233" id="h"/><use transform="matrix(0.010850694444444444,0,0,0.010850694444444444,0,0)" xlink:href="#h" id="a"/><path fill="#333" d="M49 0l509-1490h400L1480 0h-339l-115-346H497L386 0H49zm524-585h374c-75-213-124-402-192-666-66 268-110 453-182 666" id="i"/><path fill="#333" d="M690 20C314 20 94-261 94-744c0-482 221-766 596-766 376 0 597 284 597 766 0 483-219 764-597 764zm0-253c184 0 286-184 286-511 0-328-102-514-286-514-183 0-285 187-285 514s101 511 285 511" id="j"/><g id="b"><use transform="matrix(0.008680555555555556,0,0,0.008680555555555556,0,0)" xlink:href="#i"/><use transform="matrix(0.006076388888888889,0,0,0.006076388888888889,13.272569444444445,3.013888888888889)" xlink:href="#j"/></g><path fill="#333" d="M659 20C335 20 103-159 99-418h307c5 112 113 185 254 185 147 0 250-83 250-204 0-123-105-209-278-209H494v-227h138c145 0 246-81 246-200 0-115-87-193-216-193-130 0-237 73-240 189H128c4-255 233-433 536-433 306 0 510 185 510 418 0 167-114 285-279 317v11c217 29 333 162 333 347 0 254-237 437-569 437" id="k"/><g id="c"><use transform="matrix(0.008680555555555556,0,0,0.008680555555555556,0,0)" xlink:href="#i"/><use transform="matrix(0.006076388888888889,0,0,0.006076388888888889,13.272569444444445,3.013888888888889)" xlink:href="#k"/></g><path fill="#333" d="M124 0v-220l528-495c135-132 210-216 210-336 0-133-98-215-231-215-139 0-229 88-229 233H110c0-290 214-477 523-477 315 0 525 182 525 440 0 167-80 305-385 586L548-262v11h630V0H124" id="l"/><g id="d"><use transform="matrix(0.008680555555555556,0,0,0.008680555555555556,0,0)" xlink:href="#i"/><use transform="matrix(0.006076388888888889,0,0,0.006076388888888889,13.272569444444445,3.013888888888889)" xlink:href="#l"/></g><path fill="#333" d="M749-1490V0H444v-1221h-10L93-980v-279l329-231h327" id="m"/><g id="e"><use transform="matrix(0.008680555555555556,0,0,0.008680555555555556,0,0)" xlink:href="#i"/><use transform="matrix(0.006076388888888889,0,0,0.006076388888888889,13.272569444444445,3.013888888888889)" xlink:href="#m"/></g><path d="M140 405l46-156c120 36 205 19 263-150l32-93L54-1118h197c107 313 237 620 324 950 87-331 219-637 326-950h196L606 167c-68 178-176 259-334 259-64 0-113-12-132-21" id="n"/><use transform="matrix(0.008173828125000001,0,0,0.008173828125000001,0,0)" xlink:href="#n" id="f"/><path d="M580 20c-295 0-476-179-476-409 0-189 123-290 294-416-104-125-173-226-173-362 0-197 144-337 365-337 224 0 362 144 362 321 0 185-174 312-306 405l319 387c38-75 61-165 61-267h173c0 208-62 332-120 406L1287 0h-217L967-124C868-27 716 20 580 20zm279-273L507-675l-51 38c-123 91-167 162-167 254 0 147 113 246 278 246 107 0 210-41 292-116zM538-908l97-72c54-40 136-101 136-206 0-95-68-163-176-163-113 0-189 74-189 181 0 90 53 164 132 260" id="o"/><use transform="matrix(0.010850694444444444,0,0,0.010850694444444444,0,0)" xlink:href="#o" id="g"/></defs></g></svg>