<svg xmlns="http://www.w3.org/2000/svg" xmlns:xlink="http://www.w3.org/1999/xlink" xmlns:lucid="lucid" width="400" height="280"><g transform="translate(640 -120)" lucid:page-tab-id="0_0"><path d="M-438.55 182.66a2.88 2.88 0 0 1 1.03-3.93l63.74-37.28a2.88 2.88 0 0 1 3.93 1.03 2.88 2.88 0 0 1-1.03 3.93l-63.74 37.3a2.88 2.88 0 0 1-3.93-1.04zM-443.56 289.22c0-5.52 4.48-10 10-10 5.53 0 10 4.48 10 10v21.54c0 5.52-4.47 10-10 10-5.52 0-10-4.48-10-10zM-553.04 289.4c0-5.52 4.47-10 10-10 5.52 0 10 4.48 10 10v21.54c0 5.53-4.48 10-10 10-5.53 0-10-4.47-10-10z" stroke="#3a414a" stroke-width="2" fill="#fff"/><path d="M-560 186a6 6 0 0 1 6-6h128a6 6 0 0 1 6 6v108a6 6 0 0 1-6 6h-128a6 6 0 0 1-6-6zM-370.42 263.6a4.6 4.6 0 0 1 4.46-5.8h54.24a4.6 4.6 0 0 1 4.46 5.8l-13.32 49.94a7.8 7.8 0 0 1-7.55 5.8h-21.42a7.8 7.8 0 0 1-7.55-5.8z" stroke="#3a414a" stroke-width="2" fill="#fff"/><path d="M-554.75 278.9a6 6 0 0 1 6-6H-431a6 6 0 0 1 6 6v9.17a6 6 0 0 1-6 6h-117.75a6 6 0 0 1-6-6z" stroke="#3a414a" stroke-width="2" fill="#fff"/><path d="M-533.7 284.07c0 3.75-3.03 6.8-6.8 6.8-3.74 0-6.78-3.05-6.78-6.8s3.04-6.8 6.8-6.8c3.75 0 6.8 3.05 6.8 6.8zM-431.13 284c0 3.76-3.04 6.8-6.8 6.8-3.75 0-6.8-3.04-6.8-6.8 0-3.75 3.05-6.8 6.8-6.8 3.76 0 6.8 3.05 6.8 6.8zM-550.4 209.16a6 6 0 0 1 6-6h111.82a6 6 0 0 1 6 6v31.9a6 6 0 0 1-6 6H-544.4a6 6 0 0 1-6-6z" stroke="#3a414a" stroke-width="2" fill="#fff"/><path d="M-347.14 319.45a2.5 2.5 0 0 1 2.48-2.48h13.32a2.5 2.5 0 0 1 2.5 2.48 2.5 2.5 0 0 1-2.5 2.5h-13.32a2.5 2.5 0 0 1-2.48-2.5z" stroke="#3a414a" stroke-width="2" fill="#979ea8"/><path d="M-441.52 180.55a2.5 2.5 0 0 1 2.5-2.5h13.3a2.5 2.5 0 0 1 2.5 2.5 2.5 2.5 0 0 1-2.5 2.5H-439a2.5 2.5 0 0 1-2.5-2.5z" stroke="#3a414a" stroke-width="2" fill="#ced4db"/><path d="M-547.15 292.92h99M-547.14 292.92h-.5M-448.16 292.92h.5" stroke="#3a414a" fill="none"/><path d="M-373.43 289.36l-36.81-90.08" stroke="#979ea8" fill="none"/><path d="M-367.84 303.02l-9.7-11.45 8.6-3.5zM-415.83 185.62l9.7 11.45-8.6 3.5z" stroke="#979ea8" fill="#979ea8"/><path d="M-547.15 292.92h99M-547.14 292.92h-.5M-448.16 292.92h.5" stroke="#3a414a" fill="none"/><path d="M-302.6 361.67h-1.15l-14.5-20.88.78-.56z" stroke="#e81313" stroke-width=".05" fill="#e81313"/><path d="M-314.34 337.46l-7.62 5.3-4.33-14.37z" fill="#e81313"/><path d="M-313.53 337.48l-8.7 6.03-4.93-16.38zm-8.16 4.5l6.55-4.54-10.26-7.8z" stroke="#e81313" stroke-width=".05" fill="#e81313"/><path stroke="#e81313" stroke-width=".05" fill="#e81313"/><use xlink:href="#a" transform="matrix(1,0,0,1,-335.3229986569645,361.67006641338776) translate(0 12.916666666666668)"/><use xlink:href="#b" transform="matrix(1,0,0,1,-335.3229986569645,361.67006641338776) translate(0 29.049479166666668)"/><use xlink:href="#c" transform="matrix(1,0,0,1,-335.3229986569645,361.67006641338776) translate(3.1575520833333335 29.049479166666668)"/><path d="M-526.43 140.47H-560v-.94h33.57zm106.43 0h-51.7v-.94h51.7z" stroke="#e81313" stroke-width=".05" fill="#e81313"/><path d="M-559.02 155h-.96v-30h.96zM-420.02 155h-.96v-30h.96z" stroke="#e81313" stroke-width=".05" fill="#e81313"/><use xlink:href="#d" transform="matrix(1,0,0,1,-526.426183919077,131.93359375) translate(0 12.916666666666668)"/><use xlink:href="#e" transform="matrix(1,0,0,1,-526.426183919077,131.93359375) translate(12.207031250000002 12.916666666666668)"/><path d="M-599.52 320h-.96v-71h.96zm0-87.12h-.96V180h.96z" stroke="#e81313" stroke-width=".05" fill="#e81313"/><path d="M-585 180.97h-30v-.94h30zM-585 319.98h-30v-.96h30z" stroke="#e81313" stroke-width=".05" fill="#e81313"/><use xlink:href="#d" transform="matrix(1,0,0,1,-627.2233072916666,232.87720149758974) translate(0 12.916666666666668)"/><use xlink:href="#f" transform="matrix(1,0,0,1,-627.2233072916666,232.87720149758974) translate(12.207031250000002 12.916666666666668)"/><path d="M-371.84 186.12a3.1 3.1 0 0 1-3.1-3.1v-39.1a3.1 3.1 0 0 1 3.1-3.1 3.1 3.1 0 0 1 3.1 3.1V183a3.1 3.1 0 0 1-3.1 3.1z" stroke="#3a414a" stroke-width="2" fill="#fff"/><g><path d="M-377.32 183.55a4.37 4.37 0 0 1 6.36-2.77 4.37 4.37 0 0 1 1.02 6.87l-7.06 7.25a1.63 1.63 0 0 1-2.75-1.53z" stroke="#3a414a" stroke-width="2" fill="#fff"/></g><g><path d="M-372.87 188.02a4.37 4.37 0 0 1 .7-6.9 4.37 4.37 0 0 1 6.48 2.47l2.88 9.7a1.63 1.63 0 0 1-2.67 1.64z" stroke="#3a414a" stroke-width="2" fill="#fff"/></g><path d="M-640 126a6 6 0 0 1 6-6h388a6 6 0 0 1 6 6v268a6 6 0 0 1-6 6h-388a6 6 0 0 1-6-6z" stroke="#000" stroke-opacity="0" stroke-width="2" fill-opacity="0"/><defs><path fill="#e81313" d="M135 0v-1490h305c1 251 0 501-5 746 157-254 405-512 598-746h373L849-845 1422 0h-361L638-644 440-426V0H135" id="g"/><path fill="#e81313" d="M128 0v-1118h290v195h12c54-169 184-238 367-200v268c-27-8-86-15-130-15-138 0-239 95-239 234V0H128" id="h"/><path fill="#e81313" d="M440 22C227 22 68-92 68-313c0-250 202-322 422-343 195-21 271-24 271-105 0-95-63-149-175-149-116 0-187 57-211 129l-275-46c57-194 237-305 487-305 240 0 474 108 474 379V0H777v-155h-10C713-51 605 22 440 22zm85-211c140 0 238-93 238-211v-121c-37 26-156 42-222 51-111 16-185 59-185 149 0 87 70 132 169 132" id="i"/><path fill="#e81313" d="M750-1118v229H516V0H217v-889H20v-229h197v-86c0-238 156-356 363-356 94 0 178 20 215 31l-54 226c-25-7-61-15-100-15-123-3-131 84-125 200h234" id="j"/><path fill="#e81313" d="M683-1118v229H474v562c0 71 29 104 102 104 23 0 73-7 95-13l43 225C647 9 580 16 520 16 296 16 174-96 174-301v-588H20v-229h154v-266h300v266h209" id="k"/><path fill="#e81313" d="M128 0v-1118h278l12 217c60-163 185-234 319-234 143 0 236 81 288 251 63-172 205-251 359-251 205 0 357 138 357 381V0h-301v-697c0-126-76-187-177-187-114 0-184 79-184 196V0H789v-705c0-109-72-179-174-179-106 0-187 74-187 208V0H128" id="l"/><path fill="#e81313" d="M633 22C291 22 81-200 81-553c0-345 210-579 537-579 292 0 525 185 525 567v84H378c7 183 109 277 260 277 105 0 184-46 216-132l272 51C1071-99 893 22 633 22zM380-669h474c-15-146-94-237-233-237-143 0-229 99-241 237" id="m"/><path fill="#e81313" d="M572 22C302 22 117-98 78-306l279-48c29 105 101 156 224 156 114 0 185-48 185-115 0-118-228-130-337-155-215-49-322-150-322-317 0-215 187-347 470-347 265 0 424 116 466 298l-266 47c-24-76-87-130-196-130-98 0-174 46-174 113 0 56 38 95 144 117l201 40c216 44 320 143 320 302 0 220-207 367-500 367" id="n"/><path fill="#e81313" d="M768-1560L288 224H28l480-1784h260" id="o"/><g id="a"><use transform="matrix(0.006510416666666667,0,0,0.006510416666666667,0,0)" xlink:href="#g"/><use transform="matrix(0.006510416666666667,0,0,0.006510416666666667,9.58984375,0)" xlink:href="#h"/><use transform="matrix(0.006510416666666667,0,0,0.006510416666666667,14.837239583333334,0)" xlink:href="#i"/><use transform="matrix(0.006510416666666667,0,0,0.006510416666666667,22.578125,0)" xlink:href="#j"/><use transform="matrix(0.006510416666666667,0,0,0.006510416666666667,27.356770833333336,0)" xlink:href="#k"/><use transform="matrix(0.006510416666666667,0,0,0.006510416666666667,32.239583333333336,0)" xlink:href="#l"/><use transform="matrix(0.006510416666666667,0,0,0.006510416666666667,44.407552083333336,0)" xlink:href="#m"/><use transform="matrix(0.006510416666666667,0,0,0.006510416666666667,52.35026041666667,0)" xlink:href="#n"/><use transform="matrix(0.006510416666666667,0,0,0.006510416666666667,59.817708333333336,0)" xlink:href="#n"/><use transform="matrix(0.006510416666666667,0,0,0.006510416666666667,67.28515625,0)" xlink:href="#m"/><use transform="matrix(0.006510416666666667,0,0,0.006510416666666667,75.22786458333333,0)" xlink:href="#h"/><use transform="matrix(0.006510416666666667,0,0,0.006510416666666667,80.24739583333333,0)" xlink:href="#o"/></g><path fill="#e81313" d="M75-1237v-253h1217v253H837V0H531v-1237H75" id="p"/><path fill="#e81313" d="M428-647V0H128v-1118h283l4 231c63-156 176-245 348-245 232 0 384 159 384 421V0H847v-659c0-139-76-222-202-222-128 0-217 86-217 234" id="q"/><path fill="#e81313" d="M128 418v-1536h295v188h14c41-89 129-202 319-202 248 0 453 193 453 575 0 372-197 576-455 576-183 0-275-108-317-198h-9v597H128zm534-640c156 0 240-139 240-336 0-196-83-334-240-334-154 0-241 131-241 334 0 202 88 336 241 336" id="r"/><path fill="#e81313" d="M628 22C291 22 81-210 81-554c0-346 210-578 547-578 336 0 547 232 547 578 0 344-211 576-547 576zm0-236c160 0 242-146 242-341 0-197-82-341-242-341S387-753 387-555c0 195 81 341 241 341" id="s"/><path fill="#e81313" d="M537 19C279 19 81-185 81-557c0-382 206-575 454-575 190 0 278 113 318 202h10v-560h300V0H868v-179h-15C812-89 719 19 537 19zm92-241c153 0 240-134 240-336 0-203-86-334-240-334-158 0-240 138-240 334 0 197 84 336 240 336" id="t"/><g id="c"><use transform="matrix(0.006510416666666667,0,0,0.006510416666666667,0,0)" xlink:href="#p"/><use transform="matrix(0.006510416666666667,0,0,0.006510416666666667,8.14453125,0)" xlink:href="#h"/><use transform="matrix(0.006510416666666667,0,0,0.006510416666666667,13.39192708333333,0)" xlink:href="#i"/><use transform="matrix(0.006510416666666667,0,0,0.006510416666666667,21.1328125,0)" xlink:href="#q"/><use transform="matrix(0.006510416666666667,0,0,0.006510416666666667,29.43359375,0)" xlink:href="#n"/><use transform="matrix(0.006510416666666667,0,0,0.006510416666666667,36.901041666666664,0)" xlink:href="#r"/><use transform="matrix(0.006510416666666667,0,0,0.006510416666666667,45.30598958333333,0)" xlink:href="#s"/><use transform="matrix(0.006510416666666667,0,0,0.006510416666666667,53.48307291666667,0)" xlink:href="#q"/><use transform="matrix(0.006510416666666667,0,0,0.006510416666666667,61.78385416666667,0)" xlink:href="#t"/><use transform="matrix(0.006510416666666667,0,0,0.006510416666666667,70.18880208333333,0)" xlink:href="#m"/><use transform="matrix(0.006510416666666667,0,0,0.006510416666666667,78.13151041666666,0)" xlink:href="#h"/></g><path fill="#e81313" d="M157-405c-8-274 120-420 313-420 92 0 166 32 273 127 57 49 88 76 139 76 70 0 120-53 118-169h233c8 274-126 420-313 420-98 0-174-39-275-126-62-55-88-77-137-77-69 0-121 48-118 169H157" id="u"/><use transform="matrix(0.006510416666666667,0,0,0.006510416666666667,0,0)" xlink:href="#u" id="d"/><path fill="#e81313" d="M124 0v-220l528-495c135-132 210-216 210-336 0-133-98-215-231-215-139 0-229 88-229 233H110c0-290 214-477 523-477 315 0 525 182 525 440 0 167-80 305-385 586L548-262v11h630V0H124" id="v"/><path fill="#e81313" d="M119 395l88-620h300L323 395H119" id="w"/><path fill="#e81313" d="M664 20c-306 0-529-183-535-438h297c6 117 110 196 238 196 149 0 255-108 255-266 0-159-108-270-261-270-89 0-178 39-224 98l-274-48 72-782h901v252H485l-39 377h8c53-72 165-124 294-124 269 0 467 204 467 490 0 300-224 515-551 515" id="x"/><path fill="#e81313" d="M690 20C314 20 94-261 94-744c0-482 221-766 596-766 376 0 597 284 597 766 0 483-219 764-597 764zm0-253c184 0 286-184 286-511 0-328-102-514-286-514-183 0-285 187-285 514s101 511 285 511" id="y"/><g id="e"><use transform="matrix(0.006510416666666667,0,0,0.006510416666666667,0,0)" xlink:href="#v"/><use transform="matrix(0.006510416666666667,0,0,0.006510416666666667,8.3984375,0)" xlink:href="#w"/><use transform="matrix(0.006510416666666667,0,0,0.006510416666666667,12.8515625,0)" xlink:href="#x"/><use transform="matrix(0.006510416666666667,0,0,0.006510416666666667,21.373697916666668,0)" xlink:href="#y"/><use transform="matrix(0.006510416666666667,0,0,0.006510416666666667,30.364583333333336,0)" xlink:href="#l"/></g><path fill="#e81313" d="M659 20C335 20 103-159 99-418h307c5 112 113 185 254 185 147 0 250-83 250-204 0-123-105-209-278-209H494v-227h138c145 0 246-81 246-200 0-115-87-193-216-193-130 0-237 73-240 189H128c4-255 233-433 536-433 306 0 510 185 510 418 0 167-114 285-279 317v11c217 29 333 162 333 347 0 254-237 437-569 437" id="z"/><path fill="#e81313" d="M666 20C332 20 94-158 94-400c0-186 139-340 321-370v-9c-159-33-267-168-267-331 0-230 219-400 518-400 298 0 519 171 519 400 0 163-111 298-266 331v9c177 30 321 184 321 370 0 242-241 420-574 420zm0-226c153 0 255-89 255-218 0-131-108-226-255-226-148 0-255 94-255 226 0 128 101 218 255 218zm0-668c127 0 220-84 220-203s-90-200-220-200-220 80-220 200c0 119 92 203 220 203" id="A"/><g id="f"><use transform="matrix(0.006510416666666667,0,0,0.006510416666666667,0,0)" xlink:href="#z"/><use transform="matrix(0.006510416666666667,0,0,0.006510416666666667,8.326822916666668,0)" xlink:href="#w"/><use transform="matrix(0.006510416666666667,0,0,0.006510416666666667,12.40234375,0)" xlink:href="#A"/><use transform="matrix(0.006510416666666667,0,0,0.006510416666666667,21.080729166666668,0)" xlink:href="#y"/><use transform="matrix(0.006510416666666667,0,0,0.006510416666666667,30.071614583333336,0)" xlink:href="#l"/></g></defs></g></svg>