<svg xmlns="http://www.w3.org/2000/svg" xmlns:xlink="http://www.w3.org/1999/xlink" xmlns:lucid="lucid" width="582" height="417.6"><g transform="translate(-380 -120)" lucid:page-tab-id="0_0"><path d="M500 186a6 6 0 0 1 6-6h48.68a6 6 0 0 1 6 6v343.03a6 6 0 0 1-6 6H506a6 6 0 0 1-6-6z" stroke="#3a414a" stroke-width="2" fill-opacity="0"/><path d="M561 221.9V186a6 6 0 0 1 6-6h94v41.9zM661 180h100v41.9H661zM761 180h100v41.9H761zM861 180h94a6 6 0 0 1 6 6v35.9H861z" stroke="#3a414a" stroke-width="2" fill="#fff"/><path d="M661 535.33h-94a6 6 0 0 1-6-6V221.9h100zM661 221.9h100v313.43H661zM761 221.9h100v313.43H761zM961 221.9v307.43a6 6 0 0 1-6 6h-94V221.9z" stroke="#3a414a" stroke-width="2" fill="none"/><use xlink:href="#a" transform="matrix(1,0,0,1,561,180.00000000000003) translate(35.98090277777778 29.08376736111111)"/><use xlink:href="#b" transform="matrix(1,0,0,1,660.9999999999999,180.00000000000003) translate(38.47113715277778 29.08376736111111)"/><use xlink:href="#c" transform="matrix(1,0,0,1,760.9999999999999,180.00000000000003) translate(40.96137152777778 29.08376736111111)"/><use xlink:href="#d" transform="matrix(1,0,0,1,860.9999999999999,180.00000000000003) translate(38.47113715277778 29.08376736111111)"/><path d="M500 302.38h461" stroke="#3a414a" stroke-width="2" fill="none"/><path d="M500.03 303.36H499v-1.95h1.03zM962 303.36h-1.03v-1.95H962z" stroke="#3a414a" stroke-width=".05" fill="#3a414a"/><path d="M500 384.65h461" stroke="#3a414a" stroke-width="2" fill="none"/><path d="M500.03 385.62H499v-1.95h1.03zM962 385.62h-1.03v-1.95H962z" stroke="#3a414a" stroke-width=".05" fill="#3a414a"/><path d="M500 463.95h461" stroke="#3a414a" stroke-width="2" fill="none"/><path d="M500.03 464.93H499v-1.95h1.03zM962 464.93h-1.03v-1.95H962z" stroke="#3a414a" stroke-width=".05" fill="#3a414a"/><path d="M640 126a6 6 0 0 1 6-6h228a6 6 0 0 1 6 6v48a6 6 0 0 1-6 6H646a6 6 0 0 1-6-6z" fill="none"/><use xlink:href="#e" transform="matrix(1,0,0,1,640,120) translate(100.12152777777777 38.083767361111114)"/><use xlink:href="#f" transform="matrix(1,0,0,1,640,120) translate(125.87022569444443 38.083767361111114)"/><path d="M380 346a6 6 0 0 1 6-6h128a6 6 0 0 1 6 6v48a6 6 0 0 1-6 6H386a6 6 0 0 1-6-6z" fill="none"/><use xlink:href="#g" transform="matrix(1,0,0,1,380,340) translate(49.64409722222222 38.083767361111114)"/><use xlink:href="#h" transform="matrix(1,0,0,1,380,340) translate(76.34765625 38.083767361111114)"/><path d="M480 254.3a6 6 0 0 1 6-6h88a6 6 0 0 1 6 6V514a6 6 0 0 1-6 6h-88a6 6 0 0 1-6-6z" fill="none"/><use xlink:href="#i" transform="matrix(1,0,0,1,480,248.2959856396589) translate(35.98090277777778 23.087673611111093)"/><use xlink:href="#j" transform="matrix(1,0,0,1,480,248.2959856396589) translate(50 49.97569444444443)"/><use xlink:href="#j" transform="matrix(1,0,0,1,480,248.2959856396589) translate(50 76.86371527777777)"/><use xlink:href="#k" transform="matrix(1,0,0,1,480,248.2959856396589) translate(38.47113715277778 103.75173611111109)"/><use xlink:href="#j" transform="matrix(1,0,0,1,480,248.2959856396589) translate(50 130.63975694444443)"/><use xlink:href="#j" transform="matrix(1,0,0,1,480,248.2959856396589) translate(50 157.52777777777777)"/><use xlink:href="#l" transform="matrix(1,0,0,1,480,248.2959856396589) translate(40.96137152777778 184.41579861111111)"/><use xlink:href="#j" transform="matrix(1,0,0,1,480,248.2959856396589) translate(50 211.30381944444446)"/><use xlink:href="#j" transform="matrix(1,0,0,1,480,248.2959856396589) translate(50 238.1918402777778)"/><use xlink:href="#d" transform="matrix(1,0,0,1,480,248.2959856396589) translate(38.47113715277778 265.07986111111114)"/><path d="M501 221.9h58M501.03 221.9H500" stroke="#3a414a" stroke-width="2" fill="none"/><path d="M560 222.88h-1.03v-1.95H560z" stroke="#3a414a" stroke-width=".05" fill="#3a414a"/><path d="M407.2 134.8a6 6 0 0 1 6-6H514a6 6 0 0 1 6 6v48a6 6 0 0 1-6 6H413.2a6 6 0 0 1-6-6z" fill="none"/><use xlink:href="#m" transform="matrix(1,0,0,1,407.19999999999993,128.79999999999995) translate(44.78993055555556 38.083767361111114)"/><path d="M561.6 228.4a6 6 0 0 1 6-6H954a6 6 0 0 1 6 6V294a6 6 0 0 1-6 6H567.6a6 6 0 0 1-6-6z" fill="none"/><g><use xlink:href="#n" transform="matrix(1,0,0,1,561.6,222.39999999999998) translate(0 47.083767361111114)"/><use xlink:href="#o" transform="matrix(1,0,0,1,561.6,222.39999999999998) translate(37.5 47.083767361111114)"/><use xlink:href="#p" transform="matrix(1,0,0,1,561.6,222.39999999999998) translate(145.26909722222223 47.083767361111114)"/><use xlink:href="#q" transform="matrix(1,0,0,1,561.6,222.39999999999998) translate(246.78819444444446 47.083767361111114)"/><use xlink:href="#r" transform="matrix(1,0,0,1,561.6,222.39999999999998) translate(342.0572916666667 47.083767361111114)"/></g><path d="M560 306a6 6 0 0 1 6-6h386.4a6 6 0 0 1 6 6v65.6a6 6 0 0 1-6 6H566a6 6 0 0 1-6-6z" fill="none"/><g><use xlink:href="#n" transform="matrix(1,0,0,1,560,300) translate(0 47.083767361111114)"/><use xlink:href="#o" transform="matrix(1,0,0,1,560,300) translate(37.5 47.083767361111114)"/><use xlink:href="#p" transform="matrix(1,0,0,1,560,300) translate(145.26909722222223 47.083767361111114)"/><use xlink:href="#s" transform="matrix(1,0,0,1,560,300) translate(246.78819444444446 47.083767361111114)"/><use xlink:href="#r" transform="matrix(1,0,0,1,560,300) translate(339.62999131944446 47.083767361111114)"/></g><path d="M560 386a6 6 0 0 1 6-6h386.4a6 6 0 0 1 6 6v65.6a6 6 0 0 1-6 6H566a6 6 0 0 1-6-6z" fill="none"/><g><use xlink:href="#n" transform="matrix(1,0,0,1,560,380) translate(0 47.083767361111114)"/><use xlink:href="#o" transform="matrix(1,0,0,1,560,380) translate(37.5 47.083767361111114)"/><use xlink:href="#p" transform="matrix(1,0,0,1,560,380) translate(145.26909722222223 47.083767361111114)"/><use xlink:href="#q" transform="matrix(1,0,0,1,560,380) translate(246.78819444444446 47.083767361111114)"/><use xlink:href="#t" transform="matrix(1,0,0,1,560,380) translate(342.0572916666667 47.083767361111114)"/></g><path d="M560 466a6 6 0 0 1 6-6h386.4a6 6 0 0 1 6 6v65.6a6 6 0 0 1-6 6H566a6 6 0 0 1-6-6z" fill="none"/><g><use xlink:href="#n" transform="matrix(1,0,0,1,560,460) translate(0 47.083767361111114)"/><use xlink:href="#o" transform="matrix(1,0,0,1,560,460) translate(37.5 47.083767361111114)"/><use xlink:href="#p" transform="matrix(1,0,0,1,560,460) translate(145.26909722222223 47.083767361111114)"/><use xlink:href="#q" transform="matrix(1,0,0,1,560,460) translate(246.78819444444446 47.083767361111114)"/><use xlink:href="#r" transform="matrix(1,0,0,1,560,460) translate(342.0572916666667 47.083767361111114)"/></g><path d="M784 315.6a6 6 0 0 1 6-6h48a6 6 0 0 1 6 6v48a6 6 0 0 1-6 6h-48a6 6 0 0 1-6-6zM878 398.4a6 6 0 0 1 6-6h48a6 6 0 0 1 6 6v48a6 6 0 0 1-6 6h-48a6 6 0 0 1-6-6z" stroke="#e81313" stroke-width="3" fill-opacity="0"/><defs><path d="M646 20c-332 0-524-278-524-764 0-483 194-766 524-766s524 283 524 766c0 485-191 764-524 764zm0-166c218 0 341-220 341-598 0-380-123-601-341-601s-341 222-341 601c0 378 123 598 341 598" id="u"/><g id="a"><use transform="matrix(0.010850694444444444,0,0,0.010850694444444444,0,0)" xlink:href="#u"/><use transform="matrix(0.010850694444444444,0,0,0.010850694444444444,14.019097222222221,0)" xlink:href="#u"/></g><path d="M653-1490V0H466v-1314h-10L96-1047v-204l324-239h233" id="v"/><g id="b"><use transform="matrix(0.010850694444444444,0,0,0.010850694444444444,0,0)" xlink:href="#u"/><use transform="matrix(0.010850694444444444,0,0,0.010850694444444444,14.019097222222221,0)" xlink:href="#v"/></g><g id="c"><use transform="matrix(0.010850694444444444,0,0,0.010850694444444444,0,0)" xlink:href="#v"/><use transform="matrix(0.010850694444444444,0,0,0.010850694444444444,9.038628472222221,0)" xlink:href="#v"/></g><g id="d"><use transform="matrix(0.010850694444444444,0,0,0.010850694444444444,0,0)" xlink:href="#v"/><use transform="matrix(0.010850694444444444,0,0,0.010850694444444444,9.038628472222221,0)" xlink:href="#u"/></g><path d="M548 22C250 22 73-164 73-448c0-345 220-684 633-684 269 0 447 145 451 374l-285 48c-6-116-55-186-169-186-226 0-328 261-328 457 0 135 55 225 182 225 119 0 222-77 266-198l271 56C1013-122 815 22 548 22" id="w"/><path d="M-38 395l191-620h299L166 395H-38" id="x"/><g id="e"><use transform="matrix(0.010850694444444444,0,0,0.010850694444444444,0,0)" xlink:href="#w"/><use transform="matrix(0.010850694444444444,0,0,0.010850694444444444,13.06423611111111,0)" xlink:href="#x"/></g><path d="M457 19C230 19 71-139 71-426c0-345 196-706 543-706 198 0 272 121 298 211h11l94-569h300L1070 0H775l32-179h-16C734-78 632 19 457 19zm100-241c213 0 324-249 324-452 0-136-60-218-181-218-213 0-322 248-322 449 0 134 58 221 179 221" id="y"/><use transform="matrix(0.010850694444444444,0,0,0.010850694444444444,0,0)" xlink:href="#y" id="f"/><path d="M441 19C184 19 19-186 81-558c63-382 303-574 550-574 189 0 259 113 285 202h10l31-188h299L1071 0H776l29-179h-14C733-87 623 19 441 19zm133-241c154 0 263-135 296-336 34-204-31-334-185-334-159 0-264 139-296 334-33 197 29 336 185 336" id="z"/><g id="g"><use transform="matrix(0.010850694444444444,0,0,0.010850694444444444,0,0)" xlink:href="#z"/><use transform="matrix(0.010850694444444444,0,0,0.010850694444444444,14.019097222222221,0)" xlink:href="#x"/></g><path d="M675 19C485 19 405-93 377-185h-16L330 0H35l247-1490h300l-95 560h12c57-95 153-202 335-202 221 0 385 151 385 442 0 320-177 709-544 709zm-85-241c223 0 323-269 323-451 0-133-57-219-180-219-214 0-324 244-324 448 0 137 61 222 181 222" id="A"/><use transform="matrix(0.010850694444444444,0,0,0.010850694444444444,0,0)" xlink:href="#A" id="h"/><g id="i"><use transform="matrix(0.010850694444444444,0,0,0.010850694444444444,0,0)" xlink:href="#u"/><use transform="matrix(0.010850694444444444,0,0,0.010850694444444444,14.019097222222221,0)" xlink:href="#u"/></g><g id="k"><use transform="matrix(0.010850694444444444,0,0,0.010850694444444444,0,0)" xlink:href="#u"/><use transform="matrix(0.010850694444444444,0,0,0.010850694444444444,14.019097222222221,0)" xlink:href="#v"/></g><g id="l"><use transform="matrix(0.010850694444444444,0,0,0.010850694444444444,0,0)" xlink:href="#v"/><use transform="matrix(0.010850694444444444,0,0,0.010850694444444444,9.038628472222221,0)" xlink:href="#v"/></g><path d="M-37 396L69 170c124 42 243 19 271-107l19-60-235-1121h310c39 287 107 555 115 872 123-306 281-582 422-872h323L612 132c-98 180-235 294-460 294-77 0-149-13-189-30" id="B"/><path d="M572 20C248 20 37-159 76-418h307c-13 112 82 185 223 185 146 0 264-82 284-203 21-124-71-210-243-210H509l38-227h138c143 0 258-80 278-200 19-115-54-193-183-193-132 0-250 74-272 189H214c46-255 298-433 600-433 305 0 487 185 448 418-27 168-161 285-332 317l-1 11c213 29 306 163 275 347-42 255-302 437-632 437" id="C"/><g id="m"><use transform="matrix(0.010850694444444444,0,0,0.010850694444444444,0,0)" xlink:href="#B"/><use transform="matrix(0.00759548611111111,0,0,0.00759548611111111,13.37890625,3.7673611111111107)" xlink:href="#C"/></g><use transform="matrix(0.010850694444444444,0,0,0.010850694444444444,0,0)" xlink:href="#u" id="o"/><use transform="matrix(0.010850694444444444,0,0,0.010850694444444444,0,0)" xlink:href="#u" id="p"/><use transform="matrix(0.010850694444444444,0,0,0.010850694444444444,0,0)" xlink:href="#u" id="q"/><use transform="matrix(0.010850694444444444,0,0,0.010850694444444444,0,0)" xlink:href="#u" id="r"/><path d="M200 0l662-1311v-12H98v-167h963v177L400 0H200" id="D"/><g id="s"><use transform="matrix(0.010850694444444444,0,0,0.010850694444444444,0,0)" xlink:href="#v"/><use transform="matrix(0.00759548611111111,0,0,0.00759548611111111,9.038628472222221,3.7673611111111107)" xlink:href="#D"/></g><path d="M120-303v-155l652-1032h231v1020h202v167h-202V0H821v-303H120zm702-167v-782h-12L323-482v12h499" id="E"/><g id="t"><use transform="matrix(0.010850694444444444,0,0,0.010850694444444444,0,0)" xlink:href="#v"/><use transform="matrix(0.00759548611111111,0,0,0.00759548611111111,9.038628472222221,3.7673611111111107)" xlink:href="#v"/><use transform="matrix(0.00759548611111111,0,0,0.00759548611111111,15.365668402777775,3.7673611111111107)" xlink:href="#E"/></g></defs></g></svg>