<svg xmlns="http://www.w3.org/2000/svg" xmlns:xlink="http://www.w3.org/1999/xlink" xmlns:lucid="lucid" width="582" height="417.6"><g transform="translate(-380 -580)" lucid:page-tab-id="0_0"><path d="M500 646a6 6 0 0 1 6-6h48.68a6 6 0 0 1 6 6v343.03a6 6 0 0 1-6 6H506a6 6 0 0 1-6-6z" stroke="#3a414a" stroke-width="2" fill-opacity="0"/><path d="M561 681.9V646a6 6 0 0 1 6-6h94v41.9zM661 640h100v41.9H661zM761 640h100v41.9H761zM861 640h94a6 6 0 0 1 6 6v35.9H861z" stroke="#3a414a" stroke-width="2" fill="#fff"/><path d="M661 995.33h-94a6 6 0 0 1-6-6V681.9h100zM661 681.9h100v313.43H661zM761 681.9h100v313.43H761zM961 681.9v307.43a6 6 0 0 1-6 6h-94V681.9z" stroke="#3a414a" stroke-width="2" fill="none"/><use xlink:href="#a" transform="matrix(1,0,0,1,561,640.0000000000001) translate(35.98090277777778 29.08376736111111)"/><use xlink:href="#b" transform="matrix(1,0,0,1,660.9999999999999,640.0000000000001) translate(38.47113715277778 29.08376736111111)"/><use xlink:href="#c" transform="matrix(1,0,0,1,760.9999999999999,640.0000000000001) translate(40.96137152777778 29.08376736111111)"/><use xlink:href="#d" transform="matrix(1,0,0,1,860.9999999999999,640.0000000000001) translate(38.47113715277778 29.08376736111111)"/><path d="M500 762.38h461" stroke="#3a414a" stroke-width="2" fill="none"/><path d="M500.03 763.36H499v-1.95h1.03zM962 763.36h-1.03v-1.95H962z" stroke="#3a414a" stroke-width=".05" fill="#3a414a"/><path d="M500 844.65h461" stroke="#3a414a" stroke-width="2" fill="none"/><path d="M500.03 845.62H499v-1.95h1.03zM962 845.62h-1.03v-1.95H962z" stroke="#3a414a" stroke-width=".05" fill="#3a414a"/><path d="M500 923.95h461" stroke="#3a414a" stroke-width="2" fill="none"/><path d="M500.03 924.92H499v-1.94h1.03zM962 924.92h-1.03v-1.94H962z" stroke="#3a414a" stroke-width=".05" fill="#3a414a"/><path d="M640 586a6 6 0 0 1 6-6h228a6 6 0 0 1 6 6v48a6 6 0 0 1-6 6H646a6 6 0 0 1-6-6z" fill="none"/><use xlink:href="#e" transform="matrix(1,0,0,1,640,580) translate(100.12152777777777 38.083767361111114)"/><use xlink:href="#f" transform="matrix(1,0,0,1,640,580) translate(125.87022569444443 38.083767361111114)"/><path d="M380 806a6 6 0 0 1 6-6h128a6 6 0 0 1 6 6v48a6 6 0 0 1-6 6H386a6 6 0 0 1-6-6z" fill="none"/><use xlink:href="#g" transform="matrix(1,0,0,1,380,800) translate(49.64409722222222 38.083767361111114)"/><use xlink:href="#h" transform="matrix(1,0,0,1,380,800) translate(76.34765625 38.083767361111114)"/><path d="M480 714.3a6 6 0 0 1 6-6h88a6 6 0 0 1 6 6V974a6 6 0 0 1-6 6h-88a6 6 0 0 1-6-6z" fill="none"/><use xlink:href="#i" transform="matrix(1,0,0,1,480,708.2959856396589) translate(35.98090277777778 23.087673611111093)"/><use xlink:href="#j" transform="matrix(1,0,0,1,480,708.2959856396589) translate(50 49.97569444444443)"/><use xlink:href="#j" transform="matrix(1,0,0,1,480,708.2959856396589) translate(50 76.86371527777777)"/><use xlink:href="#k" transform="matrix(1,0,0,1,480,708.2959856396589) translate(38.47113715277778 103.75173611111109)"/><use xlink:href="#j" transform="matrix(1,0,0,1,480,708.2959856396589) translate(50 130.63975694444443)"/><use xlink:href="#j" transform="matrix(1,0,0,1,480,708.2959856396589) translate(50 157.52777777777777)"/><use xlink:href="#l" transform="matrix(1,0,0,1,480,708.2959856396589) translate(40.96137152777778 184.41579861111111)"/><use xlink:href="#j" transform="matrix(1,0,0,1,480,708.2959856396589) translate(50 211.30381944444446)"/><use xlink:href="#j" transform="matrix(1,0,0,1,480,708.2959856396589) translate(50 238.1918402777778)"/><use xlink:href="#d" transform="matrix(1,0,0,1,480,708.2959856396589) translate(38.47113715277778 265.07986111111114)"/><path d="M501 681.9h58M501.03 681.9H500" stroke="#3a414a" stroke-width="2" fill="none"/><path d="M560 682.88h-1.03v-1.95H560z" stroke="#3a414a" stroke-width=".05" fill="#3a414a"/><path d="M407.2 594.8a6 6 0 0 1 6-6H514a6 6 0 0 1 6 6v48a6 6 0 0 1-6 6H413.2a6 6 0 0 1-6-6z" fill="none"/><use xlink:href="#m" transform="matrix(1,0,0,1,407.19999999999993,588.8) translate(44.911458333333336 38.083767361111114)"/><path d="M561.6 688.4a6 6 0 0 1 6-6H954a6 6 0 0 1 6 6V754a6 6 0 0 1-6 6H567.6a6 6 0 0 1-6-6z" fill="none"/><g><use xlink:href="#n" transform="matrix(1,0,0,1,561.6000000000001,682.3999999999999) translate(0 47.083767361111114)"/><use xlink:href="#o" transform="matrix(1,0,0,1,561.6000000000001,682.3999999999999) translate(37.5 47.083767361111114)"/><use xlink:href="#p" transform="matrix(1,0,0,1,561.6000000000001,682.3999999999999) translate(145.26909722222223 47.083767361111114)"/><use xlink:href="#q" transform="matrix(1,0,0,1,561.6000000000001,682.3999999999999) translate(246.78819444444446 47.083767361111114)"/><use xlink:href="#r" transform="matrix(1,0,0,1,561.6000000000001,682.3999999999999) translate(342.0572916666667 47.083767361111114)"/></g><path d="M560 766a6 6 0 0 1 6-6h386.4a6 6 0 0 1 6 6v65.6a6 6 0 0 1-6 6H566a6 6 0 0 1-6-6z" fill="none"/><g><use xlink:href="#n" transform="matrix(1,0,0,1,560,760) translate(0 47.083767361111114)"/><use xlink:href="#o" transform="matrix(1,0,0,1,560,760) translate(37.5 47.083767361111114)"/><use xlink:href="#s" transform="matrix(1,0,0,1,560,760) translate(145.26909722222223 47.083767361111114)"/><use xlink:href="#q" transform="matrix(1,0,0,1,560,760) translate(251.26410590277777 47.083767361111114)"/><use xlink:href="#r" transform="matrix(1,0,0,1,560,760) translate(346.533203125 47.083767361111114)"/></g><path d="M560 846a6 6 0 0 1 6-6h386.4a6 6 0 0 1 6 6v65.6a6 6 0 0 1-6 6H566a6 6 0 0 1-6-6z" fill="none"/><g><use xlink:href="#n" transform="matrix(1,0,0,1,560,840) translate(0 47.083767361111114)"/><use xlink:href="#o" transform="matrix(1,0,0,1,560,840) translate(37.5 47.083767361111114)"/><use xlink:href="#p" transform="matrix(1,0,0,1,560,840) translate(145.26909722222223 47.083767361111114)"/><use xlink:href="#q" transform="matrix(1,0,0,1,560,840) translate(246.78819444444446 47.083767361111114)"/><use xlink:href="#r" transform="matrix(1,0,0,1,560,840) translate(342.0572916666667 47.083767361111114)"/></g><path d="M560 926a6 6 0 0 1 6-6h386.4a6 6 0 0 1 6 6v65.6a6 6 0 0 1-6 6H566a6 6 0 0 1-6-6z" fill="none"/><g><use xlink:href="#n" transform="matrix(1,0,0,1,560,920) translate(0 47.083767361111114)"/><use xlink:href="#o" transform="matrix(1,0,0,1,560,920) translate(37.5 47.083767361111114)"/><use xlink:href="#t" transform="matrix(1,0,0,1,560,920) translate(145.26909722222223 47.083767361111114)"/><use xlink:href="#q" transform="matrix(1,0,0,1,560,920) translate(251.45399305555554 47.083767361111114)"/><use xlink:href="#u" transform="matrix(1,0,0,1,560,920) translate(346.72309027777777 47.083767361111114)"/></g><path d="M878.8 936.8a6 6 0 0 1 6-6h48a6 6 0 0 1 6 6v48a6 6 0 0 1-6 6h-48a6 6 0 0 1-6-6zM682 938.4a6 6 0 0 1 6-6h48a6 6 0 0 1 6 6v48a6 6 0 0 1-6 6h-48a6 6 0 0 1-6-6zM680.4 779.2a6 6 0 0 1 6-6h48a6 6 0 0 1 6 6v48a6 6 0 0 1-6 6h-48a6 6 0 0 1-6-6z" stroke="#e81313" stroke-width="3" fill-opacity="0"/><defs><path d="M646 20c-332 0-524-278-524-764 0-483 194-766 524-766s524 283 524 766c0 485-191 764-524 764zm0-166c218 0 341-220 341-598 0-380-123-601-341-601s-341 222-341 601c0 378 123 598 341 598" id="v"/><g id="a"><use transform="matrix(0.010850694444444444,0,0,0.010850694444444444,0,0)" xlink:href="#v"/><use transform="matrix(0.010850694444444444,0,0,0.010850694444444444,14.019097222222221,0)" xlink:href="#v"/></g><path d="M653-1490V0H466v-1314h-10L96-1047v-204l324-239h233" id="w"/><g id="b"><use transform="matrix(0.010850694444444444,0,0,0.010850694444444444,0,0)" xlink:href="#v"/><use transform="matrix(0.010850694444444444,0,0,0.010850694444444444,14.019097222222221,0)" xlink:href="#w"/></g><g id="c"><use transform="matrix(0.010850694444444444,0,0,0.010850694444444444,0,0)" xlink:href="#w"/><use transform="matrix(0.010850694444444444,0,0,0.010850694444444444,9.038628472222221,0)" xlink:href="#w"/></g><g id="d"><use transform="matrix(0.010850694444444444,0,0,0.010850694444444444,0,0)" xlink:href="#w"/><use transform="matrix(0.010850694444444444,0,0,0.010850694444444444,9.038628472222221,0)" xlink:href="#v"/></g><path d="M548 22C250 22 73-164 73-448c0-345 220-684 633-684 269 0 447 145 451 374l-285 48c-6-116-55-186-169-186-226 0-328 261-328 457 0 135 55 225 182 225 119 0 222-77 266-198l271 56C1013-122 815 22 548 22" id="x"/><path d="M-38 395l191-620h299L166 395H-38" id="y"/><g id="e"><use transform="matrix(0.010850694444444444,0,0,0.010850694444444444,0,0)" xlink:href="#x"/><use transform="matrix(0.010850694444444444,0,0,0.010850694444444444,13.06423611111111,0)" xlink:href="#y"/></g><path d="M457 19C230 19 71-139 71-426c0-345 196-706 543-706 198 0 272 121 298 211h11l94-569h300L1070 0H775l32-179h-16C734-78 632 19 457 19zm100-241c213 0 324-249 324-452 0-136-60-218-181-218-213 0-322 248-322 449 0 134 58 221 179 221" id="z"/><use transform="matrix(0.010850694444444444,0,0,0.010850694444444444,0,0)" xlink:href="#z" id="f"/><path d="M441 19C184 19 19-186 81-558c63-382 303-574 550-574 189 0 259 113 285 202h10l31-188h299L1071 0H776l29-179h-14C733-87 623 19 441 19zm133-241c154 0 263-135 296-336 34-204-31-334-185-334-159 0-264 139-296 334-33 197 29 336 185 336" id="A"/><g id="g"><use transform="matrix(0.010850694444444444,0,0,0.010850694444444444,0,0)" xlink:href="#A"/><use transform="matrix(0.010850694444444444,0,0,0.010850694444444444,14.019097222222221,0)" xlink:href="#y"/></g><path d="M675 19C485 19 405-93 377-185h-16L330 0H35l247-1490h300l-95 560h12c57-95 153-202 335-202 221 0 385 151 385 442 0 320-177 709-544 709zm-85-241c223 0 323-269 323-451 0-133-57-219-180-219-214 0-324 244-324 448 0 137 61 222 181 222" id="B"/><use transform="matrix(0.010850694444444444,0,0,0.010850694444444444,0,0)" xlink:href="#B" id="h"/><g id="i"><use transform="matrix(0.010850694444444444,0,0,0.010850694444444444,0,0)" xlink:href="#v"/><use transform="matrix(0.010850694444444444,0,0,0.010850694444444444,14.019097222222221,0)" xlink:href="#v"/></g><g id="k"><use transform="matrix(0.010850694444444444,0,0,0.010850694444444444,0,0)" xlink:href="#v"/><use transform="matrix(0.010850694444444444,0,0,0.010850694444444444,14.019097222222221,0)" xlink:href="#w"/></g><g id="l"><use transform="matrix(0.010850694444444444,0,0,0.010850694444444444,0,0)" xlink:href="#w"/><use transform="matrix(0.010850694444444444,0,0,0.010850694444444444,9.038628472222221,0)" xlink:href="#w"/></g><path d="M-37 396L69 170c124 42 243 19 271-107l19-60-235-1121h310c39 287 107 555 115 872 123-306 281-582 422-872h323L612 132c-98 180-235 294-460 294-77 0-149-13-189-30" id="C"/><path d="M31 0l37-220 609-495c159-133 252-221 271-342 22-133-58-209-189-209-139 0-255 88-279 233H189c48-290 275-477 585-477 316 0 511 183 468 441-28 168-124 307-472 585L507-262l-2 11h622L1086 0H31" id="D"/><g id="m"><use transform="matrix(0.010850694444444444,0,0,0.010850694444444444,0,0)" xlink:href="#C"/><use transform="matrix(0.00759548611111111,0,0,0.00759548611111111,13.37890625,3.7673611111111107)" xlink:href="#D"/></g><use transform="matrix(0.010850694444444444,0,0,0.010850694444444444,0,0)" xlink:href="#v" id="o"/><use transform="matrix(0.010850694444444444,0,0,0.010850694444444444,0,0)" xlink:href="#v" id="p"/><use transform="matrix(0.010850694444444444,0,0,0.010850694444444444,0,0)" xlink:href="#v" id="q"/><use transform="matrix(0.010850694444444444,0,0,0.010850694444444444,0,0)" xlink:href="#v" id="r"/><path d="M626 20c-262 0-458-168-468-396h184c12 133 134 229 284 229 180 0 311-137 311-326 0-192-136-335-323-335-92 0-196 33-255 78l-178-22 88-738h784v167H429l-51 435h8c61-51 160-87 263-87 273 0 474 211 474 499 0 286-210 496-497 496" id="E"/><g id="s"><use transform="matrix(0.010850694444444444,0,0,0.010850694444444444,0,0)" xlink:href="#w"/><use transform="matrix(0.00759548611111111,0,0,0.00759548611111111,9.038628472222221,3.7673611111111107)" xlink:href="#E"/></g><path d="M603 20c-253 0-434-161-469-399h188c31 132 124 231 281 231 227 0 367-207 367-568h-12c-80 122-211 199-367 199-257 0-469-206-469-493 0-278 200-505 506-500 245 4 520 158 520 706 0 527-208 824-545 824zm16-703c181 0 324-157 324-332 0-171-135-328-318-328-180 0-317 148-317 332 0 183 131 328 311 328" id="F"/><g id="t"><use transform="matrix(0.010850694444444444,0,0,0.010850694444444444,0,0)" xlink:href="#w"/><use transform="matrix(0.00759548611111111,0,0,0.00759548611111111,9.038628472222221,3.7673611111111107)" xlink:href="#F"/></g><g id="u"><use transform="matrix(0.010850694444444444,0,0,0.010850694444444444,0,0)" xlink:href="#w"/><use transform="matrix(0.00759548611111111,0,0,0.00759548611111111,9.038628472222221,3.7673611111111107)" xlink:href="#w"/><use transform="matrix(0.00759548611111111,0,0,0.00759548611111111,15.365668402777775,3.7673611111111107)" xlink:href="#v"/></g></defs></g></svg>