<svg xmlns="http://www.w3.org/2000/svg" xmlns:xlink="http://www.w3.org/1999/xlink" xmlns:lucid="lucid" width="622" height="417.6"><g transform="translate(-340 -120)" lucid:page-tab-id="0_0"><path d="M500 186a6 6 0 0 1 6-6h48.68a6 6 0 0 1 6 6v343.03a6 6 0 0 1-6 6H506a6 6 0 0 1-6-6z" stroke="#3a414a" stroke-width="2" fill-opacity="0"/><path d="M561 221.9V186a6 6 0 0 1 6-6h94v41.9zM661 180h100v41.9H661zM761 180h100v41.9H761zM861 180h94a6 6 0 0 1 6 6v35.9H861z" stroke="#3a414a" stroke-width="2" fill="#fff"/><path d="M661 535.33h-94a6 6 0 0 1-6-6V221.9h100zM661 221.9h100v313.43H661zM761 221.9h100v313.43H761zM961 221.9v307.43a6 6 0 0 1-6 6h-94V221.9z" stroke="#3a414a" stroke-width="2" fill="none"/><use xlink:href="#a" transform="matrix(1,0,0,1,561,180.00000000000003) translate(35.98090277777778 29.08376736111111)"/><use xlink:href="#b" transform="matrix(1,0,0,1,660.9999999999999,180.00000000000003) translate(38.47113715277778 29.08376736111111)"/><use xlink:href="#c" transform="matrix(1,0,0,1,760.9999999999999,180.00000000000003) translate(40.96137152777778 29.08376736111111)"/><use xlink:href="#d" transform="matrix(1,0,0,1,860.9999999999999,180.00000000000003) translate(38.47113715277778 29.08376736111111)"/><path d="M500 302.38h461" stroke="#3a414a" stroke-width="2" fill="none"/><path d="M500.03 303.36H499v-1.95h1.03zM962 303.36h-1.03v-1.95H962z" stroke="#3a414a" stroke-width=".05" fill="#3a414a"/><path d="M500 384.65h461" stroke="#3a414a" stroke-width="2" fill="none"/><path d="M500.03 385.62H499v-1.95h1.03zM962 385.62h-1.03v-1.95H962z" stroke="#3a414a" stroke-width=".05" fill="#3a414a"/><path d="M500 463.95h461" stroke="#3a414a" stroke-width="2" fill="none"/><path d="M500.03 464.93H499v-1.95h1.03zM962 464.93h-1.03v-1.95H962z" stroke="#3a414a" stroke-width=".05" fill="#3a414a"/><path d="M640 126a6 6 0 0 1 6-6h228a6 6 0 0 1 6 6v48a6 6 0 0 1-6 6H646a6 6 0 0 1-6-6z" fill="none"/><use xlink:href="#e" transform="matrix(1,0,0,1,640,120) translate(100.12152777777777 38.083767361111114)"/><use xlink:href="#f" transform="matrix(1,0,0,1,640,120) translate(125.87022569444443 38.083767361111114)"/><path d="M380 346a6 6 0 0 1 6-6h128a6 6 0 0 1 6 6v48a6 6 0 0 1-6 6H386a6 6 0 0 1-6-6z" fill="none"/><use xlink:href="#g" transform="matrix(1,0,0,1,380,340) translate(49.64409722222222 38.083767361111114)"/><use xlink:href="#h" transform="matrix(1,0,0,1,380,340) translate(76.34765625 38.083767361111114)"/><path d="M480 254.3a6 6 0 0 1 6-6h88a6 6 0 0 1 6 6V514a6 6 0 0 1-6 6h-88a6 6 0 0 1-6-6z" fill="none"/><use xlink:href="#i" transform="matrix(1,0,0,1,480,248.2959856396589) translate(35.98090277777778 23.087673611111093)"/><use xlink:href="#j" transform="matrix(1,0,0,1,480,248.2959856396589) translate(50 49.97569444444443)"/><use xlink:href="#j" transform="matrix(1,0,0,1,480,248.2959856396589) translate(50 76.86371527777777)"/><use xlink:href="#k" transform="matrix(1,0,0,1,480,248.2959856396589) translate(38.47113715277778 103.75173611111109)"/><use xlink:href="#j" transform="matrix(1,0,0,1,480,248.2959856396589) translate(50 130.63975694444443)"/><use xlink:href="#j" transform="matrix(1,0,0,1,480,248.2959856396589) translate(50 157.52777777777777)"/><use xlink:href="#l" transform="matrix(1,0,0,1,480,248.2959856396589) translate(40.96137152777778 184.41579861111111)"/><use xlink:href="#j" transform="matrix(1,0,0,1,480,248.2959856396589) translate(50 211.30381944444446)"/><use xlink:href="#j" transform="matrix(1,0,0,1,480,248.2959856396589) translate(50 238.1918402777778)"/><use xlink:href="#m" transform="matrix(1,0,0,1,480,248.2959856396589) translate(38.47113715277778 265.07986111111114)"/><path d="M501 221.9h58M501.03 221.9H500" stroke="#3a414a" stroke-width="2" fill="none"/><path d="M560 222.88h-1.03v-1.95H560z" stroke="#3a414a" stroke-width=".05" fill="#3a414a"/><path d="M561.6 228.4a6 6 0 0 1 6-6H954a6 6 0 0 1 6 6V294a6 6 0 0 1-6 6H567.6a6 6 0 0 1-6-6z" fill="none"/><use xlink:href="#n" transform="matrix(1,0,0,1,561.6,222.39999999999998) translate(0 47.083767361111114)"/><use xlink:href="#o" transform="matrix(1,0,0,1,561.6,222.39999999999998) translate(37.5 47.083767361111114)"/><use xlink:href="#p" transform="matrix(1,0,0,1,561.6,222.39999999999998) translate(145.26909722222223 47.083767361111114)"/><use xlink:href="#q" transform="matrix(1,0,0,1,561.6,222.39999999999998) translate(248.134765625 47.083767361111114)"/><use xlink:href="#r" transform="matrix(1,0,0,1,561.6,222.39999999999998) translate(343.40386284722223 47.083767361111114)"/><path d="M560 306a6 6 0 0 1 6-6h386.4a6 6 0 0 1 6 6v65.6a6 6 0 0 1-6 6H566a6 6 0 0 1-6-6z" fill="none"/><g><use xlink:href="#n" transform="matrix(1,0,0,1,560,300) translate(0 47.083767361111114)"/><use xlink:href="#s" transform="matrix(1,0,0,1,560,300) translate(37.5 47.083767361111114)"/><use xlink:href="#q" transform="matrix(1,0,0,1,560,300) translate(150.33745659722223 47.083767361111114)"/><use xlink:href="#q" transform="matrix(1,0,0,1,560,300) translate(245.60655381944446 47.083767361111114)"/><use xlink:href="#t" transform="matrix(1,0,0,1,560,300) translate(340.8756510416667 47.083767361111114)"/></g><path d="M560 386a6 6 0 0 1 6-6h386.4a6 6 0 0 1 6 6v65.6a6 6 0 0 1-6 6H566a6 6 0 0 1-6-6z" fill="none"/><g><use xlink:href="#n" transform="matrix(1,0,0,1,560,380) translate(0 47.083767361111114)"/><use xlink:href="#o" transform="matrix(1,0,0,1,560,380) translate(37.5 47.083767361111114)"/><use xlink:href="#u" transform="matrix(1,0,0,1,560,380) translate(145.26909722222223 47.083767361111114)"/><use xlink:href="#q" transform="matrix(1,0,0,1,560,380) translate(245.24305555555554 47.083767361111114)"/><use xlink:href="#t" transform="matrix(1,0,0,1,560,380) translate(340.51215277777777 47.083767361111114)"/></g><path d="M560 466a6 6 0 0 1 6-6h386.4a6 6 0 0 1 6 6v65.6a6 6 0 0 1-6 6H566a6 6 0 0 1-6-6z" fill="none"/><g><use xlink:href="#n" transform="matrix(1,0,0,1,560,460) translate(0 47.083767361111114)"/><use xlink:href="#v" transform="matrix(1,0,0,1,560,460) translate(37.5 47.083767361111114)"/><use xlink:href="#w" transform="matrix(1,0,0,1,560,460) translate(149.912109375 47.083767361111114)"/><use xlink:href="#x" transform="matrix(1,0,0,1,560,460) translate(251.43120659722223 47.083767361111114)"/><use xlink:href="#t" transform="matrix(1,0,0,1,560,460) translate(341.87391493055554 47.083767361111114)"/></g><path d="M791 478a6 6 0 0 1 6-6h48a6 6 0 0 1 6 6v48a6 6 0 0 1-6 6h-48a6 6 0 0 1-6-6zM684 401a6 6 0 0 1 6-6h48a6 6 0 0 1 6 6v48a6 6 0 0 1-6 6h-48a6 6 0 0 1-6-6zM578 476a6 6 0 0 1 6-6h48a6 6 0 0 1 6 6v48a6 6 0 0 1-6 6h-48a6 6 0 0 1-6-6zM683 237a6 6 0 0 1 6-6h48a6 6 0 0 1 6 6v48a6 6 0 0 1-6 6h-48a6 6 0 0 1-6-6zM579 317a6 6 0 0 1 6-6h48a6 6 0 0 1 6 6v48a6 6 0 0 1-6 6h-48a6 6 0 0 1-6-6zM883 240a6 6 0 0 1 6-6h48a6 6 0 0 1 6 6v48a6 6 0 0 1-6 6h-48a6 6 0 0 1-6-6z" stroke="#e81313" stroke-width="3" fill-opacity="0"/><path d="M340 126a6 6 0 0 1 6-6h228a6 6 0 0 1 6 6v48a6 6 0 0 1-6 6H346a6 6 0 0 1-6-6z" fill="none"/><g><use xlink:href="#y" transform="matrix(1,0,0,1,340,120) translate(109.95334201388889 38.083767361111114)"/></g><defs><path d="M646 20c-332 0-524-278-524-764 0-483 194-766 524-766s524 283 524 766c0 485-191 764-524 764zm0-166c218 0 341-220 341-598 0-380-123-601-341-601s-341 222-341 601c0 378 123 598 341 598" id="z"/><g id="a"><use transform="matrix(0.010850694444444444,0,0,0.010850694444444444,0,0)" xlink:href="#z"/><use transform="matrix(0.010850694444444444,0,0,0.010850694444444444,14.019097222222221,0)" xlink:href="#z"/></g><path d="M653-1490V0H466v-1314h-10L96-1047v-204l324-239h233" id="A"/><g id="b"><use transform="matrix(0.010850694444444444,0,0,0.010850694444444444,0,0)" xlink:href="#z"/><use transform="matrix(0.010850694444444444,0,0,0.010850694444444444,14.019097222222221,0)" xlink:href="#A"/></g><g id="c"><use transform="matrix(0.010850694444444444,0,0,0.010850694444444444,0,0)" xlink:href="#A"/><use transform="matrix(0.010850694444444444,0,0,0.010850694444444444,9.038628472222221,0)" xlink:href="#A"/></g><g id="d"><use transform="matrix(0.010850694444444444,0,0,0.010850694444444444,0,0)" xlink:href="#A"/><use transform="matrix(0.010850694444444444,0,0,0.010850694444444444,9.038628472222221,0)" xlink:href="#z"/></g><path d="M548 22C250 22 73-164 73-448c0-345 220-684 633-684 269 0 447 145 451 374l-285 48c-6-116-55-186-169-186-226 0-328 261-328 457 0 135 55 225 182 225 119 0 222-77 266-198l271 56C1013-122 815 22 548 22" id="B"/><path d="M-38 395l191-620h299L166 395H-38" id="C"/><g id="e"><use transform="matrix(0.010850694444444444,0,0,0.010850694444444444,0,0)" xlink:href="#B"/><use transform="matrix(0.010850694444444444,0,0,0.010850694444444444,13.06423611111111,0)" xlink:href="#C"/></g><path d="M457 19C230 19 71-139 71-426c0-345 196-706 543-706 198 0 272 121 298 211h11l94-569h300L1070 0H775l32-179h-16C734-78 632 19 457 19zm100-241c213 0 324-249 324-452 0-136-60-218-181-218-213 0-322 248-322 449 0 134 58 221 179 221" id="D"/><use transform="matrix(0.010850694444444444,0,0,0.010850694444444444,0,0)" xlink:href="#D" id="f"/><path d="M441 19C184 19 19-186 81-558c63-382 303-574 550-574 189 0 259 113 285 202h10l31-188h299L1071 0H776l29-179h-14C733-87 623 19 441 19zm133-241c154 0 263-135 296-336 34-204-31-334-185-334-159 0-264 139-296 334-33 197 29 336 185 336" id="E"/><g id="g"><use transform="matrix(0.010850694444444444,0,0,0.010850694444444444,0,0)" xlink:href="#E"/><use transform="matrix(0.010850694444444444,0,0,0.010850694444444444,14.019097222222221,0)" xlink:href="#C"/></g><path d="M675 19C485 19 405-93 377-185h-16L330 0H35l247-1490h300l-95 560h12c57-95 153-202 335-202 221 0 385 151 385 442 0 320-177 709-544 709zm-85-241c223 0 323-269 323-451 0-133-57-219-180-219-214 0-324 244-324 448 0 137 61 222 181 222" id="F"/><use transform="matrix(0.010850694444444444,0,0,0.010850694444444444,0,0)" xlink:href="#F" id="h"/><g id="i"><use transform="matrix(0.010850694444444444,0,0,0.010850694444444444,0,0)" xlink:href="#z"/><use transform="matrix(0.010850694444444444,0,0,0.010850694444444444,14.019097222222221,0)" xlink:href="#z"/></g><g id="k"><use transform="matrix(0.010850694444444444,0,0,0.010850694444444444,0,0)" xlink:href="#z"/><use transform="matrix(0.010850694444444444,0,0,0.010850694444444444,14.019097222222221,0)" xlink:href="#A"/></g><g id="l"><use transform="matrix(0.010850694444444444,0,0,0.010850694444444444,0,0)" xlink:href="#A"/><use transform="matrix(0.010850694444444444,0,0,0.010850694444444444,9.038628472222221,0)" xlink:href="#A"/></g><g id="m"><use transform="matrix(0.010850694444444444,0,0,0.010850694444444444,0,0)" xlink:href="#A"/><use transform="matrix(0.010850694444444444,0,0,0.010850694444444444,9.038628472222221,0)" xlink:href="#z"/></g><use transform="matrix(0.010850694444444444,0,0,0.010850694444444444,0,0)" xlink:href="#z" id="o"/><g id="p"><use transform="matrix(0.010850694444444444,0,0,0.010850694444444444,0,0)" xlink:href="#A"/><use transform="matrix(0.00759548611111111,0,0,0.00759548611111111,9.038628472222221,3.7673611111111107)" xlink:href="#A"/></g><use transform="matrix(0.010850694444444444,0,0,0.010850694444444444,0,0)" xlink:href="#z" id="q"/><path d="M154 0v-137l495-537c165-179 249-281 249-418 0-156-121-253-280-253-170 0-278 110-278 278H158c0-264 200-443 465-443 266 0 455 183 455 416 0 161-73 288-336 568L416-179v12h687V0H154" id="G"/><g id="r"><use transform="matrix(0.010850694444444444,0,0,0.010850694444444444,0,0)" xlink:href="#A"/><use transform="matrix(0.00759548611111111,0,0,0.00759548611111111,9.038628472222221,3.7673611111111107)" xlink:href="#G"/></g><path d="M120-303v-155l652-1032h231v1020h202v167h-202V0H821v-303H120zm702-167v-782h-12L323-482v12h499" id="H"/><g id="s"><use transform="matrix(0.010850694444444444,0,0,0.010850694444444444,0,0)" xlink:href="#A"/><use transform="matrix(0.00759548611111111,0,0,0.00759548611111111,9.038628472222221,3.7673611111111107)" xlink:href="#H"/></g><use transform="matrix(0.010850694444444444,0,0,0.010850694444444444,0,0)" xlink:href="#z" id="t"/><path d="M635 20c-292 0-500-160-510-396h192c11 142 145 229 315 229 187 0 323-105 323-260 0-161-125-274-346-274H488v-165h121c174 0 294-100 294-254 0-148-104-245-266-245-152 0-291 85-297 230H157c8-234 222-395 484-395 278 0 448 188 448 400 0 168-95 291-247 336v12c190 31 301 169 301 357 0 244-216 425-508 425" id="I"/><g id="u"><use transform="matrix(0.010850694444444444,0,0,0.010850694444444444,0,0)" xlink:href="#A"/><use transform="matrix(0.00759548611111111,0,0,0.00759548611111111,9.038628472222221,3.7673611111111107)" xlink:href="#A"/><use transform="matrix(0.00759548611111111,0,0,0.00759548611111111,15.365668402777775,3.7673611111111107)" xlink:href="#I"/></g><path d="M633 20c-303 0-511-173-511-416 0-188 124-348 291-378v-8c-145-37-237-174-237-332 0-227 192-396 457-396 261 0 456 169 456 396 0 158-94 295-235 332v8c162 30 291 190 291 378 0 243-212 416-512 416zm0-165c197 0 322-103 322-261 0-165-138-283-322-283-188 0-324 118-324 283 0 158 123 261 324 261zm0-703c157 0 272-101 272-252 0-149-110-246-272-246-165 0-273 97-273 246 0 151 112 252 273 252" id="J"/><g id="v"><use transform="matrix(0.010850694444444444,0,0,0.010850694444444444,0,0)" xlink:href="#A"/><use transform="matrix(0.00759548611111111,0,0,0.00759548611111111,9.038628472222221,3.7673611111111107)" xlink:href="#J"/></g><use transform="matrix(0.010850694444444444,0,0,0.010850694444444444,0,0)" xlink:href="#z" id="w"/><g id="x"><use transform="matrix(0.010850694444444444,0,0,0.010850694444444444,0,0)" xlink:href="#A"/><use transform="matrix(0.00759548611111111,0,0,0.00759548611111111,9.038628472222221,3.7673611111111107)" xlink:href="#A"/><use transform="matrix(0.00759548611111111,0,0,0.00759548611111111,15.365668402777775,3.7673611111111107)" xlink:href="#A"/></g><path d="M-37 396L69 170c124 42 243 19 271-107l19-60-235-1121h310c39 287 107 555 115 872 123-306 281-582 422-872h323L612 132c-98 180-235 294-460 294-77 0-149-13-189-30" id="K"/><path d="M903-1490L656 0H352l203-1221h-10L163-980l46-279 368-231h326" id="L"/><g id="y"><use transform="matrix(0.010850694444444444,0,0,0.010850694444444444,0,0)" xlink:href="#K"/><use transform="matrix(0.00759548611111111,0,0,0.00759548611111111,13.37890625,3.7673611111111107)" xlink:href="#L"/></g></defs></g></svg>