<svg xmlns="http://www.w3.org/2000/svg" xmlns:xlink="http://www.w3.org/1999/xlink" xmlns:lucid="lucid" width="700" height="460"><g transform="translate(560 -280)" lucid:page-tab-id="0_0"><path d="M-560 286a6 6 0 0 1 6-6h668a6 6 0 0 1 6 6v448a6 6 0 0 1-6 6h-668a6 6 0 0 1-6-6z" stroke="#000" stroke-opacity="0" stroke-width="2" fill-opacity="0"/><path d="M-240 346a6 6 0 0 1 6-6h68a6 6 0 0 1 6 6v48a6 6 0 0 1-6 6h-68a6 6 0 0 1-6-6z" stroke="#3a414a" stroke-width="2" fill="#fff"/><use xlink:href="#a" transform="matrix(1,0,0,1,-235,345) translate(30.48068576388889 34.02777777777778)"/><path d="M-192.93 408.5c0 4.5-3.65 8.14-8.14 8.14-4.5 0-8.14-3.65-8.14-8.14 0-4.5 3.63-8.14 8.13-8.14 4.5 0 8.14 3.64 8.14 8.14z" stroke="#3a414a" stroke-width="2" fill="#fff"/><path d="M-201.07 418.64V458" stroke="#3a414a" stroke-width="2" fill="none"/><path d="M-201.16 417.64h.44l.62-.15v1.17h-1.95v-1.2zM-200.1 459h-1.95v-1.03h1.95z" stroke="#3a414a" stroke-width=".05" fill="#3a414a"/><path d="M-240 466a6 6 0 0 1 6-6h68a6 6 0 0 1 6 6v48a6 6 0 0 1-6 6h-68a6 6 0 0 1-6-6z" stroke="#3a414a" stroke-width="2" fill="#fff"/><use xlink:href="#b" transform="matrix(1,0,0,1,-235,465) translate(27.84396701388889 34.02777777777778)"/><path d="M-158 489.87h32a6 6 0 0 1 6 6v15.36a6 6 0 0 0 6 6h32" stroke="#3a414a" stroke-width="2" fill="none"/><path d="M-157.97 490.84H-159v-1.95h1.03zM-81 518.2h-1.03v-1.95H-81zM-539.02 557.52H-541V310.76h1.96z" stroke="#3a414a" stroke-width=".05" fill="#3a414a"/><path stroke="#3a414a" stroke-width=".05" fill="#3a414a"/><path d="M-539.02 558.52H-541v-1.02h1.96z" stroke="#3a414a" stroke-width=".05" fill="#3a414a"/><use xlink:href="#c" transform="matrix(1,0,0,1,-545.1605902777778,289.2447916666667) translate(0 17.22222222222222)"/><path d="M-459.02 569h-1.96V310.75h1.96z" stroke="#3a414a" stroke-width=".05" fill="#3a414a"/><path stroke="#3a414a" stroke-width=".05" fill="#3a414a"/><path d="M-459.02 570h-1.96v-1.03h1.96z" stroke="#3a414a" stroke-width=".05" fill="#3a414a"/><use xlink:href="#d" transform="matrix(1,0,0,1,-465.6032986111111,289.2447916666667) translate(0 17.22222222222222)"/><path d="M-379.02 442.17v141.17h-1.95V310.75h1.95z" stroke="#3a414a" stroke-width=".05" fill="#3a414a"/><path stroke="#3a414a" stroke-width=".05" fill="#3a414a"/><path d="M-379.02 584.34h-1.95v-1.03h1.95z" stroke="#3a414a" stroke-width=".05" fill="#3a414a"/><use xlink:href="#e" transform="matrix(1,0,0,1,-385.23003472222223,289.2447916666667) translate(0 17.22222222222222)"/><path d="M-299.02 689h-1.96V310.75h1.96z" stroke="#3a414a" stroke-width=".05" fill="#3a414a"/><path stroke="#3a414a" stroke-width=".05" fill="#3a414a"/><path d="M-299.02 690h-1.96v-1.03h1.96z" stroke="#3a414a" stroke-width=".05" fill="#3a414a"/><use xlink:href="#f" transform="matrix(1,0,0,1,-305.6032986111111,289.2447916666667) translate(0 17.22222222222222)"/><path d="M-242 490h-137" stroke="#3a414a" stroke-width="2" fill="none"/><path d="M-241 490.98h-1.03v-1.96h1.03z" stroke="#3a414a" stroke-width=".05" fill="#3a414a"/><path d="M-378.97 490H-380M-242 504.34h-57" stroke="#3a414a" stroke-width="2" fill="none"/><path d="M-241 505.3h-1.03v-1.94h1.03z" stroke="#3a414a" stroke-width=".05" fill="#3a414a"/><path d="M-298.97 504.34H-300M-242 478.52h-217" stroke="#3a414a" stroke-width="2" fill="none"/><path d="M-241 479.5h-1.03v-1.95h1.03z" stroke="#3a414a" stroke-width=".05" fill="#3a414a"/><path d="M-458.97 478.52H-460M-242 370h-145.1a.1.1 0 0 1-.1-.1.1.1 0 0 0-.1-.1h-145.1" stroke="#3a414a" stroke-width="2" fill="none"/><path d="M-241 370.98h-1.03v-1.96h1.03zM-532.37 370.78h-1.3l.27-.97-.26-.97h1.3z" stroke="#3a414a" stroke-width=".05" fill="#3a414a"/><path d="M-240 546a6 6 0 0 1 6-6h68a6 6 0 0 1 6 6v48a6 6 0 0 1-6 6h-68a6 6 0 0 1-6-6z" stroke="#3a414a" stroke-width="2" fill="#fff"/><use xlink:href="#b" transform="matrix(1,0,0,1,-235,545) translate(27.84396701388889 34.02777777777778)"/><path d="M-158 569.87h32a6 6 0 0 0 6-6V553.8a6 6 0 0 1 6-6h32" stroke="#3a414a" stroke-width="2" fill="none"/><path d="M-157.97 570.84H-159v-1.95h1.03zM-81 548.78h-1.03v-1.95H-81z" stroke="#3a414a" stroke-width=".05" fill="#3a414a"/><path d="M-242 570h-217" stroke="#3a414a" stroke-width="2" fill="none"/><path d="M-241 570.98h-1.03V569h1.03z" stroke="#3a414a" stroke-width=".05" fill="#3a414a"/><path d="M-458.97 570H-460M-242 584.34h-137" stroke="#3a414a" stroke-width="2" fill="none"/><path d="M-241 585.3h-1.03v-1.94h1.03z" stroke="#3a414a" stroke-width=".05" fill="#3a414a"/><path d="M-378.97 584.34H-380M-242 558.52h-297" stroke="#3a414a" stroke-width="2" fill="none"/><path d="M-241 559.5h-1.03v-1.95h1.03z" stroke="#3a414a" stroke-width=".05" fill="#3a414a"/><path d="M-538.97 558.52H-540" stroke="#3a414a" stroke-width="2" fill="none"/><path d="M-240 666a6 6 0 0 1 6-6h68a6 6 0 0 1 6 6v48a6 6 0 0 1-6 6h-68a6 6 0 0 1-6-6z" stroke="#3a414a" stroke-width="2" fill="#fff"/><use xlink:href="#a" transform="matrix(1,0,0,1,-235,665) translate(30.48068576388889 34.02777777777778)"/><path d="M-191.15 651.4c0 4.5-3.65 8.13-8.14 8.13-4.5 0-8.14-3.64-8.14-8.14s3.65-8.15 8.15-8.15 8.15 3.64 8.15 8.14z" stroke="#3a414a" stroke-width="2" fill="#fff"/><path d="M-242 690h-57" stroke="#3a414a" stroke-width="2" fill="none"/><path d="M-241 690.98h-1.03V689h1.03z" stroke="#3a414a" stroke-width=".05" fill="#3a414a"/><path d="M-298.97 690H-300" stroke="#3a414a" stroke-width="2" fill="none"/><path d="M-534.43 369.8c0 3.3-2.66 5.95-5.95 5.95-3.28 0-5.94-2.66-5.94-5.95 0-3.28 2.66-5.94 5.94-5.94 3.3 0 5.95 2.66 5.95 5.94zM-455.2 477.32c0 3.3-2.67 5.95-5.96 5.95-3.28 0-5.94-2.66-5.94-5.94 0-3.3 2.66-5.95 5.94-5.95 3.3 0 5.95 2.66 5.95 5.94zM-373.92 490.5c0 3.3-2.66 5.95-5.94 5.95-3.3 0-5.95-2.66-5.95-5.94 0-3.28 2.65-5.94 5.94-5.94 3.28 0 5.94 2.66 5.94 5.95zM-294.82 505.9c0 3.27-2.66 5.93-5.95 5.93-3.28 0-5.94-2.66-5.94-5.94 0-3.3 2.65-5.96 5.93-5.96 3.3 0 5.95 2.66 5.95 5.95z" stroke="#3a414a" stroke-width="2" fill="#3a414a"/><path d="M-200 602v39.33" stroke="#3a414a" stroke-width="2" fill="none"/><path d="M-199.03 602.03h-1.94V601h1.94zM-199.03 642.28l-.17-.03h-.45l-1.32.3v-1.24h1.94z" stroke="#3a414a" stroke-width=".05" fill="#3a414a"/><path d="M2 530h57" stroke="#3a414a" stroke-width="2" fill="none"/><path d="M2.03 530.98H1V529h1.03z" stroke="#3a414a" stroke-width=".05" fill="#3a414a"/><path d="M58.97 530H60" stroke="#3a414a" stroke-width="2" fill="none"/><path d="M40 506a6 6 0 0 1 6-6h88a6 6 0 0 1 6 6v48a6 6 0 0 1-6 6H46a6 6 0 0 1-6-6z" fill="none"/><use xlink:href="#g" transform="matrix(1,0,0,1,40,500) translate(41.67699951171875 36.089501953125)"/><path d="M-140 440h118.86v18.5H-140z" fill="#fff" fill-opacity="0"/><path d="M-128.52 453.45h-1.37v-4.4h-9.1v-1.38h10.48v5.78M-117.7 446.94l-1.9 7.18s-.02.04-.02.22c0 .23.12.36.3.36.2 0 .5-.05 1.32-1.13l.25.25c-.65.98-1.77 2.23-2.77 2.23-.68 0-.87-.48-.87-1.15 0-.27.14-.7.24-1.03h-.08c-1.5 1.9-2.8 2.18-3.6 2.18-1.3 0-1.85-1.15-1.85-2.48 0-2.74 2.75-6.9 5.75-6.9.9 0 1.33.5 1.37.96h.02l.2-.7h1.65m-2.2 1.82c0-.85-.24-1.48-1.03-1.48-1.42 0-2.66 1.8-3.37 3.56-.38.94-.58 1.85-.58 2.58 0 1.1.64 1.38 1.2 1.38 1.44 0 2.9-1.97 3.48-3.95.16-.54.3-1.37.3-2.08M-100.2 456.44h-1.35l-4.47-8.98-4.47 8.98h-1.3l5.67-11.75h.2M-90.5 447.9l.1.08c.68-.67 1.5-1.3 2.5-1.3 1.46 0 2.32 1.43 2.32 3.13 0 2.53-2.27 6.27-5.53 6.27-1.12 0-1.97-.38-2.9-1l3-11.7c0-.1.03-.17.03-.23-.02-.27-.33-.44-.6-.44-.2 0-.46.02-.63.08l-.06-.33 3.3-.5m-2.26 8.65l-1.14 4.47c0 .15.66.4 1.14.4 2.54 0 3.9-3.62 3.9-5.74 0-1.46-.78-1.92-1.47-1.92-1.48 0-2.2 1.87-2.42 2.8M-68.28 456.44h-1.36l-4.47-8.98-4.48 8.98h-1.3l5.67-11.75h.2M-55.45 453.53l.25.27c-1.06 1.25-2.35 2.27-4.12 2.27-2.02 0-2.85-1.62-2.85-3.22 0-2.92 2.52-6.18 5.47-6.18 1.04 0 2.02.56 2.02 1.58 0 .8-.34 1.46-1.13 1.46-.55 0-.8-.43-.8-.78 0-.5.6-.75.6-1.2 0-.26-.2-.45-.7-.45-2.48 0-3.66 3.73-3.66 5.4 0 1.8 1.02 2.26 1.95 2.26 1.26 0 2.22-.7 2.95-1.4M-37.5 456.44h-1.34l-4.47-8.98-4.48 8.98h-1.3l5.67-11.75h.2M-21.27 441.95l-3.1 12.44c-.02.05-.04.17-.04.23 0 .13.1.2.3.2.42 0 1-.74 1.3-1.17l.22.25c-.62.94-1.73 2.2-2.7 2.2-.67 0-.83-.5-.83-.86 0-.42.03-.7.2-1.33h-.1c-1.55 1.94-2.8 2.2-3.57 2.2-1.5 0-1.82-1.55-1.82-2.65 0-2.14 2.15-6.78 5.35-6.78 1.18 0 1.66.54 1.68 1.04h.04l1.1-4.34c.03-.08.05-.16.05-.25 0-.25-.15-.4-.7-.4-.18 0-.4.04-.55.06l-.08-.3m-.18 6.3c0-.97-.3-1.47-1.16-1.47-2.06 0-3.75 4.15-3.75 6.15 0 1.02.6 1.37 1.18 1.37 1.45 0 2.83-1.95 3.4-3.87.24-.72.34-1.53.34-2.18"/><path d="M-140 600h118.86v18.5H-140z" fill="#fff" fill-opacity="0"/><path d="M-130.2 606.94l-1.88 7.17s-.02.06-.02.24c0 .23.13.36.3.36.2 0 .5-.05 1.32-1.13l.25.25c-.64.98-1.76 2.23-2.76 2.23-.68 0-.87-.48-.87-1.14 0-.27.13-.7.23-1.03h-.08c-1.5 1.9-2.8 2.18-3.6 2.18-1.3 0-1.85-1.14-1.85-2.48 0-2.74 2.75-6.9 5.74-6.9.9 0 1.33.5 1.37.96h.02l.2-.7h1.66m-2.2 1.82c0-.85-.24-1.48-1.03-1.48-1.42 0-2.67 1.8-3.38 3.56-.37.93-.58 1.85-.58 2.58 0 1.1.65 1.38 1.2 1.38 1.44 0 2.9-1.98 3.48-3.95.17-.54.3-1.37.3-2.08M-112.7 616.44h-1.35l-4.47-8.98-4.47 8.98h-1.3l5.68-11.75h.2M-102.97 607.9l.1.08c.67-.66 1.48-1.3 2.5-1.3 1.46 0 2.3 1.43 2.3 3.13 0 2.53-2.26 6.27-5.52 6.27-1.1 0-1.95-.38-2.88-1l3-11.7c0-.1.04-.17.04-.23-.03-.27-.34-.44-.6-.44-.22 0-.46.02-.63.08l-.06-.33 3.28-.5m-2.24 8.65l-1.14 4.47c0 .15.67.4 1.15.4 2.54 0 3.92-3.62 3.92-5.74 0-1.46-.8-1.92-1.48-1.92-1.5 0-2.2 1.87-2.43 2.8M-80.76 616.44h-1.35l-4.48-8.98-4.47 8.98h-1.3l5.66-11.75h.22M-67.95 613.53l.25.27c-1.06 1.25-2.35 2.27-4.12 2.27-2.02 0-2.85-1.62-2.85-3.22 0-2.92 2.52-6.18 5.47-6.18 1.04 0 2.02.56 2.02 1.58 0 .8-.33 1.46-1.12 1.46-.55 0-.8-.43-.8-.78 0-.5.6-.75.6-1.2 0-.26-.2-.45-.7-.45-2.47 0-3.66 3.73-3.66 5.4 0 1.8 1.02 2.26 1.96 2.26 1.27 0 2.22-.7 2.95-1.4M-49.98 616.44h-1.36l-4.47-8.98-4.48 8.98h-1.3l5.67-11.75h.2M-33.23 613.45h-1.37v-4.4h-9.1v-1.38h10.48v5.78M-21.27 601.95l-3.1 12.43-.04.25c0 .13.1.2.3.2.42 0 1-.74 1.3-1.17l.22.25c-.62.94-1.73 2.2-2.7 2.2-.67 0-.83-.5-.83-.86 0-.42.03-.7.2-1.33h-.1c-1.55 1.94-2.8 2.2-3.57 2.2-1.5 0-1.82-1.55-1.82-2.65 0-2.14 2.15-6.78 5.35-6.78 1.18 0 1.66.54 1.68 1.04h.04l1.1-4.34c.03-.08.05-.16.05-.25 0-.25-.15-.4-.7-.4-.18 0-.4.04-.55.06l-.08-.3m-.18 6.3c0-.97-.3-1.47-1.16-1.47-2.06 0-3.75 4.15-3.75 6.15 0 1.02.6 1.37 1.18 1.37 1.45 0 2.83-1.95 3.4-3.87.24-.72.34-1.54.34-2.18"/><path d="M-80 506a6 6 0 0 1 6-6h68a6 6 0 0 1 6 6v48a6 6 0 0 1-6 6h-68a6 6 0 0 1-6-6z" stroke="#3a414a" stroke-width="2" fill="#fff"/><use xlink:href="#h" transform="matrix(1,0,0,1,-75,505) translate(23.12934027777778 34.02777777777778)"/><path d="M-48.6 540.53h7.5M-48.6 540.53h-1M-41.14 540.53h1.03" stroke="#3a414a" stroke-width="2" fill="none"/><defs><path d="M653-1490V0H466v-1314h-10L96-1047v-204l324-239h233" id="i"/><use transform="matrix(0.010850694444444444,0,0,0.010850694444444444,0,0)" xlink:href="#i" id="a"/><path d="M580 20c-295 0-476-179-476-409 0-189 123-290 294-416-104-125-173-226-173-362 0-197 144-337 365-337 224 0 362 144 362 321 0 185-174 312-306 405l319 387c38-75 61-165 61-267h173c0 208-62 332-120 406L1287 0h-217L967-124C868-27 716 20 580 20zm279-273L507-675l-51 38c-123 91-167 162-167 254 0 147 113 246 278 246 107 0 210-41 292-116zM538-908l97-72c54-40 136-101 136-206 0-95-68-163-176-163-113 0-189 74-189 181 0 90 53 164 132 260" id="j"/><use transform="matrix(0.010850694444444444,0,0,0.010850694444444444,0,0)" xlink:href="#j" id="b"/><path fill="#333" d="M440 22C227 22 68-92 68-313c0-250 202-322 422-343 195-21 271-24 271-105 0-95-63-149-175-149-116 0-187 57-211 129l-275-46c57-194 237-305 487-305 240 0 474 108 474 379V0H777v-155h-10C713-51 605 22 440 22zm85-211c140 0 238-93 238-211v-121c-37 26-156 42-222 51-111 16-185 59-185 149 0 87 70 132 169 132" id="k"/><use transform="matrix(0.008680555555555556,0,0,0.008680555555555556,0,0)" xlink:href="#k" id="c"/><path fill="#333" d="M754 19C571 19 479-89 437-179h-14V0H128v-1490h300v560h9c41-89 129-202 319-202 248 0 453 193 453 575 0 372-197 576-455 576zm-92-241c156 0 240-139 240-336 0-196-83-334-240-334-154 0-241 131-241 334 0 202 88 336 241 336" id="l"/><use transform="matrix(0.008680555555555556,0,0,0.008680555555555556,0,0)" xlink:href="#l" id="d"/><path fill="#333" d="M628 22C291 22 81-210 81-554c0-346 210-578 547-578 265 0 455 142 497 372l-279 52c-25-116-99-188-215-188-160 0-244 139-244 341 0 200 84 341 244 341 116 0 193-74 217-195l279 51C1085-123 896 22 628 22" id="m"/><use transform="matrix(0.008680555555555556,0,0,0.008680555555555556,0,0)" xlink:href="#m" id="e"/><path fill="#333" d="M537 19C279 19 81-185 81-557c0-382 206-575 454-575 190 0 278 113 318 202h10v-560h300V0H868v-179h-15C812-89 719 19 537 19zm92-241c153 0 240-134 240-336 0-203-86-334-240-334-158 0-240 138-240 334 0 197 84 336 240 336" id="n"/><use transform="matrix(0.008680555555555556,0,0,0.008680555555555556,0,0)" xlink:href="#n" id="f"/><path d="M140 405l46-156c120 36 205 19 263-150l32-93L54-1118h197c107 313 237 620 324 950 87-331 219-637 326-950h196L606 167c-68 178-176 259-334 259-64 0-113-12-132-21" id="o"/><path d="M635 20c-292 0-500-160-510-396h192c11 142 145 229 315 229 187 0 323-105 323-260 0-161-125-274-346-274H488v-165h121c174 0 294-100 294-254 0-148-104-245-266-245-152 0-291 85-297 230H157c8-234 222-395 484-395 278 0 448 188 448 400 0 168-95 291-247 336v12c190 31 301 169 301 357 0 244-216 425-508 425" id="p"/><g id="g"><use transform="matrix(0.008173828125000001,0,0,0.008173828125000001,0,0)" xlink:href="#o"/><use transform="matrix(0.0057216796875,0,0,0.0057216796875,9.408076171875,2.837953125)" xlink:href="#p"/></g><path d="M1181-520L237-44v-194l712-338v-12L237-926v-196l944 476v126" id="q"/><g id="h"><use transform="matrix(0.010850694444444444,0,0,0.010850694444444444,0,0)" xlink:href="#q"/><use transform="matrix(0.010850694444444444,0,0,0.010850694444444444,14.702690972222221,0)" xlink:href="#i"/></g></defs></g></svg>