<svg xmlns="http://www.w3.org/2000/svg" xmlns:xlink="http://www.w3.org/1999/xlink" xmlns:lucid="lucid" width="651.5" height="354.93"><g transform="translate(551.5040337192115 -286.0685473434203)" lucid:page-tab-id="0_0"><path d="M-551.5 292.07a6 6 0 0 1 6-6H52.8a6 6 0 0 1 6 6V634a6 6 0 0 1-6 6h-598.3a6 6 0 0 1-6-6z" stroke="#000" stroke-opacity="0" stroke-width="2" fill-opacity="0"/><path d="M-515 332a6 6 0 0 1 6-6h28a6 6 0 0 1 6 6v28a6 6 0 0 1-6 6h-28a6 6 0 0 1-6-6z" stroke="#3a414a" stroke-width="2" fill="#fff"/><use xlink:href="#a" transform="matrix(1,0,0,1,-510,331) translate(10.48068576388889 23.40277777777778)"/><path d="M-487.43 375c0 4.5-3.65 8.14-8.14 8.14-4.5 0-8.14-3.65-8.14-8.14 0-4.5 3.63-8.14 8.13-8.14 4.5 0 8.14 3.64 8.14 8.14z" stroke="#3a414a" stroke-width="2" fill="#fff"/><path d="M-495.57 385.14v50.36a6 6 0 0 0 6 6H-222" stroke="#3a414a" stroke-width="2" fill="none"/><path d="M-495.66 384.14h.44l.62-.15v1.17h-1.95v-1.2zM-221 442.48h-1.03v-1.96h1.03z" stroke="#3a414a" stroke-width=".05" fill="#3a414a"/><path d="M-220 506a6 6 0 0 1 6-6h68a6 6 0 0 1 6 6v48a6 6 0 0 1-6 6h-68a6 6 0 0 1-6-6z" stroke="#3a414a" stroke-width="2" fill="#fff"/><use xlink:href="#b" transform="matrix(1,0,0,1,-215,505) translate(27.84396701388889 34.02777777777778)"/><path d="M-138 529.87h17.93a.07.07 0 0 1 .07.06.07.07 0 0 0 .07.07H-102" stroke="#3a414a" stroke-width="2" fill="none"/><path d="M-137.97 530.84H-139v-1.95h1.03zM-101 530.98h-1.03V529h1.03zM-539.02 557.52H-541V310.76h1.96z" stroke="#3a414a" stroke-width=".05" fill="#3a414a"/><path stroke="#3a414a" stroke-width=".05" fill="#3a414a"/><path d="M-539.02 558.52H-541v-1.02h1.96z" stroke="#3a414a" stroke-width=".05" fill="#3a414a"/><use xlink:href="#c" transform="matrix(1,0,0,1,-545.1605902777778,289.2447916666667) translate(0 17.22222222222222)"/><path d="M-459.02 449h-1.96V310.75h1.96z" stroke="#3a414a" stroke-width=".05" fill="#3a414a"/><path stroke="#3a414a" stroke-width=".05" fill="#3a414a"/><path d="M-459.02 450h-1.96v-1.03h1.96z" stroke="#3a414a" stroke-width=".05" fill="#3a414a"/><use xlink:href="#d" transform="matrix(1,0,0,1,-465.6032986111111,289.2447916666667) translate(0 17.22222222222222)"/><path d="M-379.02 582.96l.06.83.18.75.3.73.42.67.5.6.6.5.68.43.73.3.76.18.84.06H-222V590h-152.04l-1.05-.1-1.06-.24-1-.42-.94-.58-.83-.7-.7-.84-.6-.93-.4-1-.26-1.08-.08-1.06V310.76h1.96z" stroke="#3a414a" stroke-width=".05" fill="#3a414a"/><path stroke="#3a414a" stroke-width=".05" fill="#3a414a"/><path d="M-221 589.98h-1.03V588h1.03z" fill="#3a414a"/><path stroke="#3a414a" stroke-width=".05" fill="#3a414a"/><use xlink:href="#e" transform="matrix(1,0,0,1,-385.23003472222223,289.2447916666667) translate(0 17.22222222222222)"/><path d="M-299.02 552.5h-1.96V310.75h1.96z" stroke="#3a414a" stroke-width=".05" fill="#3a414a"/><path stroke="#3a414a" stroke-width=".05" fill="#3a414a"/><path d="M-299.02 553.5h-1.96v-1.03h1.96z" stroke="#3a414a" stroke-width=".05" fill="#3a414a"/><use xlink:href="#f" transform="matrix(1,0,0,1,-305.6032986111111,289.2447916666667) translate(0 17.22222222222222)"/><path d="M-222 516.67h-271.95a.04.04 0 0 0-.04.04.04.04 0 0 1-.03.05H-533" stroke="#3a414a" stroke-width="2" fill="none"/><path d="M-221 517.64h-1.03v-1.95h1.03zM-532.96 517.72h-1.3l.27-.97-.25-.98h1.3z" stroke="#3a414a" stroke-width=".05" fill="#3a414a"/><path d="M-517 346h-7.67a.03.03 0 0 1-.03-.03.03.03 0 0 0-.03-.03h-7.67" stroke="#3a414a" stroke-width="2" fill="none"/><path d="M-516 346.98h-1.03v-1.96h1.03zM-532.37 346.92h-1.3l.27-.97-.26-.98h1.3z" stroke="#3a414a" stroke-width=".05" fill="#3a414a"/><path d="M-220 586a6 6 0 0 1 6-6h68a6 6 0 0 1 6 6v48a6 6 0 0 1-6 6h-68a6 6 0 0 1-6-6z" stroke="#3a414a" stroke-width="2" fill="#fff"/><use xlink:href="#b" transform="matrix(1,0,0,1,-215,585) translate(27.84396701388889 34.02777777777778)"/><path d="M-138 609.87h72a6 6 0 0 0 6-6V562" stroke="#3a414a" stroke-width="2" fill="none"/><path d="M-137.97 610.84H-139v-1.95h1.03zM-59.02 562.03h-1.95V561h1.95z" stroke="#3a414a" stroke-width=".05" fill="#3a414a"/><path d="M-222 450h-237" stroke="#3a414a" stroke-width="2" fill="none"/><path d="M-221 450.98h-1.03v-1.96h1.03z" stroke="#3a414a" stroke-width=".05" fill="#3a414a"/><path d="M-458.97 450H-460M-222 598.52h-312a6 6 0 0 1-6-6v-33" stroke="#3a414a" stroke-width="2" fill="none"/><path d="M-221 599.5h-1.03v-1.95h1.03z" stroke="#3a414a" stroke-width=".05" fill="#3a414a"/><path d="M-540 559.55v-1.03M-222 553.5h-77" stroke="#3a414a" stroke-width="2" fill="none"/><path d="M-221 554.04l.03.44h-1.06v-1.96h1.03z" stroke="#3a414a" stroke-width=".05" fill="#3a414a"/><path d="M-298.97 553.5H-300" stroke="#3a414a" stroke-width="2" fill="none"/><path d="M-534.43 345.94c0 3.3-2.66 5.95-5.95 5.95-3.28 0-5.94-2.67-5.94-5.95 0-3.3 2.66-5.95 5.94-5.95 3.3 0 5.95 2.66 5.95 5.94zM-535.02 516.75c0 3.28-2.66 5.94-5.95 5.94-3.28 0-5.94-2.67-5.94-5.95 0-3.3 2.65-5.95 5.93-5.95 3.3 0 5.95 2.66 5.95 5.95zM-293.82 463.4c0 3.27-2.66 5.93-5.95 5.93-3.28 0-5.94-2.66-5.94-5.94 0-3.3 2.65-5.96 5.93-5.96 3.3 0 5.95 2.66 5.95 5.95z" stroke="#3a414a" stroke-width="2" fill="#3a414a"/><path d="M-18 530h57" stroke="#3a414a" stroke-width="2" fill="none"/><path d="M-17.97 530.98H-19V529h1.03z" stroke="#3a414a" stroke-width=".05" fill="#3a414a"/><path d="M38.97 530H40" stroke="#3a414a" stroke-width="2" fill="none"/><path d="M20 506a6 6 0 0 1 6-6h68a6 6 0 0 1 6 6v48a6 6 0 0 1-6 6H26a6 6 0 0 1-6-6z" fill="none"/><use xlink:href="#g" transform="matrix(1,0,0,1,20,500) translate(31.72277294921875 36.089501953125)"/><path d="M-240 400h131.35v18.5H-240z" fill="#fff" fill-opacity="0"/><path d="M-228.52 413.45h-1.37v-4.4h-9.1v-1.38h10.48v5.78M-217.7 406.94l-1.9 7.18s-.02.04-.02.22c0 .23.12.36.3.36.2 0 .5-.05 1.32-1.13l.25.25c-.65.98-1.77 2.23-2.77 2.23-.68 0-.87-.48-.87-1.15 0-.27.14-.7.24-1.03h-.08c-1.5 1.9-2.8 2.18-3.6 2.18-1.3 0-1.85-1.15-1.85-2.48 0-2.74 2.75-6.9 5.75-6.9.9 0 1.33.5 1.37.96h.02l.2-.7h1.65m-2.2 1.82c0-.85-.24-1.48-1.03-1.48-1.42 0-2.66 1.8-3.37 3.56-.38.94-.58 1.85-.58 2.58 0 1.1.64 1.38 1.2 1.38 1.44 0 2.9-1.97 3.47-3.95.16-.54.3-1.37.3-2.08M-200.2 416.44h-1.35l-4.47-8.98-4.47 8.98h-1.3l5.67-11.75h.2M-190.5 407.9l.1.08c.68-.67 1.5-1.3 2.5-1.3 1.46 0 2.32 1.43 2.32 3.13 0 2.53-2.27 6.27-5.53 6.27-1.12 0-1.97-.38-2.9-1l3-11.7c0-.1.03-.17.03-.23-.02-.27-.33-.44-.6-.44-.2 0-.46.02-.63.08l-.06-.33 3.3-.5m-2.26 8.65l-1.14 4.47c0 .15.66.4 1.14.4 2.54 0 3.9-3.62 3.9-5.74 0-1.46-.78-1.92-1.47-1.92-1.48 0-2.2 1.87-2.42 2.8M-168.28 416.44h-1.35l-4.47-8.98-4.48 8.98h-1.3l5.67-11.75h.2M-151.52 413.45h-1.38v-4.4h-9.1v-1.38h10.48v5.78M-142.98 413.53l.25.27c-1.06 1.25-2.35 2.27-4.12 2.27-2 0-2.84-1.62-2.84-3.22 0-2.92 2.52-6.18 5.47-6.18 1.04 0 2.02.56 2.02 1.58 0 .8-.34 1.46-1.13 1.46-.54 0-.8-.43-.8-.78 0-.5.6-.75.6-1.2 0-.26-.2-.45-.7-.45-2.47 0-3.66 3.73-3.66 5.4.02 1.8 1.03 2.26 1.97 2.26 1.27 0 2.22-.7 2.95-1.4M-125 416.44h-1.36l-4.47-8.98-4.47 8.98h-1.3l5.66-11.75h.2M-108.77 401.95l-3.1 12.44c-.02.05-.04.17-.04.23 0 .13.1.2.3.2.42 0 1-.74 1.3-1.17l.22.25c-.63.94-1.73 2.2-2.7 2.2-.67 0-.84-.5-.84-.86 0-.42.05-.7.2-1.33h-.1c-1.53 1.94-2.78 2.2-3.55 2.2-1.52 0-1.83-1.55-1.83-2.65 0-2.14 2.14-6.78 5.34-6.78 1.2 0 1.67.54 1.7 1.04h.03l1.1-4.34c.02-.08.05-.16.05-.25 0-.25-.15-.4-.7-.4-.18 0-.4.04-.55.06l-.1-.3m-.15 6.3c0-.97-.3-1.47-1.17-1.47-2.06 0-3.74 4.15-3.74 6.15 0 1.02.6 1.37 1.17 1.37 1.46 0 2.83-1.95 3.42-3.87.2-.72.32-1.53.32-2.18"/><path d="M-354.34 331.5a6 6 0 0 1 6-6h28a6 6 0 0 1 6 6v28a6 6 0 0 1-6 6h-28a6 6 0 0 1-6-6z" stroke="#3a414a" stroke-width="2" fill="#fff"/><use xlink:href="#a" transform="matrix(1,0,0,1,-349.33908712414285,330.5) translate(10.48068576388889 23.40277777777778)"/><path d="M-334 384.14v6.9a.03.03 0 0 1-.03 0 .03.03 0 0 0-.03.04v6.88" stroke="#3a414a" stroke-width="2" fill="none"/><path d="M-334.1 383.14h.45l.63-.14v1.17h-1.96v-1.2zM-333.08 399.23l-.97-.27-.98.26v-1.28h1.95z" stroke="#3a414a" stroke-width=".05" fill="#3a414a"/><path d="M-334.06 413.92V537.5a6 6 0 0 0 6 6H-222" stroke="#3a414a" stroke-width="2" fill="none"/><path d="M-334.06 412.93l.98-.26v1.28h-1.95v-1.3zM-221 544.48h-1.03v-1.96h1.03z" stroke="#3a414a" stroke-width=".05" fill="#3a414a"/><path d="M-373.77 345.44c0 3.3-2.66 5.95-5.95 5.95-3.28 0-5.94-2.67-5.94-5.95 0-3.3 2.66-5.95 5.94-5.95 3.3 0 5.95 2.66 5.95 5.94z" stroke="#3a414a" stroke-width="2" fill="#3a414a"/><path d="M-356.34 345.5h-15.4" stroke="#3a414a" stroke-width="2" fill="none"/><path d="M-355.34 346.48h-1.03v-1.96h1.03zM-371.73 346.48h-1.3l.3-1.03-.25-.93h1.25z" stroke="#3a414a" stroke-width=".05" fill="#3a414a"/><path d="M-325.86 374c0 4.5-3.64 8.14-8.14 8.14s-8.14-3.64-8.14-8.14 3.64-8.14 8.14-8.14 8.14 3.64 8.14 8.14zM-433.84 331.75a6 6 0 0 1 6-6h28a6 6 0 0 1 6 6v28a6 6 0 0 1-6 6h-28a6 6 0 0 1-6-6z" stroke="#3a414a" stroke-width="2" fill="#fff"/><use xlink:href="#a" transform="matrix(1,0,0,1,-428.83908712414285,330.75) translate(10.48068576388889 23.40277777777778)"/><path d="M-413.5 384.4V604a6 6 0 0 0 6 6H-222" stroke="#3a414a" stroke-width="2" fill="none"/><path d="M-413.6 383.4h.45l.63-.15v1.17h-1.96v-1.2zM-221 610.98h-1.03V609h1.03z" stroke="#3a414a" stroke-width=".05" fill="#3a414a"/><path d="M-453.27 345.7c0 3.28-2.66 5.94-5.95 5.94-3.28 0-5.94-2.66-5.94-5.94 0-3.3 2.66-5.95 5.94-5.95 3.3 0 5.95 2.66 5.95 5.94z" stroke="#3a414a" stroke-width="2" fill="#3a414a"/><path d="M-435.84 345.75h-15.4" stroke="#3a414a" stroke-width="2" fill="none"/><path d="M-434.84 346.73h-1.03v-1.96h1.03zM-451.23 346.73h-1.3l.3-1.03-.25-.93h1.25z" stroke="#3a414a" stroke-width=".05" fill="#3a414a"/><path d="M-405.36 374.25c0 4.5-3.64 8.14-8.14 8.14s-8.14-3.65-8.14-8.15 3.64-8.14 8.14-8.14 8.14 3.65 8.14 8.15zM-272.84 332.75a6 6 0 0 1 6-6h28a6 6 0 0 1 6 6v28a6 6 0 0 1-6 6h-28a6 6 0 0 1-6-6z" stroke="#3a414a" stroke-width="2" fill="#fff"/><use xlink:href="#a" transform="matrix(1,0,0,1,-267.83908712414285,331.75) translate(10.48068576388889 23.40277777777778)"/><path d="M-252.5 385.4v235.1a6 6 0 0 0 6 6h24.5" stroke="#3a414a" stroke-width="2" fill="none"/><path d="M-252.6 384.4h.45l.63-.15v1.17h-1.95v-1.2zM-221 627.48h-1.03v-1.96h1.03z" stroke="#3a414a" stroke-width=".05" fill="#3a414a"/><path d="M-292.27 346.7c0 3.28-2.66 5.94-5.95 5.94-3.28 0-5.94-2.66-5.94-5.94 0-3.3 2.66-5.95 5.94-5.95 3.3 0 5.95 2.66 5.95 5.94z" stroke="#3a414a" stroke-width="2" fill="#3a414a"/><path d="M-274.84 346.75h-15.4" stroke="#3a414a" stroke-width="2" fill="none"/><path d="M-273.84 347.73h-1.03v-1.96h1.03zM-290.23 347.73h-1.3l.3-1.03-.25-.93h1.25z" stroke="#3a414a" stroke-width=".05" fill="#3a414a"/><path d="M-244.36 375.25c0 4.5-3.64 8.14-8.14 8.14s-8.14-3.65-8.14-8.15 3.64-8.14 8.14-8.14 8.14 3.65 8.14 8.15zM-220 426a6 6 0 0 1 6-6h68a6 6 0 0 1 6 6v48a6 6 0 0 1-6 6h-68a6 6 0 0 1-6-6z" stroke="#3a414a" stroke-width="2" fill="#fff"/><use xlink:href="#b" transform="matrix(1,0,0,1,-215,425) translate(27.84396701388889 34.02777777777778)"/><path d="M-222 465.5h-70.36" stroke="#3a414a" stroke-width="2" fill="none"/><path d="M-221 466.48h-1.03v-1.96h1.03zM-292.34 466.48h-1.3l.54-1.96h.76z" stroke="#3a414a" stroke-width=".05" fill="#3a414a"/><path d="M-328.1 405.94c0 3.3-2.67 5.95-5.95 5.95-3.3 0-5.95-2.67-5.95-5.95 0-3.3 2.66-5.95 5.94-5.95 3.3 0 5.95 2.66 5.95 5.94z" stroke="#3a414a" stroke-width="2" fill="#3a414a"/><path d="M-222 432.5h-59.08a6 6 0 0 1-6-6v-14.56a6 6 0 0 0-6-6h-33" stroke="#3a414a" stroke-width="2" fill="none"/><path d="M-221 433.48h-1.03v-1.96h1.03zM-326.05 406.92h-1.3l.28-.97-.26-.98h1.28z" stroke="#3a414a" stroke-width=".05" fill="#3a414a"/><path d="M-240 480h131.35v18.5H-240z" fill="#fff" fill-opacity="0"/><path d="M-230.2 486.94l-1.88 7.18s-.02.04-.02.22c0 .23.13.36.3.36.2 0 .5-.05 1.32-1.13l.25.25c-.64.98-1.76 2.23-2.76 2.23-.68 0-.87-.48-.87-1.15 0-.27.13-.7.23-1.03h-.08c-1.5 1.9-2.8 2.18-3.6 2.18-1.3 0-1.85-1.15-1.85-2.48 0-2.74 2.75-6.9 5.74-6.9.9 0 1.33.5 1.37.96h.02l.2-.7h1.66m-2.2 1.82c0-.85-.24-1.48-1.03-1.48-1.42 0-2.67 1.8-3.38 3.56-.37.94-.58 1.85-.58 2.58 0 1.1.65 1.38 1.2 1.38 1.44 0 2.9-1.97 3.48-3.95.17-.54.3-1.37.3-2.08M-212.7 496.44h-1.35l-4.47-8.98-4.47 8.98h-1.3l5.68-11.75h.2M-195.94 493.45h-1.37v-4.4h-9.12v-1.38h10.48v5.78M-190.5 487.9l.1.08c.68-.67 1.5-1.3 2.5-1.3 1.46 0 2.32 1.43 2.32 3.13 0 2.53-2.27 6.27-5.53 6.27-1.12 0-1.97-.38-2.9-1l3-11.7c0-.1.03-.17.03-.23-.02-.27-.33-.44-.6-.44-.2 0-.46.02-.63.08l-.06-.33 3.3-.5m-2.26 8.65l-1.14 4.47c0 .15.66.4 1.14.4 2.54 0 3.9-3.62 3.9-5.74 0-1.46-.78-1.92-1.47-1.92-1.48 0-2.2 1.87-2.42 2.8M-168.28 496.44h-1.35l-4.47-8.98-4.48 8.98h-1.3l5.67-11.75h.2M-151.52 493.45h-1.38v-4.4h-9.1v-1.38h10.48v5.78M-142.98 493.53l.25.27c-1.06 1.25-2.35 2.27-4.12 2.27-2 0-2.84-1.62-2.84-3.22 0-2.92 2.52-6.18 5.47-6.18 1.04 0 2.02.56 2.02 1.58 0 .8-.34 1.46-1.13 1.46-.54 0-.8-.43-.8-.78 0-.5.6-.75.6-1.2 0-.26-.2-.45-.7-.45-2.47 0-3.66 3.73-3.66 5.4.02 1.8 1.03 2.26 1.97 2.26 1.27 0 2.22-.7 2.95-1.4M-125 496.44h-1.36l-4.47-8.98-4.47 8.98h-1.3l5.66-11.75h.2M-108.77 481.95l-3.1 12.44c-.02.05-.04.17-.04.23 0 .13.1.2.3.2.42 0 1-.74 1.3-1.17l.22.25c-.63.94-1.73 2.2-2.7 2.2-.67 0-.84-.5-.84-.86 0-.42.05-.7.2-1.33h-.1c-1.53 1.94-2.78 2.2-3.55 2.2-1.52 0-1.83-1.55-1.83-2.65 0-2.14 2.14-6.78 5.34-6.78 1.2 0 1.67.54 1.7 1.04h.03l1.1-4.34c.02-.08.05-.16.05-.25 0-.25-.15-.4-.7-.4-.18 0-.4.04-.55.06l-.1-.3m-.15 6.3c0-.97-.3-1.47-1.17-1.47-2.06 0-3.74 4.15-3.74 6.15 0 1.02.6 1.37 1.17 1.37 1.46 0 2.83-1.95 3.42-3.87.2-.72.32-1.53.32-2.18"/><path d="M-222 530h-183.02" stroke="#3a414a" stroke-width="2" fill="none"/><path d="M-221 530.98h-1.03V529h1.03zM-405 530.98h-1.3l.28-.98-.26-.98h1.28z" stroke="#3a414a" stroke-width=".05" fill="#3a414a"/><path d="M-407.06 530c0 3.28-2.66 5.95-5.94 5.95-3.28 0-5.94-2.67-5.94-5.95 0-3.28 2.66-5.95 5.94-5.95 3.28 0 5.94 2.67 5.94 5.95z" stroke="#3a414a" stroke-width="2" fill="#3a414a"/><path d="M-240 560h131.35v18.5H-240z" fill="#fff" fill-opacity="0"/><path d="M-230.2 566.94l-1.88 7.17s-.02.06-.02.24c0 .23.13.36.3.36.2 0 .5-.05 1.32-1.13l.25.25c-.64.98-1.76 2.23-2.76 2.23-.68 0-.87-.48-.87-1.14 0-.27.13-.7.23-1.03h-.08c-1.5 1.9-2.8 2.18-3.6 2.18-1.3 0-1.85-1.14-1.85-2.48 0-2.74 2.75-6.9 5.74-6.9.9 0 1.33.5 1.37.96h.02l.2-.7h1.66m-2.2 1.82c0-.85-.24-1.48-1.03-1.48-1.42 0-2.67 1.8-3.38 3.56-.37.93-.58 1.85-.58 2.58 0 1.1.65 1.38 1.2 1.38 1.44 0 2.9-1.98 3.48-3.95.17-.54.3-1.37.3-2.08M-212.7 576.44h-1.35l-4.47-8.98-4.47 8.98h-1.3l5.68-11.75h.2M-195.94 573.45h-1.37v-4.4h-9.12v-1.38h10.48v5.78M-190.5 567.9l.1.08c.68-.66 1.5-1.3 2.5-1.3 1.46 0 2.32 1.43 2.32 3.13 0 2.53-2.27 6.27-5.53 6.27-1.12 0-1.97-.38-2.9-1l3-11.7c0-.1.03-.17.03-.23-.02-.27-.33-.44-.6-.44-.2 0-.46.02-.63.08l-.06-.33 3.3-.5m-2.26 8.65l-1.14 4.47c0 .15.66.4 1.14.4 2.54 0 3.9-3.62 3.9-5.74 0-1.46-.78-1.92-1.47-1.92-1.48 0-2.2 1.87-2.42 2.8M-168.28 576.44h-1.35l-4.47-8.98-4.48 8.98h-1.3l5.67-11.75h.2M-155.45 573.53l.25.27c-1.06 1.25-2.35 2.27-4.12 2.27-2.02 0-2.85-1.62-2.85-3.22 0-2.92 2.52-6.18 5.47-6.18 1.04 0 2.02.56 2.02 1.58 0 .8-.34 1.46-1.13 1.46-.55 0-.8-.43-.8-.78 0-.5.6-.75.6-1.2 0-.26-.2-.45-.7-.45-2.48 0-3.66 3.73-3.66 5.4 0 1.8 1.02 2.26 1.95 2.26 1.26 0 2.22-.7 2.95-1.4M-137.5 576.44h-1.34l-4.47-8.98-4.48 8.98h-1.3l5.67-11.75h.2M-120.75 573.45h-1.37v-4.4h-9.1v-1.38h10.47v5.78M-108.77 561.95l-3.1 12.43-.04.25c0 .13.1.2.3.2.42 0 1-.74 1.3-1.17l.22.25c-.63.94-1.73 2.2-2.7 2.2-.67 0-.84-.5-.84-.86 0-.42.05-.7.2-1.33h-.1c-1.53 1.94-2.78 2.2-3.55 2.2-1.52 0-1.83-1.55-1.83-2.65 0-2.14 2.14-6.78 5.34-6.78 1.2 0 1.67.54 1.7 1.04h.03l1.1-4.34c.02-.08.05-.16.05-.25 0-.25-.15-.4-.7-.4-.18 0-.4.04-.55.06l-.1-.3m-.15 6.3c0-.97-.3-1.47-1.17-1.47-2.06 0-3.74 4.15-3.74 6.15 0 1.02.6 1.37 1.17 1.37 1.46 0 2.83-1.95 3.42-3.87.2-.72.32-1.54.32-2.18"/><path d="M-138 450h72a6 6 0 0 1 6 6v42" stroke="#3a414a" stroke-width="2" fill="none"/><path d="M-137.97 450.98H-139v-1.96h1.03zM-59.02 499h-1.95v-1.03h1.95z" stroke="#3a414a" stroke-width=".05" fill="#3a414a"/><path d="M-328.56 453c0 3.28-2.66 5.94-5.94 5.94-3.28 0-5.94-2.66-5.94-5.94 0-3.28 2.66-5.94 5.94-5.94 3.28 0 5.94 2.66 5.94 5.94z" stroke="#3a414a" stroke-width="2" fill="#3a414a"/><path d="M-100 506a6 6 0 0 1 6-6h68a6 6 0 0 1 6 6v48a6 6 0 0 1-6 6h-68a6 6 0 0 1-6-6z" stroke="#3a414a" stroke-width="2" fill="#fff"/><use xlink:href="#h" transform="matrix(1,0,0,1,-95,505) translate(23.12934027777778 34.02777777777778)"/><path d="M-68.6 540.53h7.5M-68.6 540.53h-1M-61.14 540.53h1.03" stroke="#3a414a" stroke-width="2" fill="none"/><defs><path d="M653-1490V0H466v-1314h-10L96-1047v-204l324-239h233" id="i"/><use transform="matrix(0.010850694444444444,0,0,0.010850694444444444,0,0)" xlink:href="#i" id="a"/><path d="M580 20c-295 0-476-179-476-409 0-189 123-290 294-416-104-125-173-226-173-362 0-197 144-337 365-337 224 0 362 144 362 321 0 185-174 312-306 405l319 387c38-75 61-165 61-267h173c0 208-62 332-120 406L1287 0h-217L967-124C868-27 716 20 580 20zm279-273L507-675l-51 38c-123 91-167 162-167 254 0 147 113 246 278 246 107 0 210-41 292-116zM538-908l97-72c54-40 136-101 136-206 0-95-68-163-176-163-113 0-189 74-189 181 0 90 53 164 132 260" id="j"/><use transform="matrix(0.010850694444444444,0,0,0.010850694444444444,0,0)" xlink:href="#j" id="b"/><path fill="#333" d="M440 22C227 22 68-92 68-313c0-250 202-322 422-343 195-21 271-24 271-105 0-95-63-149-175-149-116 0-187 57-211 129l-275-46c57-194 237-305 487-305 240 0 474 108 474 379V0H777v-155h-10C713-51 605 22 440 22zm85-211c140 0 238-93 238-211v-121c-37 26-156 42-222 51-111 16-185 59-185 149 0 87 70 132 169 132" id="k"/><use transform="matrix(0.008680555555555556,0,0,0.008680555555555556,0,0)" xlink:href="#k" id="c"/><path fill="#333" d="M754 19C571 19 479-89 437-179h-14V0H128v-1490h300v560h9c41-89 129-202 319-202 248 0 453 193 453 575 0 372-197 576-455 576zm-92-241c156 0 240-139 240-336 0-196-83-334-240-334-154 0-241 131-241 334 0 202 88 336 241 336" id="l"/><use transform="matrix(0.008680555555555556,0,0,0.008680555555555556,0,0)" xlink:href="#l" id="d"/><path fill="#333" d="M628 22C291 22 81-210 81-554c0-346 210-578 547-578 265 0 455 142 497 372l-279 52c-25-116-99-188-215-188-160 0-244 139-244 341 0 200 84 341 244 341 116 0 193-74 217-195l279 51C1085-123 896 22 628 22" id="m"/><use transform="matrix(0.008680555555555556,0,0,0.008680555555555556,0,0)" xlink:href="#m" id="e"/><path fill="#333" d="M537 19C279 19 81-185 81-557c0-382 206-575 454-575 190 0 278 113 318 202h10v-560h300V0H868v-179h-15C812-89 719 19 537 19zm92-241c153 0 240-134 240-336 0-203-86-334-240-334-158 0-240 138-240 334 0 197 84 336 240 336" id="n"/><use transform="matrix(0.008680555555555556,0,0,0.008680555555555556,0,0)" xlink:href="#n" id="f"/><path d="M140 405l46-156c120 36 205 19 263-150l32-93L54-1118h197c107 313 237 620 324 950 87-331 219-637 326-950h196L606 167c-68 178-176 259-334 259-64 0-113-12-132-21" id="o"/><path d="M154 0v-137l495-537c165-179 249-281 249-418 0-156-121-253-280-253-170 0-278 110-278 278H158c0-264 200-443 465-443 266 0 455 183 455 416 0 161-73 288-336 568L416-179v12h687V0H154" id="p"/><g id="g"><use transform="matrix(0.008173828125000001,0,0,0.008173828125000001,0,0)" xlink:href="#o"/><use transform="matrix(0.0057216796875,0,0,0.0057216796875,9.408076171875,2.837953125)" xlink:href="#p"/></g><path d="M1181-520L237-44v-194l712-338v-12L237-926v-196l944 476v126" id="q"/><g id="h"><use transform="matrix(0.010850694444444444,0,0,0.010850694444444444,0,0)" xlink:href="#q"/><use transform="matrix(0.010850694444444444,0,0,0.010850694444444444,14.702690972222221,0)" xlink:href="#i"/></g></defs></g></svg>