<svg xmlns="http://www.w3.org/2000/svg" xmlns:xlink="http://www.w3.org/1999/xlink" xmlns:lucid="lucid" width="635.06" height="371.42"><g transform="translate(1321.0000004911299 -130.22331788904074)" lucid:page-tab-id="0_0"><path d="M-1320 219.84a6 6 0 0 1 6-6h108a6 6 0 0 1 6 6v8a6 6 0 0 1-6 6h-108a6 6 0 0 1-6-6zM-1098.6 461.05a4.05 4.05 0 0 1 4.05-4.05h91.9a4.05 4.05 0 0 1 4.05 4.05 4.05 4.05 0 0 1-4.05 4.05h-91.9a4.05 4.05 0 0 1-4.05-4.05z" stroke="#3a414a" stroke-width="2" fill="#fff"/><path d="M-1100 324.4a4.4 4.4 0 0 1 4.4-4.4 4.4 4.4 0 0 1 4.4 4.4v171.2a4.4 4.4 0 0 1-4.4 4.4 4.4 4.4 0 0 1-4.4-4.4zM-940 166a6 6 0 0 1 6-6h228a6 6 0 0 1 6 6v288a6 6 0 0 1-6 6h-228a6 6 0 0 1-6-6z" stroke="#3a414a" stroke-width="2" fill="#fff"/><path d="M-940 166a6 6 0 0 1 6-6h108a6 6 0 0 1 6 6v88a6 6 0 0 1-6 6h-108a6 6 0 0 1-6-6zM-820 166a6 6 0 0 1 6-6h108a6 6 0 0 1 6 6v88a6 6 0 0 1-6 6h-108a6 6 0 0 1-6-6zM-940 266a6 6 0 0 1 6-6h108a6 6 0 0 1 6 6v88a6 6 0 0 1-6 6h-108a6 6 0 0 1-6-6zM-820 266a6 6 0 0 1 6-6h108a6 6 0 0 1 6 6v88a6 6 0 0 1-6 6h-108a6 6 0 0 1-6-6zM-940 366a6 6 0 0 1 6-6h108a6 6 0 0 1 6 6v88a6 6 0 0 1-6 6h-108a6 6 0 0 1-6-6zM-820 366a6 6 0 0 1 6-6h108a6 6 0 0 1 6 6v88a6 6 0 0 1-6 6h-108a6 6 0 0 1-6-6z" stroke="#3a414a" stroke-width="2" fill="#fff"/><path d="M-935.65 452.93a3.33 3.33 0 0 1 3.33-3.33h33.34a3.33 3.33 0 0 1 3.33 3.33 3.33 3.33 0 0 1-3.33 3.33h-33.34a3.33 3.33 0 0 1-3.33-3.33zM-813.44 452.93a3.33 3.33 0 0 1 3.33-3.33h33.33a3.33 3.33 0 0 1 3.33 3.33 3.33 3.33 0 0 1-3.33 3.33h-33.34a3.33 3.33 0 0 1-3.34-3.33zM-935.83 352.8a3.33 3.33 0 0 1 3.33-3.34h33.34a3.33 3.33 0 0 1 3.33 3.33 3.33 3.33 0 0 1-3.33 3.32h-33.34a3.33 3.33 0 0 1-3.33-3.33zM-813.62 352.8a3.33 3.33 0 0 1 3.33-3.34h33.35a3.33 3.33 0 0 1 3.33 3.33 3.33 3.33 0 0 1-3.33 3.32h-33.34a3.33 3.33 0 0 1-3.32-3.33zM-936.58 252.74a3.33 3.33 0 0 1 3.34-3.33h33.34a3.33 3.33 0 0 1 3.32 3.34 3.33 3.33 0 0 1-3.32 3.33h-33.35a3.33 3.33 0 0 1-3.33-3.33zM-814.36 252.74a3.33 3.33 0 0 1 3.33-3.33h33.34a3.33 3.33 0 0 1 3.34 3.34 3.33 3.33 0 0 1-3.33 3.33h-33.33a3.33 3.33 0 0 1-3.33-3.33z" stroke="#3a414a" stroke-width="2" fill="#979ea8"/><path d="M-1125.92 320a6.8 6.8 0 0 1 6.74 5.95l18.44 148.1A5.3 5.3 0 0 1-1106 480h-108a6 6 0 0 1-6-6V326a6 6 0 0 1 6-6z" stroke="#3a414a" stroke-width="2" fill="#fff"/><path d="M-1200 480c0 11.05-8.95 20-20 20s-20-8.95-20-20 8.95-20 20-20 20 8.95 20 20zM-1080 480c0 11.05-8.95 20-20 20s-20-8.95-20-20 8.95-20 20-20 20 8.95 20 20zM-1136.08 331.1a7.12 7.12 0 0 1 7.02 5.9l13.98 80.97a5.05 5.05 0 0 1-4.98 5.92h-84.5a6 6 0 0 1-6-6v-80.8a6 6 0 0 1 6-6z" stroke="#3a414a" stroke-width="2" fill="#fff"/><path d="M-1039.55 464.95a4.07 4.07 0 0 1 4.07-4.07h31.86a4.07 4.07 0 0 1 4.07 4.07 4.07 4.07 0 0 1-4.07 4.07h-31.86a4.07 4.07 0 0 1-4.07-4.07z" stroke="#3a414a" stroke-width="2" fill="#dfe3e8"/><path d="M-940 466a6 6 0 0 1 6-6h28a6 6 0 0 1 6 6v28a6 6 0 0 1-6 6h-28a6 6 0 0 1-6-6zM-740 466a6 6 0 0 1 6-6h28a6 6 0 0 1 6 6v28a6 6 0 0 1-6 6h-28a6 6 0 0 1-6-6zM-989.7 137.22a6 6 0 0 1 6-6h36.93a6 6 0 0 1 6 6v69.23a6 6 0 0 1-6 6h-36.92a6 6 0 0 1-6-6z" stroke="#3a414a" stroke-width="2" fill="#fff"/><use xlink:href="#a" transform="matrix(1,0,0,1,-984.6864112863162,136.2233179954801) translate(1.1015625 56.16666666666667)"/><path d="M-1005.94 423.8a6 6 0 0 1 6-6h188a6 6 0 0 1 6 6v28a6 6 0 0 1-6 6h-188a6 6 0 0 1-6-6z" fill="none"/><use xlink:href="#b" transform="matrix(1,0,0,1,-1005.9397057187431,417.7872267785667) translate(74.048828125 24.850260416666668)"/><use xlink:href="#c" transform="matrix(1,0,0,1,-1005.9397057187431,417.7872267785667) translate(99.49674479166667 24.850260416666668)"/><path d="M-1005.94 323a6 6 0 0 1 6-6h188a6 6 0 0 1 6 6v28a6 6 0 0 1-6 6h-188a6 6 0 0 1-6-6z" fill="none"/><use xlink:href="#b" transform="matrix(1,0,0,1,-1005.9397057187431,317) translate(73.10319010416666 24.850260416666668)"/><use xlink:href="#d" transform="matrix(1,0,0,1,-1005.9397057187431,317) translate(98.55110677083333 24.850260416666668)"/><path d="M-1005.94 223.8a6 6 0 0 1 6-6h188a6 6 0 0 1 6 6v28a6 6 0 0 1-6 6h-188a6 6 0 0 1-6-6z" fill="none"/><use xlink:href="#b" transform="matrix(1,0,0,1,-1005.9397057187431,217.78722677856672) translate(73.06901041666666 24.850260416666668)"/><use xlink:href="#e" transform="matrix(1,0,0,1,-1005.9397057187431,217.78722677856672) translate(98.51692708333333 24.850260416666668)"/><path d="M-885.94 423.8a6 6 0 0 1 6-6h188a6 6 0 0 1 6 6v28a6 6 0 0 1-6 6h-188a6 6 0 0 1-6-6z" fill="none"/><use xlink:href="#f" transform="matrix(1,0,0,1,-885.9397057187431,417.7872267785667) translate(72.00032552083333 24.850260416666668)"/><use xlink:href="#g" transform="matrix(1,0,0,1,-885.9397057187431,417.7872267785667) translate(99.33951822916666 24.850260416666668)"/><path d="M-885.94 323a6 6 0 0 1 6-6h188a6 6 0 0 1 6 6v28a6 6 0 0 1-6 6h-188a6 6 0 0 1-6-6z" fill="none"/><use xlink:href="#f" transform="matrix(1,0,0,1,-885.9397057187431,317) translate(71.0546875 24.850260416666668)"/><use xlink:href="#h" transform="matrix(1,0,0,1,-885.9397057187431,317) translate(98.39388020833334 24.850260416666668)"/><path d="M-885.94 223.8a6 6 0 0 1 6-6h188a6 6 0 0 1 6 6v28a6 6 0 0 1-6 6h-188a6 6 0 0 1-6-6z" fill="none"/><use xlink:href="#f" transform="matrix(1,0,0,1,-885.9397057187431,217.78722677856672) translate(71.0205078125 24.850260416666668)"/><use xlink:href="#i" transform="matrix(1,0,0,1,-885.9397057187431,217.78722677856672) translate(98.35970052083334 24.850260416666668)"/><path d="M-1080.45 467.65a6 6 0 0 1 6-6h108a6 6 0 0 1 6 6v28a6 6 0 0 1-6 6h-108a6 6 0 0 1-6-6z" fill="none"/><use xlink:href="#j" transform="matrix(1,0,0,1,-1080.4518204409799,461.6478408149592) translate(22.629557291666664 24.850260416666668)"/><use xlink:href="#k" transform="matrix(1,0,0,1,-1080.4518204409799,461.6478408149592) translate(34.048828125 24.850260416666668)"/><use xlink:href="#l" transform="matrix(1,0,0,1,-1080.4518204409799,461.6478408149592) translate(59.496744791666664 24.850260416666668)"/><use xlink:href="#m" transform="matrix(1,0,0,1,-1080.4518204409799,461.6478408149592) translate(89.701171875 24.850260416666668)"/><path d="M-1212.28 280.02v39M-1212.28 280.04v-.52M-1212.28 319v.52" stroke="#3a414a" fill="none"/><path d="M-1207.6 275.76c0 2.43-1.98 4.4-4.4 4.4-2.44 0-4.42-1.97-4.42-4.4 0-2.44 1.98-4.4 4.4-4.4 2.44 0 4.4 1.96 4.4 4.4z" stroke="#3a414a" stroke-width="2" fill="#3a414a"/><path d="M-1308.96 146a6 6 0 0 1 6-6h88.27a6 6 0 0 1 6 6v61.6a6 6 0 0 1-6 6h-88.26a6 6 0 0 1-6-6z" stroke="#3a414a" stroke-width="2" fill="#fff"/><path d="M-1306.7 148.34a6 6 0 0 1 6-6h82.7a6 6 0 0 1 6 6v57a6 6 0 0 1-6 6h-82.7a6 6 0 0 1-6-6z" stroke="#3a414a" stroke-width="2" fill="#fff"/><use xlink:href="#n" transform="matrix(1,0,0,1,-1294.710283217361,154.33741527983804) translate(6.005642361111111 19.86111111111111)"/><use xlink:href="#o" transform="matrix(1,0,0,1,-1294.710283217361,154.33741527983804) translate(26.40060763888889 19.86111111111111)"/><use xlink:href="#p" transform="matrix(1,0,0,1,-1294.710283217361,154.33741527983804) translate(44.626736111111114 19.86111111111111)"/><use xlink:href="#q" transform="matrix(1,0,0,1,-1294.710283217361,154.33741527983804) translate(10.673177083333332 30.616319444444443)"/><use xlink:href="#r" transform="matrix(1,0,0,1,-1294.710283217361,154.33741527983804) translate(25.725260416666664 30.616319444444443)"/><use xlink:href="#s" transform="matrix(1,0,0,1,-1294.710283217361,154.33741527983804) translate(42.69053819444444 30.616319444444443)"/><path d="M-1259.65 240.35l8.07 8.06M-1259.64 240.36l-.36-.36" stroke="#979ea8" fill="none"/><path d="M-1241.14 258.86l-13.37-6.8 6.55-6.57z" stroke="#979ea8" fill="#979ea8"/><path d="M-1252.27 271.4a6 6 0 0 1 6-6h68a6 6 0 0 1 6 6v8a6 6 0 0 1-6 6h-68a6 6 0 0 1-6-6z" fill="none"/><g><use xlink:href="#t" transform="matrix(1,0,0,1,-1252.2652799007988,265.3973048193631) translate(15.52734375 15.658637152777779)"/><use xlink:href="#u" transform="matrix(1,0,0,1,-1252.2652799007988,265.3973048193631) translate(53.125 15.658637152777779)"/></g><path d="M-1224.56 257.5l-6.8-7.57M-1224.57 257.48l.35.4" stroke="#979ea8" fill="none"/><path d="M-1241.23 238.94l12.98 7.52-6.9 6.2z" stroke="#979ea8" fill="#979ea8"/><path d="M-1088.8 334.88c0 3.74-3.02 6.77-6.76 6.77-3.74 0-6.77-3.03-6.77-6.77 0-3.74 3.03-6.77 6.77-6.77 3.74 0 6.77 3.04 6.77 6.78z" stroke="#000" stroke-opacity="0" stroke-width="2" fill="#e81313"/><path d="M-1088.4 354.83c0 3.74-3.04 6.77-6.78 6.77s-6.77-3.03-6.77-6.77c0-3.73 3.03-6.76 6.77-6.76 3.74 0 6.77 3.03 6.77 6.76z" stroke="#54c45e" stroke-width="2" fill="#fff"/><path d="M-1134.53 330.22a6 6 0 0 1 6-6h68a6 6 0 0 1 6 6v8a6 6 0 0 1-6 6h-68a6 6 0 0 1-6-6z" fill="none"/><g><use xlink:href="#v" transform="matrix(1,0,0,1,-1134.5336996893693,324.21708908254624) translate(15.52734375 15.658637152777779)"/><use xlink:href="#w" transform="matrix(1,0,0,1,-1134.5336996893693,324.21708908254624) translate(53.125 15.658637152777779)"/></g><path d="M-971.97 461.1l8.45-1.6" stroke="#979ea8" fill="none"/><path d="M-986.48 463.84l13.15-7.2 1.73 9.1zM-949 456.75l-13.17 7.2-1.72-9.1z" stroke="#979ea8" fill="#979ea8"/><path d="M-1180 426a6 6 0 0 1 6-6h28a6 6 0 0 1 6 6v49.23a6 6 0 0 1-6 6h-28a6 6 0 0 1-6-6z" stroke="#000" stroke-opacity="0" stroke-width="2" fill-opacity="0"/><g><use xlink:href="#x" transform="matrix(1,0,0,1,-1175,425) translate(1.5625 42)"/></g><defs><path d="M52 0l541-1490h220L1361 0h-200l-149-416H398L254 0H52zm404-582h497c-103-290-145-390-251-756-108 377-145 460-246 756" id="y"/><use transform="matrix(0.026041666666666668,0,0,0.026041666666666668,0,0)" xlink:href="#y" id="a"/><path d="M226-608c54-324 228-726 419-973h175c-209 318-363 684-411 972-44 264-11 530 103 888H337C213-15 178-320 226-608" id="z"/><path d="M-41 0l788-1490h220L1268 0h-192l-80-416H383L169 0H-41zm509-582h497c-56-293-77-375-126-756-162 359-224 468-371 756" id="A"/><path d="M808-1490L561 0H375l218-1314h-10l-405 267 34-204 364-239h232" id="B"/><path d="M-23 359l182-567h206L115 359H-23" id="C"/><g id="b"><use transform="matrix(0.006510416666666667,0,0,0.006510416666666667,0,0)" xlink:href="#z"/><use transform="matrix(0.006510416666666667,0,0,0.006510416666666667,4.86328125,0)" xlink:href="#A"/><use transform="matrix(0.004557291666666667,0,0,0.004557291666666667,14.0625,2.260416666666667)" xlink:href="#B"/><use transform="matrix(0.006510416666666667,0,0,0.006510416666666667,17.86328125,0)" xlink:href="#C"/></g><path d="M87 0l247-1490h901l-28 167H496l-85 512h643l-27 167H384L277 0H87" id="D"/><path d="M-43 280C186-71 310-340 354-607c48-291 15-654-89-973h176c108 246 149 649 95 974-48 289-184 595-403 886H-43" id="E"/><g id="c"><use transform="matrix(0.006510416666666667,0,0,0.006510416666666667,0,0)" xlink:href="#D"/><use transform="matrix(0.004557291666666667,0,0,0.004557291666666667,7.87109375,2.260416666666667)" xlink:href="#A"/><use transform="matrix(0.004557291666666667,0,0,0.004557291666666667,13.99609375,2.260416666666667)" xlink:href="#B"/><use transform="matrix(0.004557291666666667,0,0,0.004557291666666667,17.796875,2.260416666666667)" xlink:href="#B"/><use transform="matrix(0.006510416666666667,0,0,0.006510416666666667,21.59765625,0)" xlink:href="#E"/></g><path d="M61 0l23-137 583-537c198-182 297-283 319-421 25-157-68-250-224-250-169 0-311 109-339 278H242c44-263 264-443 530-443 267 0 433 185 393 418-28 164-126 293-428 566L353-179l-2 12h686L1010 0H61" id="F"/><g id="d"><use transform="matrix(0.006510416666666667,0,0,0.006510416666666667,0,0)" xlink:href="#D"/><use transform="matrix(0.004557291666666667,0,0,0.004557291666666667,7.87109375,2.260416666666667)" xlink:href="#A"/><use transform="matrix(0.004557291666666667,0,0,0.004557291666666667,13.99609375,2.260416666666667)" xlink:href="#B"/><use transform="matrix(0.004557291666666667,0,0,0.004557291666666667,17.796875,2.260416666666667)" xlink:href="#F"/><use transform="matrix(0.006510416666666667,0,0,0.006510416666666667,23.488932291666668,0)" xlink:href="#E"/></g><path d="M548 20C257 20 65-139 95-376h192c-13 142 107 229 276 229 186 0 341-103 367-259 27-162-80-275-301-275H508l28-165h121c172 0 309-98 335-253 25-149-62-246-224-246-155 0-307 87-336 230H249c47-235 281-395 542-395 276 0 424 187 389 399-28 170-144 292-303 337l-2 12c188 31 273 172 242 358-41 246-281 424-569 424" id="G"/><g id="e"><use transform="matrix(0.006510416666666667,0,0,0.006510416666666667,0,0)" xlink:href="#D"/><use transform="matrix(0.004557291666666667,0,0,0.004557291666666667,7.87109375,2.260416666666667)" xlink:href="#A"/><use transform="matrix(0.004557291666666667,0,0,0.004557291666666667,13.99609375,2.260416666666667)" xlink:href="#B"/><use transform="matrix(0.004557291666666667,0,0,0.004557291666666667,17.796875,2.260416666666667)" xlink:href="#G"/><use transform="matrix(0.006510416666666667,0,0,0.006510416666666667,23.557291666666668,0)" xlink:href="#E"/></g><g id="f"><use transform="matrix(0.006510416666666667,0,0,0.006510416666666667,0,0)" xlink:href="#z"/><use transform="matrix(0.006510416666666667,0,0,0.006510416666666667,4.86328125,0)" xlink:href="#A"/><use transform="matrix(0.004557291666666667,0,0,0.004557291666666667,14.0625,2.260416666666667)" xlink:href="#F"/><use transform="matrix(0.006510416666666667,0,0,0.006510416666666667,19.754557291666668,0)" xlink:href="#C"/></g><g id="g"><use transform="matrix(0.006510416666666667,0,0,0.006510416666666667,0,0)" xlink:href="#D"/><use transform="matrix(0.004557291666666667,0,0,0.004557291666666667,7.87109375,2.260416666666667)" xlink:href="#A"/><use transform="matrix(0.004557291666666667,0,0,0.004557291666666667,14.310546875,2.260416666666667)" xlink:href="#F"/><use transform="matrix(0.004557291666666667,0,0,0.004557291666666667,20.002604166666668,2.260416666666667)" xlink:href="#B"/><use transform="matrix(0.006510416666666667,0,0,0.006510416666666667,23.803385416666668,0)" xlink:href="#E"/></g><g id="h"><use transform="matrix(0.006510416666666667,0,0,0.006510416666666667,0,0)" xlink:href="#D"/><use transform="matrix(0.004557291666666667,0,0,0.004557291666666667,7.87109375,2.260416666666667)" xlink:href="#A"/><use transform="matrix(0.004557291666666667,0,0,0.004557291666666667,14.310546875,2.260416666666667)" xlink:href="#F"/><use transform="matrix(0.004557291666666667,0,0,0.004557291666666667,20.002604166666668,2.260416666666667)" xlink:href="#F"/><use transform="matrix(0.006510416666666667,0,0,0.006510416666666667,25.694661458333336,0)" xlink:href="#E"/></g><g id="i"><use transform="matrix(0.006510416666666667,0,0,0.006510416666666667,0,0)" xlink:href="#D"/><use transform="matrix(0.004557291666666667,0,0,0.004557291666666667,7.87109375,2.260416666666667)" xlink:href="#A"/><use transform="matrix(0.004557291666666667,0,0,0.004557291666666667,14.310546875,2.260416666666667)" xlink:href="#F"/><use transform="matrix(0.004557291666666667,0,0,0.004557291666666667,20.002604166666668,2.260416666666667)" xlink:href="#G"/><use transform="matrix(0.006510416666666667,0,0,0.006510416666666667,25.763020833333336,0)" xlink:href="#E"/></g><path d="M189-479l156-1011h204L368-479H189zm21 492C133 13 75-52 89-134c12-70 77-122 143-122 81 0 133 67 122 143-10 69-73 126-144 126" id="H"/><g id="j"><use transform="matrix(0.006510416666666667,0,0,0.006510416666666667,0,0)" xlink:href="#H"/><use transform="matrix(0.006510416666666667,0,0,0.006510416666666667,3.834635416666667,0)" xlink:href="#H"/></g><g id="k"><use transform="matrix(0.006510416666666667,0,0,0.006510416666666667,0,0)" xlink:href="#z"/><use transform="matrix(0.006510416666666667,0,0,0.006510416666666667,4.86328125,0)" xlink:href="#A"/><use transform="matrix(0.004557291666666667,0,0,0.004557291666666667,14.0625,2.260416666666667)" xlink:href="#B"/><use transform="matrix(0.006510416666666667,0,0,0.006510416666666667,17.86328125,0)" xlink:href="#C"/></g><g id="l"><use transform="matrix(0.006510416666666667,0,0,0.006510416666666667,0,0)" xlink:href="#D"/><use transform="matrix(0.004557291666666667,0,0,0.004557291666666667,7.87109375,2.260416666666667)" xlink:href="#A"/><use transform="matrix(0.004557291666666667,0,0,0.004557291666666667,13.99609375,2.260416666666667)" xlink:href="#B"/><use transform="matrix(0.004557291666666667,0,0,0.004557291666666667,17.796875,2.260416666666667)" xlink:href="#B"/><use transform="matrix(0.006510416666666667,0,0,0.006510416666666667,21.59765625,0)" xlink:href="#E"/></g><g id="m"><use transform="matrix(0.006510416666666667,0,0,0.006510416666666667,0,0)" xlink:href="#H"/><use transform="matrix(0.006510416666666667,0,0,0.006510416666666667,3.834635416666667,0)" xlink:href="#H"/></g><path d="M575 26C254 26 62-139 87-390h195c-13 168 129 246 305 246 202 0 370-106 400-265 38-202-254-238-427-293-212-68-349-179-316-387 40-252 276-421 566-421 289 0 487 168 458 396h-185c7-144-113-228-291-228-194 0-337 102-361 240-27 156 137 212 244 243l142 41c149 43 400 132 354 412-40 244-251 432-596 432" id="I"/><path d="M528 24C258 24 94-156 94-433c0-355 229-699 603-699 270 0 436 178 436 458 0 359-234 698-605 698zm4-161c275 0 420-287 420-533 0-170-77-301-260-301-271 0-418 288-418 536 0 168 77 298 258 298" id="J"/><path d="M492-1490L245 0H65l247-1490h180" id="K"/><path d="M211 13C134 13 76-52 90-134c12-70 77-122 143-122 81 0 133 67 122 143-10 69-73 126-144 126zm133-809c-77 0-135-65-121-147 12-70 77-122 143-122 81 0 133 67 122 143-10 69-73 126-144 126" id="L"/><g id="n"><use transform="matrix(0.004340277777777778,0,0,0.004340277777777778,0,0)" xlink:href="#I"/><use transform="matrix(0.004340277777777778,0,0,0.004340277777777778,5.694444444444445,0)" xlink:href="#J"/><use transform="matrix(0.004340277777777778,0,0,0.004340277777777778,11.028645833333334,0)" xlink:href="#K"/><use transform="matrix(0.004340277777777778,0,0,0.004340277777777778,13.181423611111112,0)" xlink:href="#K"/><use transform="matrix(0.004340277777777778,0,0,0.004340277777777778,15.33420138888889,0)" xlink:href="#L"/></g><g id="o"><use transform="matrix(0.004340277777777778,0,0,0.004340277777777778,0,0)" xlink:href="#z"/><use transform="matrix(0.004340277777777778,0,0,0.004340277777777778,3.2421875,0)" xlink:href="#A"/><use transform="matrix(0.0030381944444444445,0,0,0.0030381944444444445,9.375,1.5069444444444444)" xlink:href="#F"/><use transform="matrix(0.004340277777777778,0,0,0.004340277777777778,13.16970486111111,0)" xlink:href="#C"/></g><g id="p"><use transform="matrix(0.004340277777777778,0,0,0.004340277777777778,0,0)" xlink:href="#D"/><use transform="matrix(0.0030381944444444445,0,0,0.0030381944444444445,5.247395833333334,1.5069444444444444)" xlink:href="#A"/><use transform="matrix(0.0030381944444444445,0,0,0.0030381944444444445,9.540364583333334,1.5069444444444444)" xlink:href="#F"/><use transform="matrix(0.0030381944444444445,0,0,0.0030381944444444445,13.335069444444445,1.5069444444444444)" xlink:href="#F"/><use transform="matrix(0.004340277777777778,0,0,0.004340277777777778,17.129774305555557,0)" xlink:href="#E"/></g><path d="M524-1490L277 0H87l247-1490h190" id="M"/><path d="M451 24C217 22 71-78 61-277l174-29c11 123 90 172 219 172 161 0 280-83 297-181 11-71-30-117-135-143l-179-44c-195-48-280-153-253-316 31-186 223-314 455-314 233 4 337 107 366 275l-165 30c-18-80-65-152-204-152-138 0-256 75-272 174-13 77 32 118 158 149l162 40c195 48 278 154 252 313C904-113 708 24 451 24" id="N"/><path d="M691-1118l-25 154H437L325-290c-17 103 16 144 108 144 23 0 63-6 94-12L538-6c-36 12-87 20-136 20-196 0-290-109-260-290l114-688H88l25-154h169l44-266h180l-44 266h229" id="O"/><g id="q"><use transform="matrix(0.004340277777777778,0,0,0.004340277777777778,0,0)" xlink:href="#M"/><use transform="matrix(0.004340277777777778,0,0,0.004340277777777778,2.3871527777777777,0)" xlink:href="#N"/><use transform="matrix(0.004340277777777778,0,0,0.004340277777777778,7.074652777777778,0)" xlink:href="#O"/><use transform="matrix(0.004340277777777778,0,0,0.004340277777777778,9.991319444444445,0)" xlink:href="#L"/></g><g id="r"><use transform="matrix(0.004340277777777778,0,0,0.004340277777777778,0,0)" xlink:href="#z"/><use transform="matrix(0.004340277777777778,0,0,0.004340277777777778,3.2421875,0)" xlink:href="#A"/><use transform="matrix(0.0030381944444444445,0,0,0.0030381944444444445,9.375,1.5069444444444444)" xlink:href="#B"/><use transform="matrix(0.004340277777777778,0,0,0.004340277777777778,11.908854166666666,0)" xlink:href="#C"/></g><g id="s"><use transform="matrix(0.004340277777777778,0,0,0.004340277777777778,0,0)" xlink:href="#D"/><use transform="matrix(0.0030381944444444445,0,0,0.0030381944444444445,5.247395833333334,1.5069444444444444)" xlink:href="#A"/><use transform="matrix(0.0030381944444444445,0,0,0.0030381944444444445,9.330729166666668,1.5069444444444444)" xlink:href="#B"/><use transform="matrix(0.0030381944444444445,0,0,0.0030381944444444445,11.864583333333334,1.5069444444444444)" xlink:href="#B"/><use transform="matrix(0.004340277777777778,0,0,0.004340277777777778,14.398437499999998,0)" xlink:href="#E"/></g><path d="M218-607c0-325 108-727 258-974h175c-155 315-250 682-250 974 0 265 78 531 250 886H476C306-10 218-315 218-607" id="P"/><g id="t"><use transform="matrix(0.007595486111111112,0,0,0.007595486111111112,0,0)" xlink:href="#P"/><use transform="matrix(0.007595486111111112,0,0,0.007595486111111112,5.673828125000001,0)" xlink:href="#P"/></g><path d="M96 279C273-86 346-350 346-607c0-292-95-659-250-974h175c150 246 258 650 258 974 0 297-91 602-258 886H96" id="Q"/><g id="u"><use transform="matrix(0.007595486111111112,0,0,0.007595486111111112,0,0)" xlink:href="#Q"/><use transform="matrix(0.007595486111111112,0,0,0.007595486111111112,5.673828125000001,0)" xlink:href="#Q"/></g><path fill="#e81313" d="M218-607c0-325 108-727 258-974h175c-155 315-250 682-250 974 0 265 78 531 250 886H476C306-10 218-315 218-607" id="R"/><g id="v"><use transform="matrix(0.007595486111111112,0,0,0.007595486111111112,0,0)" xlink:href="#R"/><use transform="matrix(0.007595486111111112,0,0,0.007595486111111112,5.673828125000001,0)" xlink:href="#R"/></g><path fill="#e81313" d="M96 279C273-86 346-350 346-607c0-292-95-659-250-974h175c150 246 258 650 258 974 0 297-91 602-258 886H96" id="S"/><g id="w"><use transform="matrix(0.007595486111111112,0,0,0.007595486111111112,0,0)" xlink:href="#S"/><use transform="matrix(0.007595486111111112,0,0,0.007595486111111112,5.673828125000001,0)" xlink:href="#S"/></g><path d="M180 0v-1490h190c0 262 1 526-3 784 217-279 467-523 702-784h249L716-845 1319 0h-225L585-716 370-489V0H180" id="T"/><use transform="matrix(0.01953125,0,0,0.01953125,0,0)" xlink:href="#T" id="x"/></defs></g></svg>