<svg xmlns="http://www.w3.org/2000/svg" xmlns:xlink="http://www.w3.org/1999/xlink" xmlns:lucid="lucid" width="1301" height="740"><g transform="translate(500 -40)" lucid:page-tab-id="0_0"><path d="M-380.4 200.47H-394v-.94h13.6zm205 0h-178.23v-.94h178.24zm197.55 0h-156.1v-.94h156.1zm196.35 0h-158v-.94h158zm194.2 0H266.83v-.94H412.7zm170.92 0h-119v-.94h119zM-399.02 215h-.96v-4.25h.96zm0-25.75h-.96V185h.96z" stroke="#3a414a" stroke-width=".05" fill="#3a414a"/><path d="M598.38 200l-14.26 4.63v-9.26z" fill="#3a414a"/><path d="M599.92 200l-16.28 5.3v-10.6zm-15.33 3.98l12.25-3.98-12.26-3.98z" stroke="#3a414a" stroke-width=".05" fill="#3a414a"/><use xlink:href="#a" transform="matrix(1,0,0,1,-416.86197916666663,204) translate(0 17.22222222222222)"/><use xlink:href="#b" transform="matrix(1,0,0,1,-405.9939236111111,189.24479166666666) translate(0 17.22222222222222)"/><use xlink:href="#c" transform="matrix(1,0,0,1,-175.38715277777774,189.24479166666666) translate(0 17.22222222222222)"/><use xlink:href="#d" transform="matrix(1,0,0,1,22.153645833333258,189.24479166666666) translate(0 17.22222222222222)"/><use xlink:href="#e" transform="matrix(1,0,0,1,218.50434027777786,189.24479166666666) translate(0 17.22222222222222)"/><use xlink:href="#f" transform="matrix(1,0,0,1,412.6987847222223,189.24479166666666) translate(0 17.22222222222222)"/><use xlink:href="#g" transform="matrix(1,0,0,1,-380.3913329758262,189.24479166666666) translate(0 17.22222222222222)"/><path d="M440 106a6 6 0 0 1 6-6h148a6 6 0 0 1 6 6v48a6 6 0 0 1-6 6H446a6 6 0 0 1-6-6z" stroke="#3a414a" stroke-width="2"/><use xlink:href="#h" transform="matrix(1,0,0,1,452,112) translate(60.333984375 26.02777777777778)"/><path d="M240 106a6 6 0 0 1 6-6h148a6 6 0 0 1 6 6v48a6 6 0 0 1-6 6H246a6 6 0 0 1-6-6z" stroke="#3a414a" stroke-width="2" fill="#6f7681"/><use xlink:href="#i" transform="matrix(1,0,0,1,252,112) translate(60.73003472222222 26.02777777777778)"/><path d="M-360 106a6 6 0 0 1 6-6h148a6 6 0 0 1 6 6v48a6 6 0 0 1-6 6h-148a6 6 0 0 1-6-6z" stroke="#3a414a" stroke-width="2" fill="#fff"/><use xlink:href="#j" transform="matrix(1,0,0,1,-348,112) translate(59.88368055555556 26.02777777777778)"/><path d="M-160 106a6 6 0 0 1 6-6H-6a6 6 0 0 1 6 6v48a6 6 0 0 1-6 6h-148a6 6 0 0 1-6-6z" stroke="#3a414a" stroke-width="2" fill="#f2f3f5"/><use xlink:href="#k" transform="matrix(1,0,0,1,-148,112) translate(59.98133680555556 26.02777777777778)"/><path d="M40 106a6 6 0 0 1 6-6h148a6 6 0 0 1 6 6v48a6 6 0 0 1-6 6H46a6 6 0 0 1-6-6z" stroke="#3a414a" stroke-width="2" fill="#dfe3e8"/><use xlink:href="#l" transform="matrix(1,0,0,1,52,112) translate(61.32139756944444 26.02777777777778)"/><path d="M400 106a6 6 0 0 1 6-6h28a6 6 0 0 1 6 6v48a6 6 0 0 1-6 6h-28a6 6 0 0 1-6-6z" stroke="#3a414a" stroke-width="2" fill="#fc9432"/><use xlink:href="#m" transform="matrix(1,0,0,1,405,105) translate(-0.2289496527777768 33.083767361111114)"/><path d="M200 106a6 6 0 0 1 6-6h28a6 6 0 0 1 6 6v48a6 6 0 0 1-6 6h-28a6 6 0 0 1-6-6z" stroke="#3a414a" stroke-width="2" fill="#fc9432"/><use xlink:href="#m" transform="matrix(1,0,0,1,205,105) translate(-0.2289496527777768 33.083767361111114)"/><path d="M-400 106a6 6 0 0 1 6-6h28a6 6 0 0 1 6 6v48a6 6 0 0 1-6 6h-28a6 6 0 0 1-6-6z" stroke="#3a414a" stroke-width="2" fill="#fc9432"/><use xlink:href="#m" transform="matrix(1,0,0,1,-395,105) translate(-0.2289496527777768 33.083767361111114)"/><path d="M-200 106a6 6 0 0 1 6-6h28a6 6 0 0 1 6 6v48a6 6 0 0 1-6 6h-28a6 6 0 0 1-6-6z" stroke="#3a414a" stroke-width="2" fill="#fc9432"/><use xlink:href="#m" transform="matrix(1,0,0,1,-195,105) translate(-0.2289496527777768 33.083767361111114)"/><path d="M0 106a6 6 0 0 1 6-6h28a6 6 0 0 1 6 6v48a6 6 0 0 1-6 6H6a6 6 0 0 1-6-6z" stroke="#3a414a" stroke-width="2" fill="#fc9432"/><use xlink:href="#m" transform="matrix(1,0,0,1,5,105) translate(-0.2289496527777768 33.083767361111114)"/><path d="M-400 46a6 6 0 0 1 6-6h988a6 6 0 0 1 6 6v48a6 6 0 0 1-6 6h-988a6 6 0 0 1-6-6z" fill="none"/><use xlink:href="#n" transform="matrix(1,0,0,1,-400,40) translate(0 38.083767361111114)"/><use xlink:href="#o" transform="matrix(1,0,0,1,-400,40) translate(100 38.083767361111114)"/><use xlink:href="#p" transform="matrix(1,0,0,1,-400,40) translate(308.99522569444446 38.083767361111114)"/><use xlink:href="#q" transform="matrix(1,0,0,1,-400,40) translate(512.3697916666667 38.083767361111114)"/><use xlink:href="#r" transform="matrix(1,0,0,1,-400,40) translate(714.8980034722223 38.083767361111114)"/><use xlink:href="#s" transform="matrix(1,0,0,1,-400,40) translate(901.46484375 38.083767361111114)"/><path d="M-377.08 460.48H-394v-.96h16.92zm151 0h-114.54v-.96h114.53zm162.23 0h-110.1v-.96h110.1zm164.1 0H-10.1v-.96h110.35zm154.74 0H153.7v-.96H255zm158.1 0H304.55v-.96H413.1zm164.1 0H474.37v-.96H577.2zm126.42 0h-67.3v-.96h67.3zM-399.02 475h-.96v-4.25h.96zm0-25.75h-.96V445h.96z" stroke="#3a414a" stroke-width=".05" fill="#3a414a"/><path d="M718.38 460l-14.26 4.63v-9.26z" fill="#3a414a"/><path d="M719.92 460l-16.28 5.3v-10.6zm-15.33 3.98l12.25-3.98-12.26-3.98z" stroke="#3a414a" stroke-width=".05" fill="#3a414a"/><use xlink:href="#a" transform="matrix(1,0,0,1,-416.86197916666663,464) translate(0 17.22222222222222)"/><use xlink:href="#b" transform="matrix(1,0,0,1,-405.9939236111111,449.2447916666667) translate(0 17.22222222222222)"/><use xlink:href="#t" transform="matrix(1,0,0,1,-377.0852095392124,449.2447916666667) translate(0 17.22222222222222)"/><use xlink:href="#u" transform="matrix(1,0,0,1,-377.0852095392124,449.2447916666667) translate(28.791666666666664 17.22222222222222)"/><use xlink:href="#v" transform="matrix(1,0,0,1,-226.08785627900033,449.2447916666667) translate(0 17.22222222222222)"/><use xlink:href="#w" transform="matrix(1,0,0,1,-63.85425990285318,449.2447916666667) translate(0 17.22222222222222)"/><use xlink:href="#x" transform="matrix(1,0,0,1,100.24585484147528,449.2447916666667) translate(0 17.22222222222222)"/><use xlink:href="#y" transform="matrix(1,0,0,1,254.98941583429624,449.2447916666667) translate(0 17.22222222222222)"/><use xlink:href="#z" transform="matrix(1,0,0,1,413.104287523069,449.2447916666667) translate(0 17.22222222222222)"/><use xlink:href="#A" transform="matrix(1,0,0,1,577.2102797325496,449.2447916666667) translate(0 17.22222222222222)"/><path d="M240 366a6 6 0 0 1 6-6h28a6 6 0 0 1 6 6v48a6 6 0 0 1-6 6h-28a6 6 0 0 1-6-6z" stroke="#3a414a" stroke-width="2" fill="#fc9432"/><use xlink:href="#m" transform="matrix(1,0,0,1,245,365) translate(-0.2289496527777768 33.083767361111114)"/><path d="M80 366a6 6 0 0 1 6-6h28a6 6 0 0 1 6 6v48a6 6 0 0 1-6 6H86a6 6 0 0 1-6-6z" stroke="#3a414a" stroke-width="2" fill="#fc9432"/><use xlink:href="#m" transform="matrix(1,0,0,1,85,365) translate(-0.2289496527777768 33.083767361111114)"/><path d="M-400 366a6 6 0 0 1 6-6h28a6 6 0 0 1 6 6v48a6 6 0 0 1-6 6h-28a6 6 0 0 1-6-6z" stroke="#3a414a" stroke-width="2" fill="#fc9432"/><use xlink:href="#m" transform="matrix(1,0,0,1,-395,365) translate(-0.2289496527777768 33.083767361111114)"/><path d="M-240 366a6 6 0 0 1 6-6h28a6 6 0 0 1 6 6v48a6 6 0 0 1-6 6h-28a6 6 0 0 1-6-6z" stroke="#3a414a" stroke-width="2" fill="#fc9432"/><use xlink:href="#m" transform="matrix(1,0,0,1,-235,365) translate(-0.2289496527777768 33.083767361111114)"/><path d="M-80 366a6 6 0 0 1 6-6h28a6 6 0 0 1 6 6v48a6 6 0 0 1-6 6h-28a6 6 0 0 1-6-6z" stroke="#3a414a" stroke-width="2" fill="#fc9432"/><use xlink:href="#m" transform="matrix(1,0,0,1,-75,365) translate(-0.2289496527777768 33.083767361111114)"/><path d="M-400 306a6 6 0 0 1 6-6H714a6 6 0 0 1 6 6v48a6 6 0 0 1-6 6H-394a6 6 0 0 1-6-6z" fill="none"/><use xlink:href="#B" transform="matrix(1,0,0,1,-400,300) translate(0 38.083767361111114)"/><use xlink:href="#C" transform="matrix(1,0,0,1,-400,300) translate(75 38.083767361111114)"/><use xlink:href="#D" transform="matrix(1,0,0,1,-400,300) translate(237.07682291666666 38.083767361111114)"/><use xlink:href="#E" transform="matrix(1,0,0,1,-400,300) translate(405.4036458333333 38.083767361111114)"/><use xlink:href="#F" transform="matrix(1,0,0,1,-400,300) translate(564.3988715277778 38.083767361111114)"/><use xlink:href="#G" transform="matrix(1,0,0,1,-400,300) translate(724.0234375 38.083767361111114)"/><use xlink:href="#C" transform="matrix(1,0,0,1,-400,300) translate(882.8016493055555 38.083767361111114)"/><use xlink:href="#H" transform="matrix(1,0,0,1,-400,300) translate(1044.8784722222222 38.083767361111114)"/><path d="M-360 366a6 6 0 0 1 6-6h108a6 6 0 0 1 6 6v48a6 6 0 0 1-6 6h-108a6 6 0 0 1-6-6z" stroke="#3a414a" stroke-width="2"/><use xlink:href="#I" transform="matrix(1,0,0,1,-348,372) translate(37.17046440972222 26.02777777777778)"/><path d="M-200 366a6 6 0 0 1 6-6h108a6 6 0 0 1 6 6v48a6 6 0 0 1-6 6h-108a6 6 0 0 1-6-6z" stroke="#3a414a" stroke-width="2" fill="#6f7681"/><use xlink:href="#J" transform="matrix(1,0,0,1,-188,372) translate(37.56651475694444 26.02777777777778)"/><path d="M-40 366a6 6 0 0 1 6-6H74a6 6 0 0 1 6 6v48a6 6 0 0 1-6 6H-34a6 6 0 0 1-6-6z" stroke="#3a414a" stroke-width="2" fill="#fff"/><use xlink:href="#j" transform="matrix(1,0,0,1,-28,372) translate(39.88368055555556 26.02777777777778)"/><path d="M120 366a6 6 0 0 1 6-6h108a6 6 0 0 1 6 6v48a6 6 0 0 1-6 6H126a6 6 0 0 1-6-6z" stroke="#3a414a" stroke-width="2" fill="#f2f3f5"/><use xlink:href="#k" transform="matrix(1,0,0,1,132,372) translate(39.98133680555556 26.02777777777778)"/><path d="M280 366a6 6 0 0 1 6-6h108a6 6 0 0 1 6 6v48a6 6 0 0 1-6 6H286a6 6 0 0 1-6-6z" stroke="#3a414a" stroke-width="2" fill="#dfe3e8"/><use xlink:href="#l" transform="matrix(1,0,0,1,292,372) translate(41.32139756944444 26.02777777777778)"/><path d="M400 366a6 6 0 0 1 6-6h28a6 6 0 0 1 6 6v48a6 6 0 0 1-6 6h-28a6 6 0 0 1-6-6z" stroke="#3a414a" stroke-width="2" fill="#fc9432"/><use xlink:href="#m" transform="matrix(1,0,0,1,405,365) translate(-0.2289496527777768 33.083767361111114)"/><path d="M440 366a6 6 0 0 1 6-6h108a6 6 0 0 1 6 6v48a6 6 0 0 1-6 6H446a6 6 0 0 1-6-6z" stroke="#3a414a" stroke-width="2"/><use xlink:href="#K" transform="matrix(1,0,0,1,452,372) translate(35.590603298611114 26.02777777777778)"/><path d="M560 366a6 6 0 0 1 6-6h28a6 6 0 0 1 6 6v48a6 6 0 0 1-6 6h-28a6 6 0 0 1-6-6z" stroke="#3a414a" stroke-width="2" fill="#fc9432"/><use xlink:href="#m" transform="matrix(1,0,0,1,565,365) translate(-0.2289496527777768 33.083767361111114)"/><path d="M600 366a6 6 0 0 1 6-6h108a6 6 0 0 1 6 6v48a6 6 0 0 1-6 6H606a6 6 0 0 1-6-6z" stroke="#3a414a" stroke-width="2" fill="#6f7681"/><use xlink:href="#L" transform="matrix(1,0,0,1,612,372) translate(35.986653645833336 26.02777777777778)"/><path d="M-374.15 720.48H-394v-.96h19.85zm108.6 0h-72.13v-.96h72.13zm123.34 0h-79.5v-.96h79.5zm125.23 0H-92v-.96h75.03zm117.2 0H32.98v-.96h67.27zm120.17 0h-74.13v-.96h74.13zm117.12 0h-56.14v-.96h56.14zm115.53 0H395.3v-.96h57.75zm116.8 0h-55.32v-.96h55.33zm116.22 0h-57.3v-.96h57.3zm97.55 0H749.2v-.96h34.42zM-399.02 735h-.96v-4.25h.96zm0-25.75h-.96V705h.96z" stroke="#3a414a" stroke-width=".05" fill="#3a414a"/><path d="M798.38 720l-14.26 4.63v-9.26z" fill="#3a414a"/><path d="M799.92 720l-16.28 5.3v-10.6zm-15.33 3.98l12.25-3.98-12.26-3.98z" stroke="#3a414a" stroke-width=".05" fill="#3a414a"/><use xlink:href="#a" transform="matrix(1,0,0,1,-416.86197916666663,723.9999999999999) translate(0 17.22222222222222)"/><use xlink:href="#b" transform="matrix(1,0,0,1,-405.9939236111111,709.2447916666666) translate(0 17.22222222222222)"/><use xlink:href="#t" transform="matrix(1,0,0,1,-374.14610744280697,709.2447916666666) translate(0 17.22222222222222)"/><use xlink:href="#u" transform="matrix(1,0,0,1,-374.14610744280697,709.2447916666666) translate(28.791666666666664 17.22222222222222)"/><use xlink:href="#M" transform="matrix(1,0,0,1,-265.5477756589168,709.2447916666666) translate(0 17.22222222222222)"/><use xlink:href="#N" transform="matrix(1,0,0,1,-142.2116451219884,709.2447916666666) translate(0 17.22222222222222)"/><use xlink:href="#O" transform="matrix(1,0,0,1,-16.97395833333328,709.2447916666666) translate(0 17.22222222222222)"/><use xlink:href="#P" transform="matrix(1,0,0,1,100.23898275763939,709.2447916666666) translate(0 17.22222222222222)"/><use xlink:href="#Q" transform="matrix(1,0,0,1,220.3973116984579,709.2447916666666) translate(0 17.22222222222222)"/><use xlink:href="#R" transform="matrix(1,0,0,1,337.52006851958834,709.2447916666666) translate(0 17.22222222222222)"/><use xlink:href="#S" transform="matrix(1,0,0,1,453.0538134659699,709.2447916666666) translate(0 17.22222222222222)"/><use xlink:href="#T" transform="matrix(1,0,0,1,569.8553897315447,709.2447916666666) translate(0 17.22222222222222)"/><use xlink:href="#U" transform="matrix(1,0,0,1,686.0716252683294,709.2447916666666) translate(0 17.22222222222222)"/><path d="M80 626a6 6 0 0 1 6-6h28a6 6 0 0 1 6 6v48a6 6 0 0 1-6 6H86a6 6 0 0 1-6-6z" stroke="#3a414a" stroke-width="2" fill="#fc9432"/><use xlink:href="#m" transform="matrix(1,0,0,1,85,625) translate(-0.2289496527777768 33.083767361111114)"/><path d="M-40 626a6 6 0 0 1 6-6h28a6 6 0 0 1 6 6v48a6 6 0 0 1-6 6h-28a6 6 0 0 1-6-6z" stroke="#3a414a" stroke-width="2" fill="#fc9432"/><use xlink:href="#m" transform="matrix(1,0,0,1,-35,625) translate(-0.2289496527777768 33.083767361111114)"/><path d="M-400 626a6 6 0 0 1 6-6h28a6 6 0 0 1 6 6v48a6 6 0 0 1-6 6h-28a6 6 0 0 1-6-6z" stroke="#3a414a" stroke-width="2" fill="#fc9432"/><use xlink:href="#m" transform="matrix(1,0,0,1,-395,625) translate(-0.2289496527777768 33.083767361111114)"/><path d="M-280 626a6 6 0 0 1 6-6h28a6 6 0 0 1 6 6v48a6 6 0 0 1-6 6h-28a6 6 0 0 1-6-6z" stroke="#3a414a" stroke-width="2" fill="#fc9432"/><use xlink:href="#m" transform="matrix(1,0,0,1,-275,625) translate(-0.2289496527777768 33.083767361111114)"/><path d="M-160 626a6 6 0 0 1 6-6h28a6 6 0 0 1 6 6v48a6 6 0 0 1-6 6h-28a6 6 0 0 1-6-6z" stroke="#3a414a" stroke-width="2" fill="#fc9432"/><use xlink:href="#m" transform="matrix(1,0,0,1,-155,625) translate(-0.2289496527777768 33.083767361111114)"/><path d="M-400 566a6 6 0 0 1 6-6H794a6 6 0 0 1 6 6v48a6 6 0 0 1-6 6H-394a6 6 0 0 1-6-6z" fill="none"/><use xlink:href="#B" transform="matrix(1,0,0,1,-400,560) translate(0 38.083767361111114)"/><use xlink:href="#V" transform="matrix(1,0,0,1,-400,560) translate(75 38.083767361111114)"/><use xlink:href="#W" transform="matrix(1,0,0,1,-400,560) translate(190.02821180555554 38.083767361111114)"/><use xlink:href="#X" transform="matrix(1,0,0,1,-400,560) translate(311.3064236111111 38.083767361111114)"/><use xlink:href="#Y" transform="matrix(1,0,0,1,-400,560) translate(426.55164930555554 38.083767361111114)"/><use xlink:href="#W" transform="matrix(1,0,0,1,-400,560) translate(548.6762152777778 38.083767361111114)"/><use xlink:href="#V" transform="matrix(1,0,0,1,-400,560) translate(669.9544270833334 38.083767361111114)"/><use xlink:href="#Z" transform="matrix(1,0,0,1,-400,560) translate(784.9826388888889 38.083767361111114)"/><use xlink:href="#W" transform="matrix(1,0,0,1,-400,560) translate(912.5108506944445 38.083767361111114)"/><use xlink:href="#V" transform="matrix(1,0,0,1,-400,560) translate(1033.7890625 38.083767361111114)"/><use xlink:href="#H" transform="matrix(1,0,0,1,-400,560) translate(1148.8172743055557 38.083767361111114)"/><path d="M-360 626a6 6 0 0 1 6-6h68a6 6 0 0 1 6 6v48a6 6 0 0 1-6 6h-68a6 6 0 0 1-6-6z" stroke="#3a414a" stroke-width="2"/><use xlink:href="#I" transform="matrix(1,0,0,1,-348,632) translate(17.17046440972222 26.02777777777778)"/><path d="M-240 626a6 6 0 0 1 6-6h68a6 6 0 0 1 6 6v48a6 6 0 0 1-6 6h-68a6 6 0 0 1-6-6z" stroke="#3a414a" stroke-width="2" fill="#6f7681"/><use xlink:href="#J" transform="matrix(1,0,0,1,-228,632) translate(17.566514756944443 26.02777777777778)"/><path d="M-120 626a6 6 0 0 1 6-6h68a6 6 0 0 1 6 6v48a6 6 0 0 1-6 6h-68a6 6 0 0 1-6-6z" stroke="#3a414a" stroke-width="2" fill="#fff"/><use xlink:href="#j" transform="matrix(1,0,0,1,-108,632) translate(19.883680555555557 26.02777777777778)"/><path d="M0 626a6 6 0 0 1 6-6h68a6 6 0 0 1 6 6v48a6 6 0 0 1-6 6H6a6 6 0 0 1-6-6z" stroke="#3a414a" stroke-width="2" fill="#f2f3f5"/><use xlink:href="#k" transform="matrix(1,0,0,1,12,632) translate(19.981336805555557 26.02777777777778)"/><path d="M120 626a6 6 0 0 1 6-6h68a6 6 0 0 1 6 6v48a6 6 0 0 1-6 6h-68a6 6 0 0 1-6-6z" stroke="#3a414a" stroke-width="2" fill="#dfe3e8"/><use xlink:href="#l" transform="matrix(1,0,0,1,132,632) translate(21.321397569444443 26.02777777777778)"/><path d="M200 626a6 6 0 0 1 6-6h28a6 6 0 0 1 6 6v48a6 6 0 0 1-6 6h-28a6 6 0 0 1-6-6z" stroke="#3a414a" stroke-width="2" fill="#fc9432"/><use xlink:href="#m" transform="matrix(1,0,0,1,205,625) translate(-0.2289496527777768 33.083767361111114)"/><path d="M240 626a6 6 0 0 1 6-6h68a6 6 0 0 1 6 6v48a6 6 0 0 1-6 6h-68a6 6 0 0 1-6-6z" stroke="#3a414a" stroke-width="2"/><use xlink:href="#K" transform="matrix(1,0,0,1,252.00000000000003,632) translate(15.59060329861111 26.02777777777778)"/><path d="M320 626a6 6 0 0 1 6-6h28a6 6 0 0 1 6 6v48a6 6 0 0 1-6 6h-28a6 6 0 0 1-6-6z" stroke="#3a414a" stroke-width="2" fill="#fc9432"/><use xlink:href="#m" transform="matrix(1,0,0,1,325,625) translate(-0.2289496527777768 33.083767361111114)"/><path d="M360 626a6 6 0 0 1 6-6h68a6 6 0 0 1 6 6v48a6 6 0 0 1-6 6h-68a6 6 0 0 1-6-6z" stroke="#3a414a" stroke-width="2" fill="#6f7681"/><use xlink:href="#L" transform="matrix(1,0,0,1,372,632) translate(15.986653645833334 26.02777777777778)"/><path d="M480 626a6 6 0 0 1 6-6h68a6 6 0 0 1 6 6v48a6 6 0 0 1-6 6h-68a6 6 0 0 1-6-6z" stroke="#3a414a" stroke-width="2"/><g><use xlink:href="#aa" transform="matrix(1,0,0,1,491.99999999999994,632) translate(15.529839409722223 26.02777777777778)"/></g><path d="M560 626a6 6 0 0 1 6-6h28a6 6 0 0 1 6 6v48a6 6 0 0 1-6 6h-28a6 6 0 0 1-6-6z" stroke="#3a414a" stroke-width="2" fill="#fc9432"/><g><use xlink:href="#m" transform="matrix(1,0,0,1,565,625) translate(-0.2289496527777768 33.083767361111114)"/></g><path d="M600 626a6 6 0 0 1 6-6h68a6 6 0 0 1 6 6v48a6 6 0 0 1-6 6h-68a6 6 0 0 1-6-6z" stroke="#3a414a" stroke-width="2" fill="#6f7681"/><g><use xlink:href="#ab" transform="matrix(1,0,0,1,612,632) translate(15.925889756944446 26.02777777777778)"/></g><path d="M440 626a6 6 0 0 1 6-6h28a6 6 0 0 1 6 6v48a6 6 0 0 1-6 6h-28a6 6 0 0 1-6-6z" stroke="#3a414a" stroke-width="2" fill="#fc9432"/><g><use xlink:href="#m" transform="matrix(1,0,0,1,445,625) translate(-0.2289496527777768 33.083767361111114)"/></g><path d="M680 626a6 6 0 0 1 6-6h28a6 6 0 0 1 6 6v48a6 6 0 0 1-6 6h-28a6 6 0 0 1-6-6z" stroke="#3a414a" stroke-width="2" fill="#fc9432"/><g><use xlink:href="#m" transform="matrix(1,0,0,1,685,625) translate(-0.2289496527777768 33.083767361111114)"/></g><path d="M720 626a6 6 0 0 1 6-6h68a6 6 0 0 1 6 6v48a6 6 0 0 1-6 6h-68a6 6 0 0 1-6-6z" stroke="#3a414a" stroke-width="2"/><g><use xlink:href="#ac" transform="matrix(1,0,0,1,732,632) translate(15.3095703125 26.02777777777778)"/></g><path d="M-500 106a6 6 0 0 1 6-6h228a6 6 0 0 1 6 6v48a6 6 0 0 1-6 6h-228a6 6 0 0 1-6-6z" fill="none"/><g><use xlink:href="#ad" transform="matrix(1,0,0,1,-500,100) translate(0 38.083767361111114)"/></g><path d="M-500 366a6 6 0 0 1 6-6h228a6 6 0 0 1 6 6v48a6 6 0 0 1-6 6h-228a6 6 0 0 1-6-6z" fill="none"/><g><use xlink:href="#ae" transform="matrix(1,0,0,1,-500,360) translate(0 38.083767361111114)"/></g><path d="M-500 626a6 6 0 0 1 6-6h228a6 6 0 0 1 6 6v48a6 6 0 0 1-6 6h-228a6 6 0 0 1-6-6z" fill="none"/><g><use xlink:href="#af" transform="matrix(1,0,0,1,-500,620) translate(0 38.083767361111114)"/></g><path d="M360 206a6 6 0 0 1 6-6h228a6 6 0 0 1 6 6v48a6 6 0 0 1-6 6H366a6 6 0 0 1-6-6z" fill="none"/><g><use xlink:href="#ag" transform="matrix(1,0,0,1,360,200) translate(198.06206597222223 38.083767361111114)"/></g><path d="M480 466a6 6 0 0 1 6-6h228a6 6 0 0 1 6 6v48a6 6 0 0 1-6 6H486a6 6 0 0 1-6-6z" fill="none"/><g><use xlink:href="#ah" transform="matrix(1,0,0,1,480,460) translate(198.69140625 38.083767361111114)"/></g><path d="M700 726a6 6 0 0 1 6-6h88a6 6 0 0 1 6 6v48a6 6 0 0 1-6 6h-88a6 6 0 0 1-6-6z" fill="none"/><g><use xlink:href="#ai" transform="matrix(1,0,0,1,700,720) translate(55.52300347222222 38.083767361111114)"/></g><defs><path fill="#333" d="M115 0v-183l604-853c49-68 106-137 165-205-253 8-513 2-772 4v-253h1133v184L652-468c-53 73-113 147-176 220 253-10 513-3 772-5V0H115" id="aj"/><path fill="#333" d="M633 22C291 22 81-200 81-553c0-345 210-579 537-579 292 0 525 185 525 567v84H378c7 183 109 277 260 277 105 0 184-46 216-132l272 51C1071-99 893 22 633 22zM380-669h474c-15-146-94-237-233-237-143 0-229 99-241 237" id="ak"/><path fill="#333" d="M128 0v-1118h300V0H128zm150-1264c-91 0-165-68-165-154 0-85 74-154 165-154 90 0 165 69 165 154 0 86-75 154-165 154" id="al"/><path fill="#333" d="M683-1118v229H474v562c0 71 29 104 102 104 23 0 73-7 95-13l43 225C647 9 580 16 520 16 296 16 174-96 174-301v-588H20v-229h154v-266h300v266h209" id="am"/><g id="a"><use transform="matrix(0.008680555555555556,0,0,0.008680555555555556,0,0)" xlink:href="#aj"/><use transform="matrix(0.008680555555555556,0,0,0.008680555555555556,11.805555555555555,0)" xlink:href="#ak"/><use transform="matrix(0.008680555555555556,0,0,0.008680555555555556,22.395833333333336,0)" xlink:href="#al"/><use transform="matrix(0.008680555555555556,0,0,0.008680555555555556,27.21354166666667,0)" xlink:href="#am"/></g><path fill="#333" d="M690 20C314 20 94-261 94-744c0-482 221-766 596-766 376 0 597 284 597 766 0 483-219 764-597 764zm0-253c184 0 286-184 286-511 0-328-102-514-286-514-183 0-285 187-285 514s101 511 285 511" id="an"/><use transform="matrix(0.008680555555555556,0,0,0.008680555555555556,0,0)" xlink:href="#an" id="b"/><path fill="#333" d="M607 0H42l247-1490h509c449 0 695 280 618 745C1338-278 1058 0 607 0zM391-263h204c288 0 462-150 517-483s-67-481-351-481H551" id="ao"/><path fill="#333" d="M263 19C159 19 87-65 105-172c15-88 94-152 182-152 106 0 175 85 158 189-14 88-92 154-182 154zm122-742c-104 0-175-84-158-191 15-88 94-152 182-152 106 0 175 85 158 189-13 88-92 154-182 154" id="ap"/><path fill="#333" d="M572 20C248 20 37-159 76-418h307c-13 112 82 185 223 185 146 0 264-82 284-203 21-124-71-210-243-210H509l38-227h138c143 0 258-80 278-200 19-115-54-193-183-193-132 0-250 74-272 189H214c46-255 298-433 600-433 305 0 487 185 448 418-27 168-161 285-332 317l-1 11c213 29 306 163 275 347-42 255-302 437-632 437" id="aq"/><path fill="#333" d="M31 0l37-220 609-495c159-133 252-221 271-342 22-133-58-209-189-209-139 0-255 88-279 233H189c48-290 275-477 585-477 316 0 511 183 468 441-28 168-124 307-472 585L507-262l-2 11h622L1086 0H31" id="ar"/><g id="c"><use transform="matrix(0.008680555555555556,0,0,0.008680555555555556,0,0)" xlink:href="#ao"/><use transform="matrix(0.008680555555555556,0,0,0.008680555555555556,12.829861111111112,0)" xlink:href="#ap"/><use transform="matrix(0.008680555555555556,0,0,0.008680555555555556,18.767361111111114,0)" xlink:href="#aq"/><use transform="matrix(0.008680555555555556,0,0,0.008680555555555556,30.243055555555557,0)" xlink:href="#ar"/></g><path fill="#333" d="M42 0l247-1490h997l-42 253H552l-59 360h639l-42 248H451l-62 376h694L1041 0H42" id="as"/><path fill="#333" d="M76 0l823-1228 2-10H188l42-252h1040l-42 256L402 0H76" id="at"/><g id="d"><use transform="matrix(0.008680555555555556,0,0,0.008680555555555556,0,0)" xlink:href="#as"/><use transform="matrix(0.008680555555555556,0,0,0.008680555555555556,10.894097222222223,0)" xlink:href="#ap"/><use transform="matrix(0.008680555555555556,0,0,0.008680555555555556,16.83159722222222,0)" xlink:href="#at"/><use transform="matrix(0.008680555555555556,0,0,0.008680555555555556,26.883680555555557,0)" xlink:href="#aq"/></g><path fill="#333" d="M42 0l247-1490h583c327 0 472 170 434 400-27 167-165 271-324 306v12c166 8 304 151 266 380C1211-164 1016 0 681 0H42zm347-251h256c181 0 281-87 300-209 19-118-59-195-209-195H456zm102-613h232c130 0 250-82 272-213 16-99-43-164-187-164H553" id="au"/><path fill="#333" d="M903-1490L656 0H352l203-1221h-10L163-980l46-279 368-231h326" id="av"/><path fill="#333" d="M53-265l39-241 787-984h383l-162 979h186l-41 246h-186L1015 0H722l44-265H53zm759-246l107-643h-12L403-523l-2 12h411" id="aw"/><g id="e"><use transform="matrix(0.008680555555555556,0,0,0.008680555555555556,0,0)" xlink:href="#au"/><use transform="matrix(0.008680555555555556,0,0,0.008680555555555556,11.762152777777779,0)" xlink:href="#ap"/><use transform="matrix(0.008680555555555556,0,0,0.008680555555555556,17.69965277777778,0)" xlink:href="#av"/><use transform="matrix(0.008680555555555556,0,0,0.008680555555555556,25.37326388888889,0)" xlink:href="#ar"/><use transform="matrix(0.008680555555555556,0,0,0.008680555555555556,36.29340277777778,0)" xlink:href="#aw"/></g><path fill="#333" d="M-44 0l756-1490h400L1387 0h-327l-57-346H473L305 0H-44zm634-585h373c-37-212-56-397-81-666-107 262-185 453-292 666" id="ax"/><path fill="#333" d="M577 20C271 20 69-163 105-418h298c-14 116 68 196 196 196 148 0 282-107 308-267s-58-269-208-269c-88 0-193 38-249 98l-266-48 202-782h902l-42 252H597L496-861h8c65-72 177-124 305-124 269 0 443 204 395 490-50 300-300 515-627 515" id="ay"/><g id="f"><use transform="matrix(0.008680555555555556,0,0,0.008680555555555556,0,0)" xlink:href="#ax"/><use transform="matrix(0.008680555555555556,0,0,0.008680555555555556,13.272569444444445,0)" xlink:href="#ap"/><use transform="matrix(0.008680555555555556,0,0,0.008680555555555556,19.210069444444443,0)" xlink:href="#ar"/><use transform="matrix(0.008680555555555556,0,0,0.008680555555555556,30.40798611111111,0)" xlink:href="#at"/><use transform="matrix(0.008680555555555556,0,0,0.008680555555555556,40.58159722222222,0)" xlink:href="#ay"/></g><path fill="#333" d="M707 20c-356 0-594-221-594-608 0-485 317-922 814-922 343 0 581 191 570 529h-309c-1-161-104-258-267-258-326 0-501 341-501 649 0 224 118 339 304 339 179 0 331-97 388-259h309c-81 277-347 530-714 530" id="az"/><g id="g"><use transform="matrix(0.008680555555555556,0,0,0.008680555555555556,0,0)" xlink:href="#az"/><use transform="matrix(0.008680555555555556,0,0,0.008680555555555556,13.151041666666668,0)" xlink:href="#ap"/><use transform="matrix(0.008680555555555556,0,0,0.008680555555555556,19.088541666666668,0)" xlink:href="#av"/></g><path fill="#fff" d="M52 0l541-1490h220L1361 0h-200l-149-416H398L254 0H52zm404-582h497c-103-290-145-390-251-756-108 377-145 460-246 756" id="aA"/><use transform="matrix(0.010850694444444444,0,0,0.010850694444444444,0,0)" xlink:href="#aA" id="h"/><path fill="#fff" d="M180 0v-1490h528c311 0 458 177 458 395 0 191-114 278-244 313v14c139 9 302 137 302 371 0 225-148 397-499 397H180zm190-168h350c232 0 321-102 321-231 0-149-120-277-311-277H370v508zm0-668h328c160 0 286-101 286-255 0-129-87-231-280-231H370v486" id="aB"/><use transform="matrix(0.010850694444444444,0,0,0.010850694444444444,0,0)" xlink:href="#aB" id="i"/><path d="M783 20c-382 0-661-292-661-764 0-473 279-766 661-766 302 0 548 182 601 489h-190c-42-204-217-313-411-313-268 0-476 208-476 590 0 381 209 588 476 588 195 0 369-110 411-313h190c-52 303-296 489-601 489" id="aC"/><use transform="matrix(0.010850694444444444,0,0,0.010850694444444444,0,0)" xlink:href="#aC" id="j"/><path d="M645 0H180v-1490h484c435 0 692 280 692 742 0 466-257 748-711 748zM370-168h263c363 0 539-218 539-580 0-358-176-574-521-574H370v1154" id="aD"/><use transform="matrix(0.010850694444444444,0,0,0.010850694444444444,0,0)" xlink:href="#aD" id="k"/><path d="M180 0v-1490h908v168H370v486h669v168H370v500h727V0H180" id="aE"/><use transform="matrix(0.010850694444444444,0,0,0.010850694444444444,0,0)" xlink:href="#aE" id="l"/><path d="M698 20c-339 0-559-226-559-600 0-470 305-930 790-930 306 0 529 181 531 489h-190c-8-202-157-313-348-313-373 0-599 380-599 749 0 281 158 429 382 429 202 0 399-111 474-313h191C1267-166 997 20 698 20" id="aF"/><path d="M575 26C254 26 62-139 87-390h195c-13 168 129 246 305 246 202 0 370-106 400-265 38-202-254-238-427-293-212-68-349-179-316-387 40-252 276-421 566-421 289 0 487 168 458 396h-185c7-144-113-228-291-228-194 0-337 102-361 240-27 156 137 212 244 243l142 41c149 43 400 132 354 412-40 244-251 432-596 432" id="aG"/><g id="m"><use transform="matrix(0.010850694444444444,0,0,0.010850694444444444,0,0)" xlink:href="#aF"/><use transform="matrix(0.010850694444444444,0,0,0.010850694444444444,16.221788194444443,0)" xlink:href="#aG"/></g><path d="M635 20c-292 0-500-160-510-396h192c11 142 145 229 315 229 187 0 323-105 323-260 0-161-125-274-346-274H488v-165h121c174 0 294-100 294-254 0-148-104-245-266-245-152 0-291 85-297 230H157c8-234 222-395 484-395 278 0 448 188 448 400 0 168-95 291-247 336v12c190 31 301 169 301 357 0 244-216 425-508 425" id="aH"/><path d="M646 20c-332 0-524-278-524-764 0-483 194-766 524-766s524 283 524 766c0 485-191 764-524 764zm0-166c218 0 341-220 341-598 0-380-123-601-341-601s-341 222-341 601c0 378 123 598 341 598" id="aI"/><g id="o"><use transform="matrix(0.010850694444444444,0,0,0.010850694444444444,0,0)" xlink:href="#aH"/><use transform="matrix(0.010850694444444444,0,0,0.010850694444444444,13.726128472222221,0)" xlink:href="#aI"/></g><path d="M120-303v-155l652-1032h231v1020h202v167h-202V0H821v-303H120zm702-167v-782h-12L323-482v12h499" id="aJ"/><g id="p"><use transform="matrix(0.010850694444444444,0,0,0.010850694444444444,0,0)" xlink:href="#aJ"/><use transform="matrix(0.010850694444444444,0,0,0.010850694444444444,14.35546875,0)" xlink:href="#aI"/></g><path d="M626 20c-262 0-458-168-468-396h184c12 133 134 229 284 229 180 0 311-137 311-326 0-192-136-335-323-335-92 0-196 33-255 78l-178-22 88-738h784v167H429l-51 435h8c61-51 160-87 263-87 273 0 474 211 474 499 0 286-210 496-497 496" id="aK"/><g id="q"><use transform="matrix(0.010850694444444444,0,0,0.010850694444444444,0,0)" xlink:href="#aK"/><use transform="matrix(0.010850694444444444,0,0,0.010850694444444444,13.509114583333332,0)" xlink:href="#aI"/></g><path d="M653-1490V0H466v-1314h-10L96-1047v-204l324-239h233" id="aL"/><g id="r"><use transform="matrix(0.010850694444444444,0,0,0.010850694444444444,0,0)" xlink:href="#aL"/><use transform="matrix(0.010850694444444444,0,0,0.010850694444444444,9.038628472222221,0)" xlink:href="#aK"/><use transform="matrix(0.010850694444444444,0,0,0.010850694444444444,22.547743055555554,0)" xlink:href="#aI"/></g><path d="M154 0v-137l495-537c165-179 249-281 249-418 0-156-121-253-280-253-170 0-278 110-278 278H158c0-264 200-443 465-443 266 0 455 183 455 416 0 161-73 288-336 568L416-179v12h687V0H154" id="aM"/><g id="s"><use transform="matrix(0.010850694444444444,0,0,0.010850694444444444,0,0)" xlink:href="#aM"/><use transform="matrix(0.010850694444444444,0,0,0.010850694444444444,13.55251736111111,0)" xlink:href="#aI"/><use transform="matrix(0.010850694444444444,0,0,0.010850694444444444,27.571614583333332,0)" xlink:href="#aI"/></g><g id="t"><use transform="matrix(0.008680555555555556,0,0,0.008680555555555556,0,0)" xlink:href="#ax"/><use transform="matrix(0.006076388888888889,0,0,0.006076388888888889,13.272569444444445,3.013888888888889)" xlink:href="#av"/><use transform="matrix(0.008680555555555556,0,0,0.008680555555555556,18.64409722222222,0)" xlink:href="#ap"/></g><use transform="matrix(0.008680555555555556,0,0,0.008680555555555556,0,0)" xlink:href="#av" id="u"/><path fill="#333" d="M595 20C218 20 45-261 124-744c80-483 349-766 724-766 374 0 549 282 470 765-80 485-346 765-723 765zm41-253c185 0 317-186 371-512 53-325-16-513-201-513-181 0-316 183-371 514-53 326 17 511 201 511" id="aN"/><g id="v"><use transform="matrix(0.008680555555555556,0,0,0.008680555555555556,0,0)" xlink:href="#au"/><use transform="matrix(0.006076388888888889,0,0,0.006076388888888889,11.762152777777779,3.013888888888889)" xlink:href="#av"/><use transform="matrix(0.006076388888888889,0,0,0.006076388888888889,17.133680555555557,3.013888888888889)" xlink:href="#ap"/><use transform="matrix(0.008680555555555556,0,0,0.008680555555555556,21.289930555555557,0)" xlink:href="#av"/><use transform="matrix(0.008680555555555556,0,0,0.008680555555555556,28.963541666666668,0)" xlink:href="#aN"/><use transform="matrix(0.008680555555555556,0,0,0.008680555555555556,40.942708333333336,0)" xlink:href="#ar"/></g><g id="w"><use transform="matrix(0.008680555555555556,0,0,0.008680555555555556,0,0)" xlink:href="#az"/><use transform="matrix(0.008680555555555556,0,0,0.008680555555555556,13.151041666666668,0)" xlink:href="#ap"/><use transform="matrix(0.008680555555555556,0,0,0.008680555555555556,19.088541666666668,0)" xlink:href="#ar"/><use transform="matrix(0.008680555555555556,0,0,0.008680555555555556,30.286458333333336,0)" xlink:href="#aN"/><use transform="matrix(0.008680555555555556,0,0,0.008680555555555556,42.265625,0)" xlink:href="#aq"/></g><g id="x"><use transform="matrix(0.008680555555555556,0,0,0.008680555555555556,0,0)" xlink:href="#ao"/><use transform="matrix(0.008680555555555556,0,0,0.008680555555555556,12.829861111111112,0)" xlink:href="#ap"/><use transform="matrix(0.008680555555555556,0,0,0.008680555555555556,18.767361111111114,0)" xlink:href="#ar"/><use transform="matrix(0.008680555555555556,0,0,0.008680555555555556,29.965277777777782,0)" xlink:href="#aq"/><use transform="matrix(0.008680555555555556,0,0,0.008680555555555556,41.44097222222223,0)" xlink:href="#aw"/></g><g id="y"><use transform="matrix(0.008680555555555556,0,0,0.008680555555555556,0,0)" xlink:href="#as"/><use transform="matrix(0.008680555555555556,0,0,0.008680555555555556,10.894097222222223,0)" xlink:href="#ap"/><use transform="matrix(0.008680555555555556,0,0,0.008680555555555556,16.83159722222222,0)" xlink:href="#ar"/><use transform="matrix(0.008680555555555556,0,0,0.008680555555555556,28.02951388888889,0)" xlink:href="#at"/><use transform="matrix(0.008680555555555556,0,0,0.008680555555555556,38.203125,0)" xlink:href="#ay"/></g><path fill="#333" d="M608 20C305 20 28-164 118-710c83-502 348-800 713-800 293 0 485 188 475 433h-301c-7-108-75-170-189-170-197 0-339 183-388 476h10c91-132 228-208 388-208 264 0 446 202 399 482-50 302-289 517-617 517zm8-242c147 0 286-115 311-267 26-150-54-267-203-267-151 0-288 120-313 268-23 147 58 266 205 266" id="aO"/><g id="z"><use transform="matrix(0.008680555555555556,0,0,0.008680555555555556,0,0)" xlink:href="#ax"/><use transform="matrix(0.006076388888888889,0,0,0.006076388888888889,13.272569444444445,3.013888888888889)" xlink:href="#ar"/><use transform="matrix(0.008680555555555556,0,0,0.008680555555555556,21.11111111111111,0)" xlink:href="#ap"/><use transform="matrix(0.008680555555555556,0,0,0.008680555555555556,27.04861111111111,0)" xlink:href="#aq"/><use transform="matrix(0.008680555555555556,0,0,0.008680555555555556,38.52430555555556,0)" xlink:href="#ar"/><use transform="matrix(0.008680555555555556,0,0,0.008680555555555556,49.722222222222236,0)" xlink:href="#aO"/></g><g id="A"><use transform="matrix(0.008680555555555556,0,0,0.008680555555555556,0,0)" xlink:href="#au"/><use transform="matrix(0.006076388888888889,0,0,0.006076388888888889,11.762152777777779,3.013888888888889)" xlink:href="#ar"/><use transform="matrix(0.008680555555555556,0,0,0.008680555555555556,19.600694444444446,0)" xlink:href="#ap"/><use transform="matrix(0.008680555555555556,0,0,0.008680555555555556,25.538194444444446,0)" xlink:href="#aw"/><use transform="matrix(0.008680555555555556,0,0,0.008680555555555556,37.56944444444444,0)" xlink:href="#ar"/><use transform="matrix(0.008680555555555556,0,0,0.008680555555555556,48.767361111111114,0)" xlink:href="#at"/></g><g id="C"><use transform="matrix(0.010850694444444444,0,0,0.010850694444444444,0,0)" xlink:href="#aL"/><use transform="matrix(0.010850694444444444,0,0,0.010850694444444444,9.038628472222221,0)" xlink:href="#aI"/><use transform="matrix(0.010850694444444444,0,0,0.010850694444444444,23.057725694444443,0)" xlink:href="#aI"/></g><g id="D"><use transform="matrix(0.010850694444444444,0,0,0.010850694444444444,0,0)" xlink:href="#aL"/><use transform="matrix(0.010850694444444444,0,0,0.010850694444444444,9.038628472222221,0)" xlink:href="#aI"/><use transform="matrix(0.010850694444444444,0,0,0.010850694444444444,23.057725694444443,0)" xlink:href="#aI"/></g><g id="E"><use transform="matrix(0.010850694444444444,0,0,0.010850694444444444,0,0)" xlink:href="#aH"/><use transform="matrix(0.010850694444444444,0,0,0.010850694444444444,13.726128472222221,0)" xlink:href="#aI"/></g><g id="F"><use transform="matrix(0.010850694444444444,0,0,0.010850694444444444,0,0)" xlink:href="#aJ"/><use transform="matrix(0.010850694444444444,0,0,0.010850694444444444,14.35546875,0)" xlink:href="#aI"/></g><g id="G"><use transform="matrix(0.010850694444444444,0,0,0.010850694444444444,0,0)" xlink:href="#aK"/><use transform="matrix(0.010850694444444444,0,0,0.010850694444444444,13.509114583333332,0)" xlink:href="#aI"/></g><g id="H"><use transform="matrix(0.010850694444444444,0,0,0.010850694444444444,0,0)" xlink:href="#aK"/><use transform="matrix(0.010850694444444444,0,0,0.010850694444444444,13.509114583333332,0)" xlink:href="#aI"/></g><path fill="#fff" d="M653-1490V0H466v-1314h-10L96-1047v-204l324-239h233" id="aP"/><g id="I"><use transform="matrix(0.010850694444444444,0,0,0.010850694444444444,0,0)" xlink:href="#aA"/><use transform="matrix(0.00759548611111111,0,0,0.00759548611111111,15.33203125,3.7673611111111107)" xlink:href="#aP"/></g><g id="J"><use transform="matrix(0.010850694444444444,0,0,0.010850694444444444,0,0)" xlink:href="#aB"/><use transform="matrix(0.00759548611111111,0,0,0.00759548611111111,14.539930555555555,3.7673611111111107)" xlink:href="#aP"/></g><path fill="#fff" d="M154 0v-137l495-537c165-179 249-281 249-418 0-156-121-253-280-253-170 0-278 110-278 278H158c0-264 200-443 465-443 266 0 455 183 455 416 0 161-73 288-336 568L416-179v12h687V0H154" id="aQ"/><g id="K"><use transform="matrix(0.010850694444444444,0,0,0.010850694444444444,0,0)" xlink:href="#aA"/><use transform="matrix(0.00759548611111111,0,0,0.00759548611111111,15.33203125,3.7673611111111107)" xlink:href="#aQ"/></g><g id="L"><use transform="matrix(0.010850694444444444,0,0,0.010850694444444444,0,0)" xlink:href="#aB"/><use transform="matrix(0.00759548611111111,0,0,0.00759548611111111,14.539930555555555,3.7673611111111107)" xlink:href="#aQ"/></g><g id="M"><use transform="matrix(0.008680555555555556,0,0,0.008680555555555556,0,0)" xlink:href="#au"/><use transform="matrix(0.006076388888888889,0,0,0.006076388888888889,11.762152777777779,3.013888888888889)" xlink:href="#av"/><use transform="matrix(0.006076388888888889,0,0,0.006076388888888889,17.133680555555557,3.013888888888889)" xlink:href="#ap"/><use transform="matrix(0.008680555555555556,0,0,0.008680555555555556,21.289930555555557,0)" xlink:href="#ay"/><use transform="matrix(0.008680555555555556,0,0,0.008680555555555556,32.64409722222223,0)" xlink:href="#ar"/></g><g id="N"><use transform="matrix(0.008680555555555556,0,0,0.008680555555555556,0,0)" xlink:href="#az"/><use transform="matrix(0.008680555555555556,0,0,0.008680555555555556,13.151041666666668,0)" xlink:href="#ap"/><use transform="matrix(0.008680555555555556,0,0,0.008680555555555556,19.088541666666668,0)" xlink:href="#av"/><use transform="matrix(0.008680555555555556,0,0,0.008680555555555556,26.76215277777778,0)" xlink:href="#aN"/><use transform="matrix(0.008680555555555556,0,0,0.008680555555555556,38.74131944444444,0)" xlink:href="#aq"/></g><g id="O"><use transform="matrix(0.008680555555555556,0,0,0.008680555555555556,0,0)" xlink:href="#ao"/><use transform="matrix(0.008680555555555556,0,0,0.008680555555555556,12.829861111111112,0)" xlink:href="#ap"/><use transform="matrix(0.008680555555555556,0,0,0.008680555555555556,18.767361111111114,0)" xlink:href="#av"/><use transform="matrix(0.008680555555555556,0,0,0.008680555555555556,26.440972222222225,0)" xlink:href="#aq"/><use transform="matrix(0.008680555555555556,0,0,0.008680555555555556,37.91666666666667,0)" xlink:href="#aw"/></g><g id="P"><use transform="matrix(0.008680555555555556,0,0,0.008680555555555556,0,0)" xlink:href="#as"/><use transform="matrix(0.008680555555555556,0,0,0.008680555555555556,10.894097222222223,0)" xlink:href="#ap"/><use transform="matrix(0.008680555555555556,0,0,0.008680555555555556,16.83159722222222,0)" xlink:href="#av"/><use transform="matrix(0.008680555555555556,0,0,0.008680555555555556,24.505208333333332,0)" xlink:href="#at"/><use transform="matrix(0.008680555555555556,0,0,0.008680555555555556,34.67881944444444,0)" xlink:href="#ay"/></g><g id="Q"><use transform="matrix(0.008680555555555556,0,0,0.008680555555555556,0,0)" xlink:href="#ax"/><use transform="matrix(0.006076388888888889,0,0,0.006076388888888889,13.272569444444445,3.013888888888889)" xlink:href="#ar"/><use transform="matrix(0.008680555555555556,0,0,0.008680555555555556,21.11111111111111,0)" xlink:href="#ap"/><use transform="matrix(0.008680555555555556,0,0,0.008680555555555556,27.04861111111111,0)" xlink:href="#ar"/><use transform="matrix(0.008680555555555556,0,0,0.008680555555555556,38.24652777777778,0)" xlink:href="#ar"/><use transform="matrix(0.008680555555555556,0,0,0.008680555555555556,49.44444444444445,0)" xlink:href="#aO"/></g><path d="M42 0l247-1490h583c327 0 472 170 434 400-27 167-165 271-324 306v12c166 8 304 151 266 380C1211-164 1016 0 681 0H42zm347-251h256c181 0 281-87 300-209 19-118-59-195-209-195H456zm102-613h232c130 0 250-82 272-213 16-99-43-164-187-164H553" id="aR"/><path d="M31 0l37-220 609-495c159-133 252-221 271-342 22-133-58-209-189-209-139 0-255 88-279 233H189c48-290 275-477 585-477 316 0 511 183 468 441-28 168-124 307-472 585L507-262l-2 11h622L1086 0H31" id="aS"/><path d="M263 19C159 19 87-65 105-172c15-88 94-152 182-152 106 0 175 85 158 189-14 88-92 154-182 154zm122-742c-104 0-175-84-158-191 15-88 94-152 182-152 106 0 175 85 158 189-13 88-92 154-182 154" id="aT"/><path d="M76 0l823-1228 2-10H188l42-252h1040l-42 256L402 0H76" id="aU"/><g id="R"><use transform="matrix(0.008680555555555556,0,0,0.008680555555555556,0,0)" xlink:href="#aR"/><use transform="matrix(0.006076388888888889,0,0,0.006076388888888889,11.762152777777779,3.013888888888889)" xlink:href="#aS"/><use transform="matrix(0.008680555555555556,0,0,0.008680555555555556,19.600694444444446,0)" xlink:href="#aT"/><use transform="matrix(0.008680555555555556,0,0,0.008680555555555556,25.538194444444446,0)" xlink:href="#aS"/><use transform="matrix(0.008680555555555556,0,0,0.008680555555555556,36.736111111111114,0)" xlink:href="#aU"/><use transform="matrix(0.008680555555555556,0,0,0.008680555555555556,47.43055555555556,0)" xlink:href="#aU"/></g><path d="M-44 0l756-1490h400L1387 0h-327l-57-346H473L305 0H-44zm634-585h373c-37-212-56-397-81-666-107 262-185 453-292 666" id="aV"/><path d="M572 20C248 20 37-159 76-418h307c-13 112 82 185 223 185 146 0 264-82 284-203 21-124-71-210-243-210H509l38-227h138c143 0 258-80 278-200 19-115-54-193-183-193-132 0-250 74-272 189H214c46-255 298-433 600-433 305 0 487 185 448 418-27 168-161 285-332 317l-1 11c213 29 306 163 275 347-42 255-302 437-632 437" id="aW"/><path d="M587 20C253 20 27-158 67-401c31-187 195-339 381-369l1-9c-152-33-238-168-211-330 38-232 270-401 568-401s507 170 469 400c-27 164-161 298-321 331l-1 9c172 30 291 183 259 371-41 242-293 419-625 419zm16-226c151 0 274-88 295-219 21-130-67-225-214-225-145 0-273 91-296 224-22 129 60 220 215 220zm111-668c128 0 238-85 257-204 20-119-55-199-183-199s-236 78-257 199c-20 120 55 204 183 204" id="aX"/><g id="S"><use transform="matrix(0.008680555555555556,0,0,0.008680555555555556,0,0)" xlink:href="#aV"/><use transform="matrix(0.006076388888888889,0,0,0.006076388888888889,13.272569444444445,3.013888888888889)" xlink:href="#aW"/><use transform="matrix(0.008680555555555556,0,0,0.008680555555555556,21.305555555555557,0)" xlink:href="#aT"/><use transform="matrix(0.008680555555555556,0,0,0.008680555555555556,27.243055555555557,0)" xlink:href="#aW"/><use transform="matrix(0.008680555555555556,0,0,0.008680555555555556,38.71875,0)" xlink:href="#aS"/><use transform="matrix(0.008680555555555556,0,0,0.008680555555555556,49.91666666666667,0)" xlink:href="#aX"/></g><path d="M573 22C279 22 73-168 85-415h301c7 108 76 174 193 174 196 0 335-183 385-479h-10c-91 131-244 209-405 209-267 0-430-204-384-483 50-296 291-520 625-518 303 2 572 189 482 731-83 501-333 803-699 803zm102-757c145 0 279-118 304-266 25-145-64-267-214-267-145 0-277 115-302 268-24 148 62 265 212 265" id="aY"/><g id="T"><use transform="matrix(0.008680555555555556,0,0,0.008680555555555556,0,0)" xlink:href="#aR"/><use transform="matrix(0.006076388888888889,0,0,0.006076388888888889,11.762152777777779,3.013888888888889)" xlink:href="#aW"/><use transform="matrix(0.008680555555555556,0,0,0.008680555555555556,19.79513888888889,0)" xlink:href="#aT"/><use transform="matrix(0.008680555555555556,0,0,0.008680555555555556,25.73263888888889,0)" xlink:href="#aW"/><use transform="matrix(0.008680555555555556,0,0,0.008680555555555556,37.20833333333333,0)" xlink:href="#aU"/><use transform="matrix(0.008680555555555556,0,0,0.008680555555555556,47.38194444444444,0)" xlink:href="#aY"/></g><path d="M53-265l39-241 787-984h383l-162 979h186l-41 246h-186L1015 0H722l44-265H53zm759-246l107-643h-12L403-523l-2 12h411" id="aZ"/><path d="M595 20C218 20 45-261 124-744c80-483 349-766 724-766 374 0 549 282 470 765-80 485-346 765-723 765zm41-253c185 0 317-186 371-512 53-325-16-513-201-513-181 0-316 183-371 514-53 326 17 511 201 511" id="ba"/><g id="U"><use transform="matrix(0.008680555555555556,0,0,0.008680555555555556,0,0)" xlink:href="#aV"/><use transform="matrix(0.006076388888888889,0,0,0.006076388888888889,13.272569444444445,3.013888888888889)" xlink:href="#aZ"/><use transform="matrix(0.008680555555555556,0,0,0.008680555555555556,21.694444444444443,0)" xlink:href="#aT"/><use transform="matrix(0.008680555555555556,0,0,0.008680555555555556,27.631944444444443,0)" xlink:href="#aZ"/><use transform="matrix(0.008680555555555556,0,0,0.008680555555555556,39.66319444444444,0)" xlink:href="#aW"/><use transform="matrix(0.008680555555555556,0,0,0.008680555555555556,51.13888888888889,0)" xlink:href="#ba"/></g><g id="V"><use transform="matrix(0.010850694444444444,0,0,0.010850694444444444,0,0)" xlink:href="#aK"/><use transform="matrix(0.010850694444444444,0,0,0.010850694444444444,13.509114583333332,0)" xlink:href="#aI"/></g><g id="W"><use transform="matrix(0.010850694444444444,0,0,0.010850694444444444,0,0)" xlink:href="#aK"/><use transform="matrix(0.010850694444444444,0,0,0.010850694444444444,13.509114583333332,0)" xlink:href="#aI"/></g><g id="X"><use transform="matrix(0.010850694444444444,0,0,0.010850694444444444,0,0)" xlink:href="#aH"/><use transform="matrix(0.010850694444444444,0,0,0.010850694444444444,13.726128472222221,0)" xlink:href="#aI"/></g><g id="Y"><use transform="matrix(0.010850694444444444,0,0,0.010850694444444444,0,0)" xlink:href="#aJ"/><use transform="matrix(0.010850694444444444,0,0,0.010850694444444444,14.35546875,0)" xlink:href="#aI"/></g><g id="Z"><use transform="matrix(0.010850694444444444,0,0,0.010850694444444444,0,0)" xlink:href="#aK"/><use transform="matrix(0.010850694444444444,0,0,0.010850694444444444,13.509114583333332,0)" xlink:href="#aI"/></g><path fill="#fff" d="M635 20c-292 0-500-160-510-396h192c11 142 145 229 315 229 187 0 323-105 323-260 0-161-125-274-346-274H488v-165h121c174 0 294-100 294-254 0-148-104-245-266-245-152 0-291 85-297 230H157c8-234 222-395 484-395 278 0 448 188 448 400 0 168-95 291-247 336v12c190 31 301 169 301 357 0 244-216 425-508 425" id="bb"/><g id="aa"><use transform="matrix(0.010850694444444444,0,0,0.010850694444444444,0,0)" xlink:href="#aA"/><use transform="matrix(0.00759548611111111,0,0,0.00759548611111111,15.33203125,3.7673611111111107)" xlink:href="#bb"/></g><g id="ab"><use transform="matrix(0.010850694444444444,0,0,0.010850694444444444,0,0)" xlink:href="#aB"/><use transform="matrix(0.00759548611111111,0,0,0.00759548611111111,14.539930555555555,3.7673611111111107)" xlink:href="#bb"/></g><path fill="#fff" d="M120-303v-155l652-1032h231v1020h202v167h-202V0H821v-303H120zm702-167v-782h-12L323-482v12h499" id="bc"/><g id="ac"><use transform="matrix(0.010850694444444444,0,0,0.010850694444444444,0,0)" xlink:href="#aA"/><use transform="matrix(0.00759548611111111,0,0,0.00759548611111111,15.33203125,3.7673611111111107)" xlink:href="#bc"/></g><path d="M605 22C247 22 24-145 68-462h297c-14 151 94 226 259 226 162 0 283-76 302-190 17-102-68-149-225-189l-158-41c-235-59-372-183-336-404 43-269 290-450 614-450 328 0 536 182 498 445h-294c8-119-76-188-229-188-156 0-256 72-273 172-30 154 195 185 336 221 239 61 415 185 374 436-45 271-266 446-628 446" id="bd"/><path d="M484 20C209 20 41-111 41-349c0-31 3-64 23-186h306c-19 112-21 131-21 149 0 105 61 160 164 160 116 0 203-72 228-218l174-1046h302L1044-449C994-149 793 20 484 20" id="be"/><path d="M42 0l247-1490h980l-42 253H552l-69 417h609l-41 248H442L347 0H42" id="bf"/><g id="ad"><use transform="matrix(0.010850694444444444,0,0,0.010850694444444444,0,0)" xlink:href="#bd"/><use transform="matrix(0.010850694444444444,0,0,0.010850694444444444,14.539930555555555,0)" xlink:href="#be"/><use transform="matrix(0.010850694444444444,0,0,0.010850694444444444,27.52821180555556,0)" xlink:href="#bf"/></g><path d="M42 0l247-1490h581c341 0 501 193 452 485-33 203-151 351-334 424L1209 0H871L675-532H435L347 0H42zm434-779h220c187 0 287-77 312-226 25-154-54-233-237-233H552" id="bg"/><path d="M903-1490L656 0H352l203-1221h-10L163-980l46-279 368-231h326" id="bh"/><g id="ae"><use transform="matrix(0.010850694444444444,0,0,0.010850694444444444,0,0)" xlink:href="#bg"/><use transform="matrix(0.010850694444444444,0,0,0.010850694444444444,14.594184027777777,0)" xlink:href="#bg"/><use transform="matrix(0.010850694444444444,0,0,0.010850694444444444,29.188368055555554,0)" xlink:href="#bh"/><use transform="matrix(0.010850694444444444,0,0,0.010850694444444444,38.78038194444444,0)" xlink:href="#ba"/><use transform="matrix(0.010850694444444444,0,0,0.010850694444444444,53.75434027777778,0)" xlink:href="#ba"/></g><path d="M577 20C271 20 69-163 105-418h298c-14 116 68 196 196 196 148 0 282-107 308-267s-58-269-208-269c-88 0-193 38-249 98l-266-48 202-782h902l-42 252H597L496-861h8c65-72 177-124 305-124 269 0 443 204 395 490-50 300-300 515-627 515" id="bi"/><g id="af"><use transform="matrix(0.010850694444444444,0,0,0.010850694444444444,0,0)" xlink:href="#bg"/><use transform="matrix(0.010850694444444444,0,0,0.010850694444444444,14.594184027777777,0)" xlink:href="#bg"/><use transform="matrix(0.010850694444444444,0,0,0.010850694444444444,29.188368055555554,0)" xlink:href="#bi"/><use transform="matrix(0.010850694444444444,0,0,0.010850694444444444,43.381076388888886,0)" xlink:href="#ba"/></g><path d="M101-265v-241l623-984h383v979h186v246h-186V0H814v-265H101zm719-246v-643h-12L409-523v12h411" id="bj"/><path d="M177 0l620-1228v-10H75v-252h1041v256L494 0H177" id="bk"/><path d="M664 20c-306 0-529-183-535-438h297c6 117 110 196 238 196 149 0 255-108 255-266 0-159-108-270-261-270-89 0-178 39-224 98l-274-48 72-782h901v252H485l-39 377h8c53-72 165-124 294-124 269 0 467 204 467 490 0 300-224 515-551 515" id="bl"/><g id="ag"><use transform="matrix(0.010850694444444444,0,0,0.010850694444444444,0,0)" xlink:href="#bj"/><use transform="matrix(0.010850694444444444,0,0,0.010850694444444444,15.028211805555555,0)" xlink:href="#bk"/><use transform="matrix(0.010850694444444444,0,0,0.010850694444444444,27.734375,0)" xlink:href="#bl"/></g><g id="ah"><use transform="matrix(0.010850694444444444,0,0,0.010850694444444444,0,0)" xlink:href="#bj"/><use transform="matrix(0.010850694444444444,0,0,0.010850694444444444,15.028211805555555,0)" xlink:href="#bk"/><use transform="matrix(0.010850694444444444,0,0,0.010850694444444444,28.385416666666664,0)" xlink:href="#bk"/></g><path d="M666 20C332 20 94-158 94-400c0-186 139-340 321-370v-9c-159-33-267-168-267-331 0-230 219-400 518-400 298 0 519 171 519 400 0 163-111 298-266 331v9c177 30 321 184 321 370 0 242-241 420-574 420zm0-226c153 0 255-89 255-218 0-131-108-226-255-226-148 0-255 94-255 226 0 128 101 218 255 218zm0-668c127 0 220-84 220-203s-90-200-220-200-220 80-220 200c0 119 92 203 220 203" id="bm"/><path d="M690 20C314 20 94-261 94-744c0-482 221-766 596-766 376 0 597 284 597 766 0 483-219 764-597 764zm0-253c184 0 286-184 286-511 0-328-102-514-286-514-183 0-285 187-285 514s101 511 285 511" id="bn"/><g id="ai"><use transform="matrix(0.010850694444444444,0,0,0.010850694444444444,0,0)" xlink:href="#bj"/><use transform="matrix(0.010850694444444444,0,0,0.010850694444444444,15.028211805555555,0)" xlink:href="#bm"/><use transform="matrix(0.010850694444444444,0,0,0.010850694444444444,29.4921875,0)" xlink:href="#bn"/></g></defs></g></svg>